<?xml version="1.0" encoding="utf-8"?>
<!-- Generator: Adobe Illustrator 15.0.0, SVG Export Plug-In . SVG Version: 6.00 Build 0)  -->
<!DOCTYPE svg PUBLIC "-//W3C//DTD SVG 1.1//EN" "http://www.w3.org/Graphics/SVG/1.1/DTD/svg11.dtd">
<svg version="1.1"
	 id="Layer_1" xmlns:dc="http://purl.org/dc/elements/1.1/" xmlns:cc="http://creativecommons.org/ns#" xmlns:rdf="http://www.w3.org/1999/02/22-rdf-syntax-ns#" xmlns:svg="http://www.w3.org/2000/svg"
	 xmlns="http://www.w3.org/2000/svg" xmlns:xlink="http://www.w3.org/1999/xlink" x="0px" y="0px" width="400px" height="400px"
	 viewBox="-129.875 -130.25 400 400" enable-background="new -129.875 -130.25 400 400" xml:space="preserve">
<g>
	<path d="M4.907-35.501c10.605,0,23.399,2.188,38.388,6.572c15.128,4.389,25.165,6.577,30.115,6.577
		c6.362,0,16.754-2.474,31.176-7.426c14.421-4.942,26.935-7.423,37.537-7.423c17.392,0,32.874,4.669,46.447,14
		c7.634,5.373,15.198,12.651,22.692,21.845c-11.312,9.617-19.582,18.171-24.813,25.662c-9.473,13.573-14.209,28.56-14.209,44.96
		c0,17.954,5.019,34.143,15.058,48.567c10.038,14.422,21.49,23.538,34.362,27.358c-5.379,17.39-14.286,35.574-26.728,54.514
		c-18.806,28.413-37.469,42.623-55.989,42.623c-7.354,0-17.533-2.324-30.54-6.999c-12.867-4.675-23.754-6.999-32.66-6.999
		c-8.908,0-19.301,2.416-31.175,7.212c-11.737,4.944-21.279,7.419-28.633,7.419c-22.198,0-43.971-18.793-65.321-56.405
		c-21.35-37.193-32.024-73.671-32.024-109.442c0-33.227,8.13-60.299,24.389-81.228C-40.62-25.042-19.977-35.501,4.907-35.501
		 M138.519-119.062c0.565,1.841,0.919,3.467,1.061,4.878c0.141,1.417,0.212,2.831,0.212,4.245c0,9.049-2.12,18.943-6.362,29.691
		c-4.242,10.742-10.958,20.713-20.148,29.903c-7.917,7.776-15.764,13.005-23.54,15.694c-4.949,1.555-12.442,2.757-22.48,3.602
		c0.283-21.49,5.866-40.083,16.753-55.777c11.029-15.691,29.197-26.437,54.506-32.233"/>
</g>
</svg>
