<?xml version="1.0" encoding="utf-8"?>
<!-- Generator: Adobe Illustrator 15.0.0, SVG Export Plug-In . SVG Version: 6.00 Build 0)  -->
<!DOCTYPE svg PUBLIC "-//W3C//DTD SVG 1.1//EN" "http://www.w3.org/Graphics/SVG/1.1/DTD/svg11.dtd">
<svg version="1.1" id="Layer_6" xmlns="http://www.w3.org/2000/svg" xmlns:xlink="http://www.w3.org/1999/xlink" x="0px" y="0px"
	 width="210px" height="70px" viewBox="0 0 210 70" enable-background="new 0 0 210 70" xml:space="preserve">
<circle fill="#222222" cx="175" cy="34.967" r="35"/>
<rect x="-3.659" y="-3.134" fill="#222222" width="177.759" height="80.435"/>
<g>
	<path fill="#FFFFFF" d="M65.356,25.485c-1.883,0-3.369,0.627-4.459,1.881s-1.635,2.971-1.635,5.15c0,2.242,0.525,3.975,1.576,5.197
		s2.549,1.834,4.494,1.834c1.195,0,2.559-0.215,4.09-0.645v1.746c-1.188,0.445-2.652,0.668-4.395,0.668
		c-2.523,0-4.471-0.766-5.842-2.297s-2.057-3.707-2.057-6.527c0-1.766,0.33-3.312,0.99-4.641s1.613-2.352,2.859-3.07
		s2.713-1.078,4.4-1.078c1.797,0,3.367,0.328,4.711,0.984l-0.844,1.711C67.95,25.79,66.653,25.485,65.356,25.485z"/>
	<path fill="#FFFFFF" d="M80.767,41.083l-0.387-1.828h-0.094c-0.641,0.805-1.279,1.35-1.916,1.635s-1.432,0.428-2.385,0.428
		c-1.273,0-2.271-0.328-2.994-0.984s-1.084-1.59-1.084-2.801c0-2.594,2.074-3.953,6.223-4.078l2.18-0.07v-0.797
		c0-1.008-0.217-1.752-0.65-2.232s-1.127-0.721-2.08-0.721c-1.07,0-2.281,0.328-3.633,0.984l-0.598-1.488
		c0.633-0.344,1.326-0.613,2.08-0.809s1.51-0.293,2.268-0.293c1.531,0,2.666,0.34,3.404,1.02s1.107,1.77,1.107,3.27v8.766H80.767z
		 M76.372,39.712c1.211,0,2.162-0.332,2.854-0.996s1.037-1.594,1.037-2.789v-1.16l-1.945,0.082
		c-1.547,0.055-2.662,0.295-3.346,0.721s-1.025,1.088-1.025,1.986c0,0.703,0.213,1.238,0.639,1.605S75.606,39.712,76.372,39.712z"/>
	<path fill="#FFFFFF" d="M92.075,28.005c0.57,0,1.082,0.047,1.535,0.141l-0.27,1.805c-0.531-0.117-1-0.176-1.406-0.176
		c-1.039,0-1.928,0.422-2.666,1.266s-1.107,1.895-1.107,3.152v6.891h-1.945V28.239h1.605l0.223,2.379h0.094
		c0.477-0.836,1.051-1.48,1.723-1.934S91.271,28.005,92.075,28.005z"/>
	<path fill="#FFFFFF" d="M101.438,41.317c-1.898,0-3.396-0.578-4.494-1.734s-1.646-2.762-1.646-4.816c0-2.07,0.51-3.715,1.529-4.934
		s2.389-1.828,4.107-1.828c1.609,0,2.883,0.529,3.82,1.588s1.406,2.455,1.406,4.189v1.23h-8.848c0.039,1.508,0.42,2.652,1.143,3.434
		s1.74,1.172,3.053,1.172c1.383,0,2.75-0.289,4.102-0.867v1.734c-0.688,0.297-1.338,0.51-1.951,0.639S102.306,41.317,101.438,41.317
		z M100.911,29.634c-1.031,0-1.854,0.336-2.467,1.008s-0.975,1.602-1.084,2.789h6.715c0-1.227-0.273-2.166-0.82-2.818
		S101.927,29.634,100.911,29.634z"/>
	<path fill="#FFFFFF" d="M114.903,41.317c-1.898,0-3.396-0.578-4.494-1.734s-1.646-2.762-1.646-4.816c0-2.07,0.51-3.715,1.529-4.934
		s2.389-1.828,4.107-1.828c1.609,0,2.883,0.529,3.82,1.588s1.406,2.455,1.406,4.189v1.23h-8.848c0.039,1.508,0.42,2.652,1.143,3.434
		s1.74,1.172,3.053,1.172c1.383,0,2.75-0.289,4.102-0.867v1.734c-0.688,0.297-1.338,0.51-1.951,0.639S115.771,41.317,114.903,41.317
		z M114.376,29.634c-1.031,0-1.854,0.336-2.467,1.008s-0.975,1.602-1.084,2.789h6.715c0-1.227-0.273-2.166-0.82-2.818
		S115.392,29.634,114.376,29.634z"/>
	<path fill="#FFFFFF" d="M128.802,28.005c0.57,0,1.082,0.047,1.535,0.141l-0.27,1.805c-0.531-0.117-1-0.176-1.406-0.176
		c-1.039,0-1.928,0.422-2.666,1.266s-1.107,1.895-1.107,3.152v6.891h-1.945V28.239h1.605l0.223,2.379h0.094
		c0.477-0.836,1.051-1.48,1.723-1.934S127.997,28.005,128.802,28.005z"/>
	<path fill="#FFFFFF" d="M141.024,37.579c0,1.195-0.445,2.117-1.336,2.766s-2.141,0.973-3.75,0.973c-1.703,0-3.031-0.27-3.984-0.809
		v-1.805c0.617,0.312,1.279,0.559,1.986,0.738s1.389,0.27,2.045,0.27c1.016,0,1.797-0.162,2.344-0.486s0.82-0.818,0.82-1.482
		c0-0.5-0.217-0.928-0.65-1.283s-1.279-0.775-2.537-1.26c-1.195-0.445-2.045-0.834-2.549-1.166s-0.879-0.709-1.125-1.131
		s-0.369-0.926-0.369-1.512c0-1.047,0.426-1.873,1.277-2.479s2.02-0.908,3.504-0.908c1.383,0,2.734,0.281,4.055,0.844l-0.691,1.582
		c-1.289-0.531-2.457-0.797-3.504-0.797c-0.922,0-1.617,0.145-2.086,0.434s-0.703,0.688-0.703,1.195
		c0,0.344,0.088,0.637,0.264,0.879s0.459,0.473,0.85,0.691s1.141,0.535,2.25,0.949c1.523,0.555,2.553,1.113,3.088,1.676
		S141.024,36.728,141.024,37.579z"/>
</g>
</svg>
