<?xml version="1.0" encoding="utf-8"?>
<!-- Generator: Adobe Illustrator 15.0.0, SVG Export Plug-In . SVG Version: 6.00 Build 0)  -->
<!DOCTYPE svg PUBLIC "-//W3C//DTD SVG 1.1//EN" "http://www.w3.org/Graphics/SVG/1.1/DTD/svg11.dtd">
<svg version="1.1" xmlns="http://www.w3.org/2000/svg" xmlns:xlink="http://www.w3.org/1999/xlink" x="0px" y="0px" width="210px"
	 height="70px" viewBox="0 0 210 70" enable-background="new 0 0 210 70" xml:space="preserve">

<g id="Layer_12">
	<circle fill="#222222" cx="175" cy="34.649" r="35"/>
	<rect x="-3.659" y="-3.451" fill="#222222" width="177.759" height="80.434"/>
	<g>
		<path fill="#FFFFFF" d="M36.862,42.567c-1.859,0-3.299-0.572-4.318-1.717s-1.529-2.764-1.529-4.857
			c0-2.148,0.518-3.809,1.553-4.98s2.51-1.758,4.424-1.758c0.617,0,1.234,0.066,1.852,0.199s1.102,0.289,1.453,0.469l-0.598,1.652
			c-0.43-0.172-0.898-0.314-1.406-0.428s-0.957-0.17-1.348-0.17c-2.609,0-3.914,1.664-3.914,4.992c0,1.578,0.318,2.789,0.955,3.633
			s1.58,1.266,2.83,1.266c1.07,0,2.168-0.23,3.293-0.691v1.723C39.249,42.345,38.167,42.567,36.862,42.567z"/>
		<path fill="#FFFFFF" d="M51.053,42.333l-0.387-1.828h-0.094c-0.641,0.805-1.279,1.35-1.916,1.635s-1.432,0.428-2.385,0.428
			c-1.273,0-2.271-0.328-2.994-0.984s-1.084-1.59-1.084-2.801c0-2.594,2.074-3.953,6.223-4.078l2.18-0.07v-0.797
			c0-1.008-0.217-1.752-0.65-2.232s-1.127-0.721-2.08-0.721c-1.07,0-2.281,0.328-3.633,0.984l-0.598-1.488
			c0.633-0.344,1.326-0.613,2.08-0.809s1.51-0.293,2.268-0.293c1.531,0,2.666,0.34,3.404,1.02s1.107,1.77,1.107,3.27v8.766H51.053z
			 M46.659,40.962c1.211,0,2.162-0.332,2.854-0.996s1.037-1.594,1.037-2.789v-1.16l-1.945,0.082
			c-1.547,0.055-2.662,0.295-3.346,0.721s-1.025,1.088-1.025,1.986c0,0.703,0.213,1.238,0.639,1.605S45.893,40.962,46.659,40.962z"
			/>
		<path fill="#FFFFFF" d="M64.788,38.829c0,1.195-0.445,2.117-1.336,2.766s-2.141,0.973-3.75,0.973c-1.703,0-3.031-0.27-3.984-0.809
			v-1.805c0.617,0.312,1.279,0.559,1.986,0.738s1.389,0.27,2.045,0.27c1.016,0,1.797-0.162,2.344-0.486s0.82-0.818,0.82-1.482
			c0-0.5-0.217-0.928-0.65-1.283s-1.279-0.775-2.537-1.26c-1.195-0.445-2.045-0.834-2.549-1.166s-0.879-0.709-1.125-1.131
			s-0.369-0.926-0.369-1.512c0-1.047,0.426-1.873,1.277-2.479s2.02-0.908,3.504-0.908c1.383,0,2.734,0.281,4.055,0.844l-0.691,1.582
			c-1.289-0.531-2.457-0.797-3.504-0.797c-0.922,0-1.617,0.145-2.086,0.434s-0.703,0.688-0.703,1.195
			c0,0.344,0.088,0.637,0.264,0.879s0.459,0.473,0.85,0.691s1.141,0.535,2.25,0.949c1.523,0.555,2.553,1.113,3.088,1.676
			S64.788,37.978,64.788,38.829z"/>
		<path fill="#FFFFFF" d="M76.74,42.333v-8.309c0-1.047-0.238-1.828-0.715-2.344s-1.223-0.773-2.238-0.773
			c-1.352,0-2.338,0.367-2.958,1.102c-0.621,0.734-0.932,1.938-0.932,3.609v6.715h-1.945V24.099h1.945v5.52
			c0,0.664-0.031,1.215-0.094,1.652h0.117c0.383-0.617,0.928-1.104,1.634-1.459c0.707-0.355,1.514-0.533,2.42-0.533
			c1.57,0,2.748,0.373,3.533,1.119s1.178,1.932,1.178,3.557v8.379H76.74z"/>
		<path fill="#FFFFFF" d="M97.658,40.61h-0.105c-0.898,1.305-2.242,1.957-4.031,1.957c-1.68,0-2.986-0.574-3.92-1.723
			s-1.4-2.781-1.4-4.898s0.469-3.762,1.406-4.934s2.242-1.758,3.914-1.758c1.742,0,3.078,0.633,4.008,1.898h0.152L97.6,30.228
			l-0.047-0.902v-5.227h1.945v18.234h-1.582L97.658,40.61z M93.768,40.938c1.328,0,2.291-0.361,2.889-1.084s0.896-1.889,0.896-3.498
			v-0.41c0-1.82-0.303-3.119-0.908-3.896s-1.572-1.166-2.9-1.166c-1.141,0-2.014,0.443-2.619,1.33s-0.908,2.139-0.908,3.756
			c0,1.641,0.301,2.879,0.902,3.715S92.604,40.938,93.768,40.938z"/>
		<path fill="#FFFFFF" d="M109.482,29.255c0.57,0,1.082,0.047,1.535,0.141l-0.27,1.805c-0.531-0.117-1-0.176-1.406-0.176
			c-1.039,0-1.928,0.422-2.666,1.266s-1.107,1.895-1.107,3.152v6.891h-1.945V29.489h1.605l0.223,2.379h0.094
			c0.477-0.836,1.051-1.48,1.723-1.934S108.678,29.255,109.482,29.255z"/>
		<path fill="#FFFFFF" d="M121.318,42.333l-0.387-1.828h-0.094c-0.641,0.805-1.279,1.35-1.916,1.635s-1.432,0.428-2.385,0.428
			c-1.273,0-2.271-0.328-2.994-0.984s-1.084-1.59-1.084-2.801c0-2.594,2.074-3.953,6.223-4.078l2.18-0.07v-0.797
			c0-1.008-0.217-1.752-0.65-2.232s-1.127-0.721-2.08-0.721c-1.07,0-2.281,0.328-3.633,0.984L113.9,30.38
			c0.633-0.344,1.326-0.613,2.08-0.809s1.51-0.293,2.268-0.293c1.531,0,2.666,0.34,3.404,1.02s1.107,1.77,1.107,3.27v8.766H121.318z
			 M116.924,40.962c1.211,0,2.162-0.332,2.854-0.996s1.037-1.594,1.037-2.789v-1.16l-1.945,0.082
			c-1.547,0.055-2.662,0.295-3.346,0.721s-1.025,1.088-1.025,1.986c0,0.703,0.213,1.238,0.639,1.605S116.158,40.962,116.924,40.962z
			"/>
		<path fill="#FFFFFF" d="M137.256,42.333l-2.355-7.535c-0.148-0.461-0.426-1.508-0.832-3.141h-0.094
			c-0.312,1.367-0.586,2.422-0.82,3.164l-2.426,7.512h-2.25l-3.504-12.844h2.039c0.828,3.227,1.459,5.684,1.893,7.371
			s0.682,2.824,0.744,3.41h0.094c0.086-0.445,0.225-1.021,0.416-1.729s0.357-1.268,0.498-1.682l2.355-7.371h2.109l2.297,7.371
			c0.438,1.344,0.734,2.473,0.891,3.387h0.094c0.031-0.281,0.115-0.715,0.252-1.301s0.951-3.738,2.443-9.457h2.016l-3.551,12.844
			H137.256z"/>
		<path fill="#FFFFFF" d="M150.861,42.567c-1.898,0-3.396-0.578-4.494-1.734s-1.646-2.762-1.646-4.816
			c0-2.07,0.51-3.715,1.529-4.934s2.389-1.828,4.107-1.828c1.609,0,2.883,0.529,3.82,1.588s1.406,2.455,1.406,4.189v1.23h-8.848
			c0.039,1.508,0.42,2.652,1.143,3.434s1.74,1.172,3.053,1.172c1.383,0,2.75-0.289,4.102-0.867v1.734
			c-0.688,0.297-1.338,0.51-1.951,0.639S151.729,42.567,150.861,42.567z M150.334,30.884c-1.031,0-1.854,0.336-2.467,1.008
			s-0.975,1.602-1.084,2.789h6.715c0-1.227-0.273-2.166-0.82-2.818S151.35,30.884,150.334,30.884z"/>
		<path fill="#FFFFFF" d="M164.76,29.255c0.57,0,1.082,0.047,1.535,0.141l-0.27,1.805c-0.531-0.117-1-0.176-1.406-0.176
			c-1.039,0-1.928,0.422-2.666,1.266s-1.107,1.895-1.107,3.152v6.891H158.9V29.489h1.605l0.223,2.379h0.094
			c0.477-0.836,1.051-1.48,1.723-1.934S163.955,29.255,164.76,29.255z"/>
	</g>
</g>
</svg>
