<?xml version="1.0" encoding="utf-8"?>
<!-- Generator: Adobe Illustrator 15.0.0, SVG Export Plug-In . SVG Version: 6.00 Build 0)  -->
<!DOCTYPE svg PUBLIC "-//W3C//DTD SVG 1.1//EN" "http://www.w3.org/Graphics/SVG/1.1/DTD/svg11.dtd">
<svg version="1.1" id="Layer_1" xmlns="http://www.w3.org/2000/svg" xmlns:xlink="http://www.w3.org/1999/xlink" x="0px" y="0px"
	 width="562px" height="177.939px" viewBox="0 0 562 177.939" enable-background="new 0 0 562 177.939" xml:space="preserve">
<g id="XMLID_2_">
	<g>
		<path fill="#EAEAEA" d="M534.78,143.65c0.27,0.891-2.09,2.239-0.33,0.811C534.43,144.06,534.71,143.96,534.78,143.65z"/>
		<path fill="#EAEAEA" d="M525.7,143.65c0.42,0.279,0.77,0.641,0.97,1.141C526.22,144.54,525.77,144.28,525.7,143.65z"/>
		<path fill="#EAEAEA" d="M484.7,123.56c0,4.642,0,9.29,0,13.932c-0.75-4.051-0.11-9.5-0.32-14.102
			C484.56,123.37,484.67,123.43,484.7,123.56z"/>
		<path fill="#EAEAEA" d="M437.22,19.84c8.892,0.32,8.83,16.53-2.43,15.07c-1.34-0.17-2-0.75-3.24-1.29
			C439.42,34.4,442.7,23.99,437.22,19.84z"/>
		<path fill="#EAEAEA" d="M427.66,128.74c0.89,0.199,0.47,1.528,0.479,2.27c0.04,2.3,0.24,5.891-0.318,7.78
			c-0.892-0.181-0.472-1.49-0.49-2.11c-0.062-2.199,0.05-5.14,0-7.449c0-0.16,0-0.33,0-0.489
			C427.44,128.74,427.55,128.74,427.66,128.74z"/>
		<path fill="#EAEAEA" d="M425.88,128.74c0.88,0.199,0.47,1.528,0.48,2.27c0.04,2.3,0.229,5.891-0.32,7.78
			c-0.9-0.181-0.47-1.49-0.49-2.11c-0.06-2.199,0.05-5.14,0-7.449c0-0.16,0-0.33,0-0.489C425.66,128.74,425.77,128.74,425.88,128.74
			z"/>
		<path fill="#EAEAEA" d="M428.14,113.35c-2.37,0-4.75,0-7.13,0c0-0.6,0-1.188,0-1.79c-1.938,0-3.89,0-5.83,0
			c0-0.54,0-1.079,0-1.619c5.34,0.051,9.562-1.021,12.802-3.069C428.36,108.7,428.04,111.24,428.14,113.35z"/>
		<path fill="#EAEAEA" d="M360.24,78.18c-0.54,0.38-1.78,0.061-2.59,0.16c0.1-1.07-0.28-1.66-0.16-2.75
			C358.5,76.36,359.23,77.41,360.24,78.18z"/>
		<path fill="#EAEAEA" d="M341.279,53.71c-0.84-0.95,1.15-1.69,0.171-2.271c1.239-0.1,1-1.689,1.938-2.1
			c0.852,0.18,0,1.76-0.158,2.43c0.068,0.24,0.209-0.069,0.479,0c0.4,0.771,0.04,1.62-0.811,1.62
			c-0.119-0.149-0.17-0.37-0.159-0.649C342.23,53.04,341.971,53.59,341.279,53.71z"/>
		<path fill="#EAEAEA" d="M338.85,35.08c0.7,0.52,0.352,1.08,0.812,1.779c-0.649,0.021-0.71,0.271-1.29,0.65
			C338.34,36.09,338.46,36.36,338.85,35.08z"/>
		<path fill="#EAEAEA" d="M269.33,34.27c-2.7,0-5.4,0-8.1,0c0-2.38,0-4.76,0-7.14c0.11,0,0.22,0,0.32,0
			C264.3,29.25,267.32,31.95,269.33,34.27z"/>
		<path fill="#EAEAEA" d="M421.01,113.35c2.38,0,4.76,0,7.13,0c-0.1-2.108,0.222-4.648-0.158-6.479
			c-3.24,2.05-7.462,3.12-12.802,3.069c0,0.54,0,1.079,0,1.619c1.94,0,3.892,0,5.83,0C421.01,112.16,421.01,112.75,421.01,113.35z
			 M196.26,106.24c0.03-0.131,0.1-0.23,0.31-0.19c-0.11,0.771-0.95,0.92-0.49,1.46c0.64-0.12,0.74-0.77,0.98-1.29
			c0.02,0.24-0.06,0.59,0.16,0.65c0.02-0.94,0.81-0.23,0.97-1.141c0.11,0.59-0.35,0.619-0.32,1.141c0.42-0.33,1.95,0.199,3.24,0
			c0.1-0.98-0.22-2.38,0.16-3.08c4.54-0.11,9.51,0.21,13.77-0.17c0-0.86,0-1.721,0-2.591c-6.8,1.221-14.69,0.421-20.25-1.46
			c-0.08,0.189-0.18,0.37-0.33,0.489c-0.01-0.438,0.27-0.329,0-0.648c-0.4,0.21-0.5-0.08-0.64,0.159
			c0.35,0.301,0.03,1.271,0.48,1.46c0.24-0.59,0.41-0.319,0.81-0.811c-0.2,0.5-0.49,0.91-1.13,0.971
			c-0.04-0.12-0.01-0.319-0.16-0.319c0.09,0.29,0.08,0.67,0.32,0.81c0.05-0.148,0.44-0.148,0.49,0c-0.22,0.58-0.4,1.03,0,1.62
			c0.36-0.3,0.14-2.12,0.64-1.3c0.24-0.351-0.02-1.2,0.49-1.29c-0.03,1.06-0.74,1.83-0.16,2.43c0.39-0.319,0.5-1.76,0.97-1.46
			c-0.21,0.34-0.59,1.34-0.32,1.62c0.43-0.14,0.46-1.28,1.13-1.62c-0.38,0.602,0.05,1.44-0.49,2.11c0.52,0,0.36,0.17,0.65,0.64
			c0.19-0.148,0.54-0.949,0.65-0.64C197.38,105,196.36,105.2,196.26,106.24z M0,177.52c0-10.75,0-21.5,0-32.25c2.43,0,4.86,0,7.29,0
			c0.24-0.1-0.47-1.329-0.16-1.13c0.42,0.24,0.24-0.64,0-0.97c0.29,0.33,0.5,0.14,0.65,0.32c-0.26-0.461,0.21-1.37,0.16-1.78
			c0.5-0.15,0.61,0.09,1.46,0.479c-0.32-0.75-0.78-1.109-1.46-1.131c0.56-0.21-0.03-0.979,0-1.619c0.58,0.42,0.36,1.229,0.81,1.46
			c0.43-0.561-0.05-1.221-0.49-2.109c0.3,0.239,0.41,0.68,0.82,0.81c0-0.46-0.42-1.96,0-1.779c0.29,0.439,0.2,0.101,0.16,1.131
			c0.07,0.17,0.35,0.85,0.32,0.159c0.29,0.21-0.2,0.881,0.16,1.301c-0.33-0.051-0.31-0.44-0.64-0.49c0.17,1.79,1.29-0.42,1.62-0.32
			c-0.05-0.56-0.44,0.011-0.49-0.318c0.15-0.53,0.48-0.66,0.32-1.79c0.36,0.35,0.46,0.949,0.81,1.3c0.04-0.28-0.27-0.42,0-0.49
			c0.42-0.58-0.21,1.601,0.81,1.3c0.12-0.22-0.76-0.58-0.32-1.3c0.67,0.351,0.86,1.771,1.46,0.49c0.41,0.29,0.31,1.09,0.81,1.3
			c-0.23-1.43-0.4-1.14-1.14-2.6c0.16-0.15,0.26-0.29,0.33-0.432c0,0.091,0,0.182,0,0.271c0.38,0.16,0.72,0.359,0.97,0.649
			c0.05-0.689-0.74-0.54-0.96-0.949c0.29-0.631-0.19-1.182-0.01-1.642c0.83-0.199,0.59,0.95,0.81,1.78
			c0.48-1.229-0.12-1.54-0.49-2.271c0.53,0.261,0.86,0.42,0.81-0.811c0.22,0.05,0.14,0.41,0.16,0.65
			c0.77-0.142,0.14-1.602,0.49-1.461c0.24,0.681,0.45,1.819,0.65,2.591c0.6-0.44-0.33-1.181,0-1.78c0.24,0.229,0.35,0.521,0.32-0.16
			c0.81,0.08-0.09,0.74,0,1.13c0.83,0.341,0.41-1.42,0.81-0.97c0.65,0.311-0.42,0.83-0.16,2.11c0.44-0.61,0.4-0.131,0.81-0.33
			c0.38,0.08,0.31-1.54,0.49-0.65c1.02-0.43-0.57,1.42,0,2.11c0.49,0.13,0.83-1.04,0.81,0c0.18-0.53-0.02-1.641,0.48-1.78
			c0.63,0.24-0.42,0.851,0.33,1.29c1.06-0.29-0.09,0.71,0.48,1.46c0.86-0.149,0.38-1.33,0.33-1.78c0.43-0.409,0.2,1.2,0.48,1.461
			c0.51-0.239,0.27-1.101,0-1.461c0.22-0.358,0.66,0.421,0.49,0.972c0.27,0.079,0.27-0.881,0-0.812c0.91-0.449,0.99-0.34,1.78-0.16
			c0-2.05,0-4.1,0-6.159c0.17-0.479-0.36-0.279-0.64-0.319c1.58-1.431,4.79-2.87,8.1-2.11c1.31,0.301,1.97,1.74,3.08,1.95
			c-0.07,0.36-0.89-0.03-0.81,0.479c0.17,2.33-0.23,5.54,0,8.271c0.05,0.68-0.34,2.14,0.97,1.78c0.51-1.11-0.1-3.352,0-4.051
			c6.01-1.681,12.38-3.471,18.47-5.189c1.98-0.55,3.9-1.49,5.84-1.29c0,0.99-1.58,1.09-2.27,1.29c-6.48,1.859-13.83,3.83-20.42,5.67
			c0,1.63,0,3.25,0,4.87c5.73,0.37,12.15,0.05,18.15,0.16c0-1.19,0-2.381,0-3.57c1.04-0.359,2.74-0.061,4.05-0.16
			c0.47-0.17-0.15-1.438,0.33-1.62c0.37,0,0.75,0,1.13,0c0,1.62,0,3.24,0,4.86c0.54-0.061,1.06-1.521,2.75-0.97
			c0-0.812,0-1.62,0-2.431c0.92,0,1.84,0,2.76,0c0,0.811,0,1.619,0,2.431c0.43,0,0.86,0,1.3,0c0.53-3.131-0.24-7.521,0.32-10.21
			c0.59-0.15,0.23,0.64,0.32,0.97c1.34-0.49,2.99,0.021,2.92,1.46c-1.06,0.04-1.83-0.22-2.75-0.32c-0.38,2.37-0.06,5.45-0.17,8.102
			c1.03,0,2.06,0,3.08,0c0.79-1.91,0.54-4.86,1.3-6.812c2.6,0.011,5.71-0.319,7.62-0.479c0.26-0.33-0.79-0.721-0.81-1.301
			c0.17,0,1.58,2.069,1.78,0.649c0.28,1.141,1.08-0.22,1.62,1.3c0.29-0.409,0.21-0.18,0.81-0.17c0.24-0.46-0.75-1.08-0.65-1.938
			c0.48,0.739,0.8,0.688,0.65,1.13c0.38,0.479,0.35-0.82,0.32-1.29c0.54,0.05,0.58,0.609,0.98,0.81c0.5-0.358-1.16-1.47-0.33-1.619
			c0.09,0.229,0.25,0.391,0.49,0.479c0.03-0.4-0.37-0.391-0.49-0.65c0.22-0.869,1.25,1.69,1.3,0.98c0.58-0.061-0.06,0.59,0.32,0.97
			c0.1,0.24,0.87-0.2,0.97-0.489c0.21,0.42-0.69,0.75-0.16,1.46c0.23-0.311,0.38-0.699,0.49-1.131c0.28,0.312,0.6,0.58,1.13,0.65
			c0.8-0.181,0.94-1.01,1.46-1.46c0-4.7,0-9.4,0-14.101c-0.33-0.479-1.77,0.149-2.11-0.33c0.62-1.149,2.14-1.59,3.25-2.101
			c2.36-1.109,4.47-2.22,6.96-3.41c2.3-1.09,4.54-2.079,8.43-1.619c0-1.131,0-2.261,0-3.399c1.03,0,2.05,0,3.08,0
			c0.38-0.92,0.06-2.54,0.16-3.73c1.57,0,3.13,0,4.7,0c0.25,1.16-0.54,3.352,0.49,3.73c0.73-0.62,0.12-2.58,0.32-3.73
			c1.57,0,3.13,0,4.7,0c0.36,0.892,0.07,2.421,0.16,3.57c1.19,0.38,3.08,0.05,4.54,0.16c0-9.67,0-19.34,0-29.011
			c0.35-0.3,1.19-0.109,1.78-0.159c0.11-2.11-0.21-4.641,0.16-6.48c0.75,1.47,0.12,4.311,0.33,6.32c6.16,0.38,13.02,0.05,19.45,0.16
			c0.31-0.61,0.06-1.771,0.48-2.271c1.89-0.49,3.21-1.54,6-1.13c0,0.7,0,1.4,0,2.11c-1.13,0.06-2.79-0.41-2.43,1.13
			c0.7,0.37,2.1,0.06,3.08,0.16c0.37,7.779,0.05,16.26,0.16,24.31c0.33,0.37,1.34,0.062,1.94,0.16c0-9.609,0-19.23,0-28.84
			c1.84,0,3.68,0,5.51,0c0-0.92,0-1.84,0-2.76c6.97,0,13.94,0,20.91,0c0,0.869,0,1.729,0,2.59c1.2,0.37,3.06,0.069,4.53,0.17
			c0.43,3.26-0.58,5.79,0,8.58c0.2,0.96,0.99,1.64,1.14,2.76c0.23,1.8-0.29,3.51,0.16,5.51c0.07,0.23,0.14-0.02,0.33,0
			c0.39-0.7-0.28,0.48-0.17,0.97c0.38,0.681,0.74-1.84,0.81-0.479c0.75-0.76-0.17,0.61,0.17,0.811c0.34,0.619,0.1,0.721,0.48,0.641
			c0.54,0.279-0.51-1.391-0.16-1.13c0.2,0.17,0.45,0.159,0.65,0.319c0.26-0.221,0.41-0.551,0.48-0.971
			c0.73,0.391-0.58,1.01-0.64,1.62c0.67,0.63,0.34,0.479,0.16,1.14c0.19-0.239,0.76-0.409,0.32,0c0.49,0.011-0.23-1.56,0.49-2.27
			c0.26,0.46-0.07,0.75,0,1.62c0.64-0.261,0.57,0.319,0.97,0.648c-0.86,0.24-0.86,1.62-0.65,2.102c-0.12-0.71,0.32,0.13,0.33-0.32
			c-0.42-0.479,0.33-1.17,0.32-1.78c0.08,0.07,0.18,0.131,0.32,0.16c0.36-0.688-0.17,1.03,0.33,1.13c0.4-1.39,0.36,0.86,0.81-0.648
			c0.76,0.02-0.18,0.239,0,0.648c0.11,0.352,0.96,0.591,0.48,1.46c0.22-0.159,0.33-0.43,0.49-0.648c0.42,0.33-0.41,0.77-0.65,0.979
			c0.05,0.57,0.44-0.58,0.49,0c0.01,1.142-0.97,1.301-1.14,2.261c0.75,0.359,0.7,0.12,1.63,0.649c0.16-0.069,0.26-0.22,0.33-0.45
			c0.09,0.28,0.45,0.28,0.31,0.78c0.99,0.17,1.05-0.58,0.98-1.46c0.02,1.16,0.72,1.32,0.16,1.62c5.2,1.979,13.69,2.83,20.25,1.46
			c0-3.141,0-6.271,0-9.4c5.84,0,11.67,0,17.51,0c0.37-2.22,0.05-5.129,0.16-7.62c-2.17-0.62-4.59,0.67-6.81,0
			c0-1.399,0-2.81,0-4.21c2.25,0.74,4.89-0.359,7.46-0.33c0,4.061,0,8.11,0,12.16c1.4,0,2.81,0,4.21,0c0,0.48,0,0.971,0,1.46
			c0.39,0.312,1.3,0.102,1.94,0.16c0-19.34,0-38.68,0-58.02c2.49,0,4.97,0,7.46,0c0.64,0.26,0.06-0.7,0.49-0.641
			c1.46-0.25,2.63,0.34,3.88,0c1.55-0.43,3.1-2.939,4.22-4.06c1.56-1.561,2.94-2.83,4.21-4.05c0-0.431,0-0.86,0-1.29
			c0.22,0,0.43,0,0.65,0c-0.38-8.971,0.67-16.511,0.49-25.28c0.05,0,0.1,0,0.16,0c0.22,3.51-0.31,6.8,0,10.04
			c0.09,1,0.54,2,0.65,3.08c0.27,2.859-0.46,6.41,0.32,8.59c-0.4,1.38-0.58,3.02-0.16,4.21c0.44,1.28,3.31,3.48,4.37,4.54
			c1.68,1.68,3.16,3.14,4.54,4.22c0.76,0,1.51,0,2.27,0c0.64-0.26,0.06,0.7,0.49,0.641c2.7,0,5.4,0,8.1,0c0,27.55,0,55.1,0,82.648
			c0.32,0,0.65,0,0.97,0c0.38-30.568,0.05-61.85,0.16-92.688c1.14,0,2.271,0,3.409,0c0.369-0.33,0.051-1.351,0.16-1.95
			c2.641,0,5.289,0,7.939,0c0,0.649,0,1.3,0,1.95c11.34,0,22.689,0,34.03,0c0.38,23.6,0.05,47.909,0.159,71.79
			c1.029,0.369,2.761,0.05,4.051,0.159c0-6.21,0-12.43,0-18.64c1.51,0,3.029,0,4.54,0c0.34-0.63,0.079-1.86,0.159-2.75
			c3.08,0,6.16,0,9.24,0c0,0.92,0,1.83,0,2.75c0.319,0,0.649,0,0.971,0c0.738-1.58,0.119-4.52,0.328-6.64
			c3.24,0.1,6.91-0.221,9.881,0.16c-0.391,3.949,2.74,4.39,4.211,6.479c5.35,0,10.699,0,16.05,0c0,19.771,0,39.54,0,59.311
			c0.38,0.38,1.45,0.06,2.101,0.17c0-23.99,0-47.971,0-71.96c0.521-0.101,1.119,0.14,1.619,0c0.21-0.051,0.11-0.391,0.33-0.48
			c0.16-0.07,0.51,0.1,0.65,0c0.988-0.72,1.568-2.67,2.43-3.729c2.68-3.311,5.99-5.511,11.99-6c0.479-4.051,0.72-8.351,1.13-12.471
			c0.64,3.95,0.938,8.25,1.46,12.311c6.46,1.16,10.96,4.279,13.29,9.56c1.04-0.01,0.88,1.17,2.27,0.811c0,14.699,0,29.39,0,44.079
			c5.4,0,9.65-1.149,12.96-3.239c0-9.561,0-19.12,0-28.681c2.222,0,4.432,0,6.65,0c0.37-0.869,0.05-2.43,0.16-3.569
			c1.95,0,3.89,0,5.83,0c0,1.14,0,2.27,0,3.41c14.1,0.369,28.898,0.05,43.27,0.159c0.53,11.351,0.271,23.5,0.33,35.331
			c0.22,0.42,1.37-0.08,1.62,0.319c0,7.99,0,15.99,0,23.98c1.62,0,3.24,0,4.86,0c0.33-0.53,0.09-1.642,0.158-2.432
			c1.08,0,2.16,0,3.24,0c-0.01-2.13,0.66-4.188,2.59-4.21c-0.25-2.68,0.46-5.898,0.33-8.909c-0.068-1.601-1.028-3.08,0-4.54
			c-0.188-0.511-0.76-0.649-0.81-1.301c-0.141-1.148,0.95-1.6,0.97-2.59c0.01-0.359-0.56-0.7-0.648-1.3
			c-0.07-0.46,0.238-0.92,0.158-1.29c-0.188-0.97-1.1-1.86-1.13-2.601c-0.028-0.84,0.74-1.54,0.812-2.431
			c0.04-0.54-0.392-1.37-0.49-2.1c-0.23-1.75-0.09-3.95-0.48-5.19c-0.229-0.71-0.81-1.029-0.648-1.779
			c1.12-0.34,0.53-2.391,2.27-2.109c-0.22,1.26,1.302,3.06-0.33,3.729c0.7,1.79,0.58,4.391,1.142,6.319c0.43,0,0.858,0,1.3,0
			c0.52-0.68-0.69-0.75-0.65-1.46c0.722,0.09,0.762,0.851,1.62,0.811c0.562-0.08,0.24-1.061,0.32-1.619
			c0.58,0.18,0.34,1.17,0.65,1.619c0.89,0.021,1.078-0.649,1.618-0.971c0.44,0.5-0.778,0.721-0.648,1.46
			c0.818,0.11,1.13-0.279,1.95-0.17c-0.342,0.431-1.052,0.471-1.46,0.812c0.06,0.648,1.479-0.07,1.46,0.648
			c-0.552,0.051-1.32-0.12-1.62,0.16c-0.34,3.37,1.71,4.59,2.75,6.97c0.63-0.068,0.608-0.789,1.14-0.97
			c0.64,0.32,1.29,0.65,1.94,0.97c-0.48,0.86-0.36,1.352-0.49,2.432c-1.65,0.619-1.12,3.42-2.75,4.05
			c0.84,4.38-0.78,7.26-0.33,11.67c0.51,1.16,1.65,2.399,1.3,3.89c2.65,0,5.3,0,7.94,0c0.56,0.142,0.318,1.08,0.97,1.142
			c0.87,0,1.729,0,2.6,0c0,0.858,0,1.72,0,2.59c0.94,0.08,2.23-0.181,2.91,0.16c0,0.81,0,1.619,0,2.43
			c0.92,0.34,1.5,0.01,2.602,0.16c0,0.71,0,1.41,0,2.109c0.89-0.051,0.568,0.311,1.62,0.33c0.27-0.08-0.262-0.7-0.49-0.811
			c0.42-0.41,0.45,0.939,1.14,0.811c0.43-0.721-0.28-0.5,0-1.141c0.48,0.229,1.15,2.09,1.45,0.97c-0.1,0.511,0.33,0.87,0.15,1.062
			c0.68-0.33,0.77-1.08,0.988-2.521c0.48,0.32-0.27,0.86,0.32,0.98c0.51-0.46,0.49-1.46,0.65-2.271c0.38-0.318,0.028,0.98,0,1.29
			c0.35-0.569,0.92-0.909,1.14-1.619c0.43,0.449-0.51,0.891-0.65,1.3c0.37-0.109,0.562-0.409,0.812-0.649
			c0.318,0.439-0.45,1.17-0.65,1.62c0.25,0.14,1.04-0.57,0.97-1.29c0.5,0.31-0.238,1.859,0.49,1.939
			c-0.229-0.62,0.07-0.181,0.48-1.131c0.45,0.61-0.4,1.32-0.642,1.78c0.972,0.51,1.472-0.33,1.94-0.49
			c-0.062,0.221-0.29,0.261-0.32,0.49c0.51,0.26,0.55-1,0.642-0.16c0.358-0.02,0.068-0.688,0.17-0.97
			c0.22,0.04,0.13,0.399,0.159,0.64c0.721,0.062,1.409-0.68,1.779-1.46c0.32,0.78-2,1.66-2.27,2.92c0.659,0.062,0.229,0.11,0,0.812
			c0.42-0.08,0.979,0.739,1.62-0.32c0.188,0.86-1.16,0.88-1.78,0.811c0.31,0.62,2.55,0.54,2.27-0.489
			c0.381,0.05-0.02,0.609-0.159,0.649c8.689,0.38,18.091,0.05,27.061,0.159c0,10.21,0,20.42,0,30.63
			C374.66,177.52,187.34,177.52,0,177.52z M526.67,144.79c-0.2-0.5-0.55-0.86-0.97-1.141C525.77,144.28,526.22,144.54,526.67,144.79
			z M484.7,137.49c0-4.642,0-9.29,0-13.932c-0.03-0.13-0.142-0.188-0.32-0.17C484.59,127.99,483.95,133.44,484.7,137.49z
			 M428.14,131.01c-0.01-0.74,0.41-2.069-0.479-2.27c-0.11,0-0.22,0-0.33,0c0,0.159,0,0.329,0,0.489c0.05,2.311-0.062,5.25,0,7.449
			c0.02,0.62-0.4,1.931,0.49,2.11C428.38,136.9,428.18,133.31,428.14,131.01z M426.36,131.01c-0.012-0.74,0.398-2.069-0.48-2.27
			c-0.11,0-0.22,0-0.33,0c0,0.159,0,0.329,0,0.489c0.05,2.311-0.06,5.25,0,7.449c0.021,0.62-0.41,1.931,0.49,2.11
			C426.59,136.9,426.4,133.31,426.36,131.01z M357.65,78.34c0.81-0.1,2.05,0.22,2.59-0.16c-1.01-0.77-1.74-1.82-2.75-2.59
			C357.37,76.68,357.75,77.27,357.65,78.34z M261.23,34.27c2.7,0,5.4,0,8.1,0c-2.01-2.319-5.03-5.02-7.78-7.14c-0.1,0-0.21,0-0.32,0
			C261.23,29.51,261.23,31.89,261.23,34.27z M259.93,34.27c-0.1-2.33,0.22-5.08-0.16-7.14c-1.53,1.77-3.71,3.72-5.35,5.35
			c-0.53,0.54-1.38,1.21-1.29,1.79C255.4,34.27,257.66,34.27,259.93,34.27z M196.73,107.51c-0.7-0.05-1.71,0.45-1.29,0.98
			c0.11-0.461,0.53-0.921,0.81-0.33C196.29,107.83,196.68,107.84,196.73,107.51z M195.6,105.73c0.12,0.439-0.32,0.329-0.33,0.649
			c0.64,0.42,0.55-0.729,0.65-0.97c-0.39,0.09-0.83,0.14-0.81,0.64C195.43,106.1,195.43,105.84,195.6,105.73z M195.44,104.76
			c0.09,0,0.18-0.13,0-0.16c-0.03,0.19-0.26,0.17-0.49,0.16c0.17,0.41-0.7,0.57-0.16,0.811c0.08-0.289,0.17,0.069,0.32,0.16
			c0.15-0.479,0.25-0.591,0.49-0.649C195.47,105.05,195.41,104.95,195.44,104.76z M193.17,100.22c0.67,0.17,0.47-1.069,0.32-0.81
			c-0.02,0.199-0.05,0.38-0.32,0.319C193.17,99.9,193.17,100.06,193.17,100.22z M192.68,100.06c0.02-0.5-0.07-0.898-0.32-1.14
			c-0.04,0.21-0.47,0.8-0.17,0.811c0.04-0.171,0.27-0.381,0.33-0.16c-0.16,0.221-0.27,0.489-0.49,0.649
			c-0.04-0.25-0.26-0.02-0.32,0.16C192.27,100.51,192.39,100.2,192.68,100.06z M191.87,99.73c0-0.381,0.28-0.471,0.16-0.971
			c-0.5-0.41-0.75-0.24-1.29,0c-0.09-0.229,0.63-0.39,0.16-0.479c-0.37,0.461-0.28,0.66-0.33,1.62c0.31,0.13,0.66,0.21,0.81,0.479
			C191.4,99.55,191.27,99.3,191.87,99.73z M190.9,97.95c0.12-0.53,1.13-1.021,0.65-1.62c-0.15,0.609-1.37,1-1.14,1.46
			C190.5,97.32,190.67,98.04,190.9,97.95z M189.93,100.06c0.14-0.09,0.51-0.869,0.16-0.489c-0.11,0.489-0.35-0.149-0.65,0
			c-0.66,0.689,0.08,2.021-0.16,0.489c0.32,0.051,0.32-0.22,0.48-0.329C189.8,99.86,189.77,100.05,189.93,100.06z M188.63,100.71
			c-0.1-0.29,0.47-0.681,0-0.811c-0.04,0.119,0,0.319-0.16,0.319c-0.01-0.1-0.03-0.189-0.16-0.16c0.05,0.392-0.71,0.78-0.17,1.131
			C188.27,100.74,188.31,100.11,188.63,100.71z M187.17,93.74c0.02,0.409,0.03,0.829,0.49,0.81c-0.12-0.63,0.08-1.46-0.16-1.3
			C187.5,93.53,187.37,93.67,187.17,93.74z M186.36,94.71c0.55-0.101,0.84-1.311,0.81-1.46c-0.09,0.34-0.25,0.35-0.48,0.16
			c-0.18,1-0.74,1.54-0.33,2.438c0.05-1.108,0.17,0.271,0.49,0.32c-0.07-0.391,0.29-0.351,0.16-0.811
			C186.67,95.26,186.46,95.05,186.36,94.71z M146.82,77.37c0.25,0,0.36-1.2-0.16-0.971C146.53,76.52,146.22,77.52,146.82,77.37z
			 M17.18,136.52c-0.35,0.37-0.06,1.012,0.48,0.972C17.45,137.22,17.72,136.46,17.18,136.52z M15.23,143.17
			c0.42-0.311,0.41-1.01-0.16-1.141c-0.12,0.421-0.58,0.5-0.65,0.971c0.31,0.04,0.36-0.181,0.65-0.16
			C15.11,142.97,15.08,143.16,15.23,143.17z M13.45,139.92c-0.07-0.3,0.22-0.97-0.32-0.811C13.03,139.5,12.88,139.87,13.45,139.92z
			 M7.94,144.62c0.05-0.42-0.06-0.69-0.49-0.641C7.41,144.4,7.51,144.67,7.94,144.62z"/>
		<path fill="#EAEAEA" d="M259.77,27.13c0.38,2.06,0.06,4.81,0.16,7.14c-2.27,0-4.53,0-6.8,0c-0.09-0.58,0.76-1.25,1.29-1.79
			C256.06,30.85,258.24,28.9,259.77,27.13z"/>
		<path fill="#EAEAEA" d="M233.68,52.25c-0.53,0.85-1.69,0.35-2.59,0.17c-0.2,0.28-0.32,0.649-0.65,0.81
			c-0.82,0.12-1.06-0.35-1.3-0.81c0.14-0.24,0.25-0.521,0.65-0.49c-0.47-0.39-0.97-0.76-1.13-1.46c0.61-0.59,1.5-0.01,1.94,0.49
			c0.33-0.05,0.32-0.44,0.49-0.65C231.11,51.45,232.9,51.42,233.68,52.25z"/>
		<path fill="#EAEAEA" d="M227.52,59.38c-0.59-0.09-1.39,0.43-1.62,0.17c-0.24,0.07,0.07,0.2,0,0.479
			c-0.4,0.24-0.63,0.391-1.13,0.16c0.33-1-0.29-0.84-0.81-1.29c0.24-0.87,1.65,0.351,1.62-0.649
			C225.72,59.14,227.47,58.41,227.52,59.38z"/>
		<path fill="#EAEAEA" d="M215.04,101.03c0,0.87,0,1.729,0,2.591c-4.26,0.38-9.23,0.06-13.77,0.17c-0.38,0.7-0.06,2.1-0.16,3.08
			c-1.29,0.199-2.82-0.33-3.24,0c-0.03-0.521,0.43-0.551,0.32-1.141c-0.16,0.909-0.95,0.199-0.97,1.141
			c-0.22-0.062-0.14-0.41-0.16-0.65c-0.24,0.521-0.34,1.17-0.98,1.29c-0.46-0.54,0.38-0.689,0.49-1.46
			c-0.21-0.04-0.28,0.061-0.31,0.19c0.1-1.04,1.12-1.24,1.93-2.45c-0.11-0.311-0.46,0.489-0.65,0.64c-0.29-0.47-0.13-0.64-0.65-0.64
			c0.54-0.67,0.11-1.511,0.49-2.11c-0.67,0.34-0.7,1.48-1.13,1.62c-0.27-0.28,0.11-1.28,0.32-1.62c-0.47-0.3-0.58,1.141-0.97,1.46
			c-0.58-0.6,0.13-1.37,0.16-2.43c-0.51,0.09-0.25,0.939-0.49,1.29c-0.5-0.82-0.28,1-0.64,1.3c-0.4-0.59-0.22-1.04,0-1.62
			c-0.05-0.148-0.44-0.148-0.49,0c-0.24-0.14-0.23-0.52-0.32-0.81c0.15,0,0.12,0.199,0.16,0.319c0.64-0.061,0.93-0.471,1.13-0.971
			c-0.4,0.49-0.57,0.221-0.81,0.811c-0.45-0.189-0.13-1.159-0.48-1.46c0.14-0.239,0.24,0.051,0.64-0.159
			c0.27,0.319-0.01,0.21,0,0.648c0.15-0.119,0.25-0.3,0.33-0.489C200.35,101.45,208.24,102.25,215.04,101.03z"/>
		<path fill="#EAEAEA" d="M195.44,108.49c-0.42-0.53,0.59-1.03,1.29-0.98c-0.05,0.33-0.44,0.32-0.48,0.65
			C195.97,107.57,195.55,108.03,195.44,108.49z"/>
		<path fill="#EAEAEA" d="M195.27,106.38c0.01-0.32,0.45-0.21,0.33-0.649c-0.17,0.109-0.17,0.369-0.49,0.319
			c-0.02-0.5,0.42-0.55,0.81-0.64C195.82,105.65,195.91,106.8,195.27,106.38z"/>
		<path fill="#EAEAEA" d="M195.44,104.6c0.18,0.03,0.09,0.16,0,0.16c-0.03,0.19,0.03,0.29,0.16,0.32
			c-0.24,0.06-0.34,0.17-0.49,0.649c-0.15-0.091-0.24-0.45-0.32-0.16c-0.54-0.239,0.33-0.399,0.16-0.811
			C195.18,104.77,195.41,104.79,195.44,104.6z"/>
		<path fill="#EAEAEA" d="M193.49,97.3c0.26,0.41,0.54,1.78-0.15,1C193.42,98.05,193.46,97.71,193.49,97.3z"/>
		<path fill="#EAEAEA" d="M193.49,99.41c0.15-0.261,0.35,0.979-0.32,0.81c0-0.16,0-0.319,0-0.489
			C193.44,99.79,193.47,99.61,193.49,99.41z"/>
		<path fill="#EAEAEA" d="M192.36,98.92c0.25,0.24,0.34,0.64,0.32,1.14c-0.29,0.142-0.41,0.45-0.97,0.32
			c0.06-0.18,0.28-0.41,0.32-0.16c0.22-0.16,0.33-0.43,0.49-0.649c-0.06-0.221-0.29-0.011-0.33,0.16
			C191.89,99.72,192.32,99.13,192.36,98.92z"/>
		<path fill="#EAEAEA" d="M192.03,98.76c0.12,0.5-0.16,0.59-0.16,0.971c-0.6-0.431-0.47-0.181-0.49,0.649
			c-0.15-0.271-0.5-0.351-0.81-0.479c0.05-0.96-0.04-1.159,0.33-1.619c0.47,0.09-0.25,0.25-0.16,0.479
			C191.28,98.52,191.53,98.35,192.03,98.76z"/>
		<path fill="#EAEAEA" d="M191.55,96.33c0.48,0.6-0.53,1.09-0.65,1.62c-0.23,0.09-0.4-0.631-0.49-0.16
			C190.18,97.33,191.4,96.94,191.55,96.33z"/>
		<path fill="#EAEAEA" d="M190.25,92.77c0.01,0.61-0.74,1.301-0.32,1.78c-0.01,0.45-0.45-0.39-0.33,0.32
			C189.39,94.39,189.39,93.01,190.25,92.77z"/>
		<path fill="#EAEAEA" d="M190.09,99.57c0.35-0.38-0.02,0.399-0.16,0.489c-0.16-0.01-0.13-0.199-0.17-0.329
			c-0.16,0.109-0.16,0.38-0.48,0.329c0.24,1.53-0.5,0.2,0.16-0.489C189.74,99.42,189.98,100.06,190.09,99.57z"/>
		<path fill="#EAEAEA" d="M188.63,99.9c0.47,0.13-0.1,0.521,0,0.811c-0.32-0.601-0.36,0.03-0.49,0.479
			c-0.54-0.351,0.22-0.739,0.17-1.131c0.13-0.029,0.15,0.062,0.16,0.16C188.63,100.22,188.59,100.02,188.63,99.9z"/>
		<path fill="#EAEAEA" d="M187.66,94.55c-0.46,0.021-0.47-0.399-0.49-0.81c0.2-0.07,0.33-0.211,0.33-0.49
			C187.74,93.09,187.54,93.92,187.66,94.55z"/>
		<path fill="#EAEAEA" d="M187.17,93.25c0.03,0.149-0.26,1.359-0.81,1.46c0.1,0.34,0.31,0.55,0.65,0.649
			c0.13,0.46-0.23,0.42-0.16,0.811c-0.32-0.05-0.44-1.43-0.49-0.32c-0.41-0.898,0.15-1.438,0.33-2.438
			C186.92,93.6,187.08,93.59,187.17,93.25z"/>
		<path fill="#EAEAEA" d="M146.66,76.4c0.52-0.229,0.41,0.971,0.16,0.971C146.22,77.52,146.53,76.52,146.66,76.4z"/>
		<path fill="#EAEAEA" d="M84.11,130.69c0,0.141,0.26,0.359,0.16,0.641C83.6,130.52,84.05,128.65,84.11,130.69z"/>
		<path fill="#EAEAEA" d="M17.66,137.49c-0.54,0.039-0.83-0.602-0.48-0.972C17.72,136.46,17.45,137.22,17.66,137.49z"/>
		<path fill="#EAEAEA" d="M15.07,142.03c0.57,0.131,0.58,0.83,0.16,1.141c-0.15-0.01-0.12-0.2-0.16-0.33
			c-0.29-0.021-0.34,0.2-0.65,0.16C14.49,142.53,14.95,142.45,15.07,142.03z"/>
		<path fill="#EAEAEA" d="M13.3,137.03c0.22,0.41,1.01,0.261,0.96,0.95c-0.25-0.29-0.59-0.489-0.97-0.649c0-0.09,0-0.181,0-0.271
			C13.29,137.05,13.3,137.04,13.3,137.03z"/>
		<path fill="#EAEAEA" d="M13.13,139.11c0.54-0.159,0.25,0.511,0.32,0.811C12.88,139.87,13.03,139.5,13.13,139.11z"/>
		<path fill="#EAEAEA" d="M13.29,137.01c0,0.01,0.01,0.021,0.01,0.021c0,0.01-0.01,0.02-0.01,0.028
			C13.29,137.04,13.29,137.03,13.29,137.01z"/>
		<path fill="#EAEAEA" d="M7.45,143.98c0.43-0.051,0.54,0.221,0.49,0.641C7.51,144.67,7.41,144.4,7.45,143.98z"/>
	</g>
</g>
</svg>
