<?xml version="1.0" encoding="utf-8"?>
<!-- Generator: Adobe Illustrator 15.0.0, SVG Export Plug-In . SVG Version: 6.00 Build 0)  -->
<!DOCTYPE svg PUBLIC "-//W3C//DTD SVG 1.1//EN" "http://www.w3.org/Graphics/SVG/1.1/DTD/svg11.dtd">
<svg version="1.1" xmlns="http://www.w3.org/2000/svg" xmlns:xlink="http://www.w3.org/1999/xlink" x="0px" y="0px" width="210px"
	 height="70px" viewBox="0 0 210 70" enable-background="new 0 0 210 70" xml:space="preserve">

<g id="Layer_8">
	<circle fill="#222222" cx="35" cy="34.966" r="35"/>
	<rect x="35.899" y="-7.367" fill="#222222" width="177.76" height="80.435"/>
	<g>
		<path fill="#FFFFFF" d="M47.806,41h-9.551V23.867h9.551v1.77h-7.559v5.52h7.102v1.758h-7.102v6.305h7.559V41z"/>
		<path fill="#FFFFFF" d="M57.286,41.234c-0.836,0-1.6-0.154-2.291-0.463s-1.271-0.783-1.74-1.424h-0.141
			c0.094,0.75,0.141,1.461,0.141,2.133v5.285H51.31V28.156h1.582l0.27,1.758h0.094c0.5-0.703,1.082-1.211,1.746-1.523
			s1.426-0.469,2.285-0.469c1.703,0,3.018,0.582,3.943,1.746s1.389,2.797,1.389,4.898c0,2.109-0.471,3.748-1.412,4.916
			S58.958,41.234,57.286,41.234z M57.005,29.574c-1.312,0-2.262,0.363-2.848,1.09s-0.887,1.883-0.902,3.469v0.434
			c0,1.805,0.301,3.096,0.902,3.873s1.566,1.166,2.895,1.166c1.109,0,1.979-0.449,2.607-1.348s0.943-2.137,0.943-3.715
			c0-1.602-0.314-2.83-0.943-3.686S58.146,29.574,57.005,29.574z"/>
		<path fill="#FFFFFF" d="M74.302,37.496c0,1.195-0.445,2.117-1.336,2.766s-2.141,0.973-3.75,0.973c-1.703,0-3.031-0.27-3.984-0.809
			v-1.805c0.617,0.312,1.279,0.559,1.986,0.738s1.389,0.27,2.045,0.27c1.016,0,1.797-0.162,2.344-0.486s0.82-0.818,0.82-1.482
			c0-0.5-0.217-0.928-0.65-1.283s-1.279-0.775-2.537-1.26c-1.195-0.445-2.045-0.834-2.549-1.166s-0.879-0.709-1.125-1.131
			s-0.369-0.926-0.369-1.512c0-1.047,0.426-1.873,1.277-2.479s2.02-0.908,3.504-0.908c1.383,0,2.734,0.281,4.055,0.844l-0.691,1.582
			c-1.289-0.531-2.457-0.797-3.504-0.797c-0.922,0-1.617,0.145-2.086,0.434s-0.703,0.688-0.703,1.195
			c0,0.344,0.088,0.637,0.264,0.879s0.459,0.473,0.85,0.691s1.141,0.535,2.25,0.949c1.523,0.555,2.553,1.113,3.088,1.676
			S74.302,36.645,74.302,37.496z"/>
		<path fill="#FFFFFF" d="M88.552,34.566c0,2.094-0.527,3.729-1.582,4.904s-2.512,1.764-4.371,1.764
			c-1.148,0-2.168-0.27-3.059-0.809s-1.578-1.312-2.062-2.32s-0.727-2.188-0.727-3.539c0-2.094,0.523-3.725,1.57-4.893
			s2.5-1.752,4.359-1.752c1.797,0,3.225,0.598,4.283,1.793S88.552,32.527,88.552,34.566z M78.767,34.566
			c0,1.641,0.328,2.891,0.984,3.75s1.621,1.289,2.895,1.289s2.24-0.428,2.9-1.283s0.99-2.107,0.99-3.756
			c0-1.633-0.33-2.873-0.99-3.721s-1.635-1.271-2.924-1.271c-1.273,0-2.234,0.418-2.883,1.254S78.767,32.91,78.767,34.566z"/>
		<path fill="#FFFFFF" d="M100.751,41v-8.309c0-1.047-0.238-1.828-0.715-2.344s-1.223-0.773-2.238-0.773
			c-1.344,0-2.328,0.363-2.953,1.09s-0.938,1.926-0.938,3.598V41h-1.945V28.156h1.582l0.316,1.758h0.094
			c0.398-0.633,0.957-1.123,1.676-1.471s1.52-0.521,2.402-0.521c1.547,0,2.711,0.373,3.492,1.119s1.172,1.939,1.172,3.58V41H100.751
			z"/>
		<path fill="#FFFFFF" d="M124.083,28.859c0,1.734-0.592,3.068-1.775,4.002s-2.877,1.4-5.08,1.4h-2.016V41h-1.992V23.867h4.441
			C121.942,23.867,124.083,25.531,124.083,28.859z M115.212,32.551h1.793c1.766,0,3.043-0.285,3.832-0.855s1.184-1.484,1.184-2.742
			c0-1.133-0.371-1.977-1.113-2.531s-1.898-0.832-3.469-0.832h-2.227V32.551z"/>
		<path fill="#FFFFFF" d="M133.235,27.922c0.57,0,1.082,0.047,1.535,0.141l-0.27,1.805c-0.531-0.117-1-0.176-1.406-0.176
			c-1.039,0-1.928,0.422-2.666,1.266s-1.107,1.895-1.107,3.152V41h-1.945V28.156h1.605l0.223,2.379h0.094
			c0.477-0.836,1.051-1.48,1.723-1.934S132.431,27.922,133.235,27.922z"/>
		<path fill="#FFFFFF" d="M137.009,24.676c0-0.445,0.109-0.771,0.328-0.979s0.492-0.311,0.82-0.311c0.312,0,0.582,0.105,0.809,0.316
			s0.34,0.535,0.34,0.973s-0.113,0.764-0.34,0.979s-0.496,0.322-0.809,0.322c-0.328,0-0.602-0.107-0.82-0.322
			S137.009,25.113,137.009,24.676z M139.118,41h-1.945V28.156h1.945V41z"/>
		<path fill="#FFFFFF" d="M152.032,41v-8.309c0-1.047-0.238-1.828-0.715-2.344s-1.223-0.773-2.238-0.773
			c-1.344,0-2.328,0.363-2.953,1.09s-0.938,1.926-0.938,3.598V41h-1.945V28.156h1.582l0.316,1.758h0.094
			c0.398-0.633,0.957-1.123,1.676-1.471s1.52-0.521,2.402-0.521c1.547,0,2.711,0.373,3.492,1.119s1.172,1.939,1.172,3.58V41H152.032
			z"/>
		<path fill="#FFFFFF" d="M162.122,39.629c0.344,0,0.676-0.025,0.996-0.076s0.574-0.104,0.762-0.158v1.488
			c-0.211,0.102-0.521,0.186-0.932,0.252s-0.779,0.1-1.107,0.1c-2.484,0-3.727-1.309-3.727-3.926v-7.641h-1.84V28.73l1.84-0.809
			l0.82-2.742h1.125v2.977h3.727v1.512h-3.727v7.559c0,0.773,0.184,1.367,0.551,1.781S161.481,39.629,162.122,39.629z"/>
		<path fill="#FFFFFF" d="M171.872,41.234c-1.898,0-3.396-0.578-4.494-1.734s-1.646-2.762-1.646-4.816
			c0-2.07,0.51-3.715,1.529-4.934s2.389-1.828,4.107-1.828c1.609,0,2.883,0.529,3.82,1.588s1.406,2.455,1.406,4.189v1.23h-8.848
			c0.039,1.508,0.42,2.652,1.143,3.434s1.74,1.172,3.053,1.172c1.383,0,2.75-0.289,4.102-0.867v1.734
			c-0.688,0.297-1.338,0.51-1.951,0.639S172.739,41.234,171.872,41.234z M171.345,29.551c-1.031,0-1.854,0.336-2.467,1.008
			s-0.975,1.602-1.084,2.789h6.715c0-1.227-0.273-2.166-0.82-2.818S172.36,29.551,171.345,29.551z"/>
		<path fill="#FFFFFF" d="M185.771,27.922c0.57,0,1.082,0.047,1.535,0.141l-0.27,1.805c-0.531-0.117-1-0.176-1.406-0.176
			c-1.039,0-1.928,0.422-2.666,1.266s-1.107,1.895-1.107,3.152V41h-1.945V28.156h1.605l0.223,2.379h0.094
			c0.477-0.836,1.051-1.48,1.723-1.934S184.966,27.922,185.771,27.922z"/>
	</g>
</g>

</svg>
