<?xml version="1.0" encoding="utf-8"?>
<!-- Generator: Adobe Illustrator 15.0.0, SVG Export Plug-In . SVG Version: 6.00 Build 0)  -->
<!DOCTYPE svg PUBLIC "-//W3C//DTD SVG 1.1//EN" "http://www.w3.org/Graphics/SVG/1.1/DTD/svg11.dtd">
<svg version="1.1" xmlns="http://www.w3.org/2000/svg" xmlns:xlink="http://www.w3.org/1999/xlink" x="0px" y="0px" width="210px"
	 height="70px" viewBox="0 0 210 70" enable-background="new 0 0 210 70" xml:space="preserve">
<g id="Layer_1" display="none">
	<circle display="inline" fill="#222222" cx="175" cy="35.001" r="35"/>
	<rect x="-3.659" y="-3.1" display="inline" fill="#222222" width="177.759" height="80.434"/>
</g>
<g id="Layer_2">
	<circle fill="#222222" cx="175" cy="34.884" r="35"/>
	<rect x="-3.659" y="-3.217" fill="#222222" width="177.759" height="80.434"/>
	<g>
		<path fill="#FFFFFF" d="M74.184,31.334h-3.27v11.332h-1.945V31.334h-2.297v-0.879l2.297-0.703v-0.715
			c0-3.156,1.379-4.734,4.137-4.734c0.68,0,1.477,0.137,2.391,0.41l-0.504,1.559c-0.75-0.242-1.391-0.363-1.922-0.363
			c-0.734,0-1.277,0.244-1.629,0.732s-0.527,1.271-0.527,2.35v0.832h3.27V31.334z"/>
		<path fill="#FFFFFF" d="M81.953,42.9c-1.898,0-3.396-0.578-4.494-1.734s-1.646-2.762-1.646-4.816c0-2.07,0.51-3.715,1.529-4.934
			s2.389-1.828,4.107-1.828c1.609,0,2.883,0.529,3.82,1.588s1.406,2.455,1.406,4.189v1.23h-8.848
			c0.039,1.508,0.42,2.652,1.143,3.434s1.74,1.172,3.053,1.172c1.383,0,2.75-0.289,4.102-0.867v1.734
			c-0.688,0.297-1.338,0.51-1.951,0.639S82.82,42.9,81.953,42.9z M81.426,31.217c-1.031,0-1.854,0.336-2.467,1.008
			s-0.975,1.602-1.084,2.789h6.715c0-1.227-0.273-2.166-0.82-2.818S82.441,31.217,81.426,31.217z"/>
		<path fill="#FFFFFF" d="M97.891,42.666l-0.387-1.828H97.41c-0.641,0.805-1.279,1.35-1.916,1.635S94.062,42.9,93.109,42.9
			c-1.273,0-2.271-0.328-2.994-0.984s-1.084-1.59-1.084-2.801c0-2.594,2.074-3.953,6.223-4.078l2.18-0.07V34.17
			c0-1.008-0.217-1.752-0.65-2.232s-1.127-0.721-2.08-0.721c-1.07,0-2.281,0.328-3.633,0.984l-0.598-1.488
			c0.633-0.344,1.326-0.613,2.08-0.809s1.51-0.293,2.268-0.293c1.531,0,2.666,0.34,3.404,1.02s1.107,1.77,1.107,3.27v8.766H97.891z
			 M93.496,41.295c1.211,0,2.162-0.332,2.854-0.996s1.037-1.594,1.037-2.789v-1.16l-1.945,0.082
			c-1.547,0.055-2.662,0.295-3.346,0.721s-1.025,1.088-1.025,1.986c0,0.703,0.213,1.238,0.639,1.605S92.73,41.295,93.496,41.295z"/>
		<path fill="#FFFFFF" d="M107.488,41.295c0.344,0,0.676-0.025,0.996-0.076s0.574-0.104,0.762-0.158v1.488
			c-0.211,0.102-0.521,0.186-0.932,0.252s-0.779,0.1-1.107,0.1c-2.484,0-3.727-1.309-3.727-3.926v-7.641h-1.84v-0.938l1.84-0.809
			l0.82-2.742h1.125v2.977h3.727v1.512h-3.727v7.559c0,0.773,0.184,1.367,0.551,1.781S106.848,41.295,107.488,41.295z"/>
		<path fill="#FFFFFF" d="M113.641,29.822v8.332c0,1.047,0.238,1.828,0.715,2.344s1.223,0.773,2.238,0.773
			c1.344,0,2.326-0.367,2.947-1.102s0.932-1.934,0.932-3.598v-6.75h1.945v12.844h-1.605l-0.281-1.723h-0.105
			c-0.398,0.633-0.951,1.117-1.658,1.453s-1.514,0.504-2.42,0.504c-1.562,0-2.732-0.371-3.51-1.113s-1.166-1.93-1.166-3.562v-8.402
			H113.641z"/>
		<path fill="#FFFFFF" d="M132.402,29.588c0.57,0,1.082,0.047,1.535,0.141l-0.27,1.805c-0.531-0.117-1-0.176-1.406-0.176
			c-1.039,0-1.928,0.422-2.666,1.266s-1.107,1.895-1.107,3.152v6.891h-1.945V29.822h1.605l0.223,2.379h0.094
			c0.477-0.836,1.051-1.48,1.723-1.934S131.598,29.588,132.402,29.588z"/>
		<path fill="#FFFFFF" d="M141.766,42.9c-1.898,0-3.396-0.578-4.494-1.734s-1.646-2.762-1.646-4.816c0-2.07,0.51-3.715,1.529-4.934
			s2.389-1.828,4.107-1.828c1.609,0,2.883,0.529,3.82,1.588s1.406,2.455,1.406,4.189v1.23h-8.848
			c0.039,1.508,0.42,2.652,1.143,3.434s1.74,1.172,3.053,1.172c1.383,0,2.75-0.289,4.102-0.867v1.734
			c-0.688,0.297-1.338,0.51-1.951,0.639S142.633,42.9,141.766,42.9z M141.238,31.217c-1.031,0-1.854,0.336-2.467,1.008
			s-0.975,1.602-1.084,2.789h6.715c0-1.227-0.273-2.166-0.82-2.818S142.254,31.217,141.238,31.217z"/>
		<path fill="#FFFFFF" d="M158.09,39.162c0,1.195-0.445,2.117-1.336,2.766s-2.141,0.973-3.75,0.973c-1.703,0-3.031-0.27-3.984-0.809
			v-1.805c0.617,0.312,1.279,0.559,1.986,0.738s1.389,0.27,2.045,0.27c1.016,0,1.797-0.162,2.344-0.486s0.82-0.818,0.82-1.482
			c0-0.5-0.217-0.928-0.65-1.283s-1.279-0.775-2.537-1.26c-1.195-0.445-2.045-0.834-2.549-1.166s-0.879-0.709-1.125-1.131
			s-0.369-0.926-0.369-1.512c0-1.047,0.426-1.873,1.277-2.479s2.02-0.908,3.504-0.908c1.383,0,2.734,0.281,4.055,0.844l-0.691,1.582
			c-1.289-0.531-2.457-0.797-3.504-0.797c-0.922,0-1.617,0.145-2.086,0.434s-0.703,0.688-0.703,1.195
			c0,0.344,0.088,0.637,0.264,0.879s0.459,0.473,0.85,0.691s1.141,0.535,2.25,0.949c1.523,0.555,2.553,1.113,3.088,1.676
			S158.09,38.311,158.09,39.162z"/>
	</g>
</g>

</svg>
