<?xml version="1.0" encoding="utf-8"?>
<!-- Generator: Adobe Illustrator 15.0.0, SVG Export Plug-In . SVG Version: 6.00 Build 0)  -->
<!DOCTYPE svg PUBLIC "-//W3C//DTD SVG 1.1//EN" "http://www.w3.org/Graphics/SVG/1.1/DTD/svg11.dtd">
<svg version="1.1" xmlns="http://www.w3.org/2000/svg" xmlns:xlink="http://www.w3.org/1999/xlink" x="0px" y="0px" width="210px"
	 height="70px" viewBox="0 0 210 70" enable-background="new 0 0 210 70" xml:space="preserve">
<g id="Layer_1" display="none">
	<circle display="inline" fill="#222222" cx="175" cy="35.001" r="35"/>
	<rect x="-3.659" y="-3.1" display="inline" fill="#222222" width="177.759" height="80.434"/>
</g>
<g id="Layer_2" display="none">
	<circle display="inline" fill="#222222" cx="175" cy="34.884" r="35"/>
	<rect x="-3.659" y="-3.217" display="inline" fill="#222222" width="177.759" height="80.434"/>
	<text transform="matrix(1 0 0 1 66.332 42.666)" display="inline" fill="#FFFFFF" font-family="'OpenSans'" font-size="24">features</text>
</g>
<g id="Layer_3" display="none">
	<circle display="inline" fill="#222222" cx="34.999" cy="34.783" r="35"/>
	<rect x="35.899" y="-7.55" display="inline" fill="#222222" width="177.759" height="80.434"/>
	<text transform="matrix(1 0 0 1 73.6665 41)" display="inline" fill="#FFFFFF" font-family="'OpenSans'" font-size="24">process</text>
</g>
<g id="Layer_4" display="none">
	<circle display="inline" fill="#222222" cx="174.83" cy="34.884" r="35"/>
	<rect x="-3.83" y="-3.217" display="inline" fill="#222222" width="177.759" height="80.434"/>
	<text transform="matrix(1 0 0 1 66.1611 42.666)" display="inline" fill="#FFFFFF" font-family="'OpenSans'" font-size="24">pricing</text>
</g>
<g id="Layer_5">
	<circle fill="#222222" cx="35.333" cy="34.633" r="35"/>
	<rect x="36.232" y="-7.7" fill="#222222" width="177.76" height="80.435"/>
	<g>
		<path fill="#FFFFFF" d="M40.575,28.006v1.23l-2.379,0.281c0.219,0.273,0.414,0.631,0.586,1.072s0.258,0.939,0.258,1.494
			c0,1.258-0.43,2.262-1.289,3.012s-2.039,1.125-3.539,1.125c-0.383,0-0.742-0.031-1.078-0.094
			c-0.828,0.438-1.242,0.988-1.242,1.652c0,0.352,0.145,0.611,0.434,0.779s0.785,0.252,1.488,0.252h2.273
			c1.391,0,2.459,0.293,3.205,0.879c0.747,0.586,1.12,1.438,1.12,2.555c0,1.422-0.57,2.506-1.711,3.252
			c-1.141,0.746-2.805,1.119-4.992,1.119c-1.68,0-2.975-0.312-3.885-0.938s-1.365-1.508-1.365-2.648c0-0.781,0.25-1.457,0.75-2.027
			s1.203-0.957,2.109-1.16c-0.328-0.148-0.604-0.379-0.826-0.691s-0.334-0.676-0.334-1.09c0-0.469,0.125-0.879,0.375-1.23
			s0.645-0.691,1.184-1.019c-0.664-0.273-1.205-0.738-1.623-1.395s-0.627-1.406-0.627-2.25c0-1.406,0.422-2.49,1.266-3.252
			s2.039-1.143,3.586-1.143c0.672,0,1.277,0.078,1.816,0.234H40.575z M30.332,43.006c0,0.695,0.293,1.223,0.879,1.582
			s1.426,0.539,2.52,0.539c1.633,0,2.842-0.244,3.627-0.732s1.178-1.15,1.178-1.986c0-0.695-0.215-1.178-0.645-1.447
			s-1.238-0.404-2.426-0.404h-2.332c-0.883,0-1.57,0.211-2.062,0.633S30.332,42.217,30.332,43.006z M31.387,32.12
			c0,0.898,0.254,1.578,0.762,2.039s1.215,0.691,2.121,0.691c1.898,0,2.848-0.922,2.848-2.766c0-1.93-0.961-2.895-2.883-2.895
			c-0.914,0-1.617,0.246-2.109,0.738S31.387,31.151,31.387,32.12z"/>
		<path fill="#FFFFFF" d="M48.637,41.084c-1.898,0-3.396-0.578-4.494-1.734s-1.646-2.762-1.646-4.816c0-2.07,0.51-3.715,1.529-4.934
			s2.389-1.828,4.107-1.828c1.609,0,2.883,0.529,3.82,1.588s1.406,2.455,1.406,4.189v1.23h-8.848
			c0.039,1.507,0.42,2.652,1.143,3.433s1.74,1.172,3.053,1.172c1.383,0,2.75-0.289,4.102-0.867v1.734
			c-0.688,0.297-1.338,0.51-1.951,0.639S49.504,41.084,48.637,41.084z M48.11,29.401c-1.031,0-1.854,0.336-2.467,1.008
			s-0.975,1.602-1.084,2.789h6.715c0-1.227-0.273-2.166-0.82-2.818S49.125,29.401,48.11,29.401z"/>
		<path fill="#FFFFFF" d="M60.825,39.479c0.344,0,0.676-0.025,0.996-0.076s0.574-0.104,0.762-0.158v1.488
			c-0.211,0.102-0.521,0.186-0.932,0.252s-0.779,0.1-1.107,0.1c-2.484,0-3.727-1.309-3.727-3.926v-7.64h-1.84v-0.938l1.84-0.809
			l0.82-2.742h1.125v2.977h3.727v1.512h-3.727v7.558c0,0.773,0.184,1.367,0.551,1.781S60.184,39.479,60.825,39.479z"/>
		<path fill="#FFFFFF" d="M69.297,39.479c0.344,0,0.676-0.025,0.996-0.076s0.574-0.104,0.762-0.158v1.488
			c-0.211,0.102-0.521,0.186-0.932,0.252s-0.779,0.1-1.107,0.1c-2.484,0-3.727-1.309-3.727-3.926v-7.64h-1.84v-0.938l1.84-0.809
			l0.82-2.742h1.125v2.977h3.727v1.512h-3.727v7.558c0,0.773,0.184,1.367,0.551,1.781S68.657,39.479,69.297,39.479z"/>
		<path fill="#FFFFFF" d="M73.458,24.526c0-0.445,0.109-0.771,0.328-0.979s0.492-0.311,0.82-0.311c0.312,0,0.582,0.105,0.809,0.316
			s0.34,0.535,0.34,0.973s-0.113,0.764-0.34,0.979s-0.496,0.322-0.809,0.322c-0.328,0-0.602-0.107-0.82-0.322
			S73.458,24.963,73.458,24.526z M75.567,40.85h-1.945V28.006h1.945V40.85z"/>
		<path fill="#FFFFFF" d="M88.481,40.85v-8.308c0-1.047-0.238-1.828-0.715-2.344s-1.223-0.773-2.238-0.773
			c-1.344,0-2.328,0.363-2.953,1.09s-0.938,1.926-0.938,3.598v6.738h-1.945V28.006h1.582l0.316,1.758h0.094
			c0.398-0.633,0.957-1.123,1.676-1.471s1.52-0.521,2.402-0.521c1.547,0,2.711,0.373,3.492,1.119s1.172,1.939,1.172,3.58v8.378
			H88.481z"/>
		<path fill="#FFFFFF" d="M104.934,28.006v1.23l-2.379,0.281c0.219,0.273,0.414,0.631,0.586,1.072s0.258,0.939,0.258,1.494
			c0,1.258-0.43,2.262-1.289,3.012s-2.039,1.125-3.539,1.125c-0.383,0-0.742-0.031-1.078-0.094
			c-0.828,0.438-1.242,0.988-1.242,1.652c0,0.352,0.145,0.611,0.434,0.779s0.785,0.252,1.488,0.252h2.273
			c1.391,0,2.459,0.293,3.205,0.879s1.119,1.438,1.119,2.555c0,1.422-0.57,2.506-1.711,3.252s-2.805,1.119-4.992,1.119
			c-1.68,0-2.975-0.312-3.885-0.938s-1.365-1.508-1.365-2.648c0-0.781,0.25-1.457,0.75-2.027s1.203-0.957,2.109-1.16
			c-0.328-0.148-0.604-0.379-0.826-0.691s-0.334-0.676-0.334-1.09c0-0.469,0.125-0.879,0.375-1.23s0.645-0.691,1.184-1.019
			c-0.664-0.273-1.205-0.738-1.623-1.395s-0.627-1.406-0.627-2.25c0-1.406,0.422-2.49,1.266-3.252s2.039-1.143,3.586-1.143
			c0.672,0,1.277,0.078,1.816,0.234H104.934z M94.692,43.006c0,0.695,0.293,1.223,0.879,1.582s1.426,0.539,2.52,0.539
			c1.633,0,2.842-0.244,3.627-0.732s1.178-1.15,1.178-1.986c0-0.695-0.215-1.178-0.645-1.447s-1.238-0.404-2.426-0.404h-2.332
			c-0.883,0-1.57,0.211-2.062,0.633S94.692,42.217,94.692,43.006z M95.747,32.12c0,0.898,0.254,1.578,0.762,2.039
			s1.215,0.691,2.121,0.691c1.898,0,2.848-0.922,2.848-2.766c0-1.93-0.961-2.895-2.883-2.895c-0.914,0-1.617,0.246-2.109,0.738
			S95.747,31.151,95.747,32.12z"/>
		<path fill="#FFFFFF" d="M122.09,37.346c0,1.195-0.445,2.117-1.336,2.766s-2.141,0.973-3.75,0.973c-1.703,0-3.031-0.27-3.984-0.809
			v-1.805c0.617,0.312,1.279,0.559,1.986,0.738s1.389,0.27,2.045,0.27c1.016,0,1.797-0.162,2.344-0.486s0.82-0.818,0.82-1.482
			c0-0.5-0.217-0.928-0.65-1.283c-0.434-0.355-1.279-0.775-2.537-1.259c-1.195-0.445-2.045-0.834-2.549-1.166
			s-0.879-0.709-1.125-1.131s-0.369-0.926-0.369-1.512c0-1.047,0.426-1.873,1.277-2.479s2.02-0.908,3.504-0.908
			c1.383,0,2.734,0.281,4.055,0.844l-0.691,1.582c-1.289-0.531-2.457-0.797-3.504-0.797c-0.922,0-1.617,0.145-2.086,0.434
			s-0.703,0.688-0.703,1.195c0,0.344,0.088,0.637,0.264,0.879s0.459,0.473,0.85,0.691s1.141,0.535,2.25,0.949
			c1.523,0.555,2.553,1.113,3.088,1.676S122.09,36.494,122.09,37.346z"/>
		<path fill="#FFFFFF" d="M129.402,39.479c0.344,0,0.676-0.025,0.996-0.076s0.574-0.104,0.762-0.158v1.488
			c-0.211,0.102-0.521,0.186-0.932,0.252s-0.779,0.1-1.107,0.1c-2.484,0-3.727-1.309-3.727-3.926v-7.64h-1.84v-0.938l1.84-0.809
			l0.82-2.742h1.125v2.977h3.727v1.512h-3.727v7.558c0,0.773,0.184,1.367,0.551,1.781S128.762,39.479,129.402,39.479z"/>
		<path fill="#FFFFFF" d="M141.625,40.85l-0.387-1.828h-0.094c-0.641,0.805-1.279,1.35-1.916,1.635s-1.432,0.428-2.385,0.428
			c-1.273,0-2.271-0.328-2.994-0.984s-1.084-1.59-1.084-2.801c0-2.593,2.074-3.953,6.223-4.078l2.18-0.07v-0.797
			c0-1.008-0.217-1.752-0.65-2.232s-1.127-0.721-2.08-0.721c-1.07,0-2.281,0.328-3.633,0.984l-0.598-1.488
			c0.633-0.344,1.326-0.613,2.08-0.809s1.51-0.293,2.268-0.293c1.531,0,2.666,0.34,3.404,1.02s1.107,1.77,1.107,3.27v8.765H141.625z
			 M137.23,39.479c1.211,0,2.162-0.332,2.854-0.996s1.037-1.594,1.037-2.789v-1.16l-1.945,0.082
			c-1.547,0.055-2.662,0.295-3.346,0.721s-1.025,1.087-1.025,1.986c0,0.703,0.213,1.238,0.639,1.605S136.465,39.479,137.23,39.479z"
			/>
		<path fill="#FFFFFF" d="M152.934,27.772c0.57,0,1.082,0.047,1.535,0.141l-0.27,1.805c-0.531-0.117-1-0.176-1.406-0.176
			c-1.039,0-1.928,0.422-2.666,1.266s-1.107,1.895-1.107,3.152v6.89h-1.945V28.006h1.605l0.223,2.379h0.094
			c0.477-0.836,1.051-1.48,1.723-1.934S152.129,27.772,152.934,27.772z"/>
		<path fill="#FFFFFF" d="M161.02,39.479c0.344,0,0.676-0.025,0.996-0.076s0.574-0.104,0.762-0.158v1.488
			c-0.211,0.102-0.521,0.186-0.932,0.252s-0.779,0.1-1.107,0.1c-2.484,0-3.727-1.309-3.727-3.926v-7.64h-1.84v-0.938l1.84-0.809
			l0.82-2.742h1.125v2.977h3.727v1.512h-3.727v7.558c0,0.773,0.184,1.367,0.551,1.781S160.379,39.479,161.02,39.479z"/>
		<path fill="#FFFFFF" d="M170.77,41.084c-1.898,0-3.396-0.578-4.494-1.734s-1.646-2.762-1.646-4.816c0-2.07,0.51-3.715,1.529-4.934
			s2.389-1.828,4.107-1.828c1.609,0,2.883,0.529,3.82,1.588s1.406,2.455,1.406,4.189v1.23h-8.848
			c0.039,1.507,0.42,2.652,1.143,3.433s1.74,1.172,3.053,1.172c1.383,0,2.75-0.289,4.102-0.867v1.734
			c-0.688,0.297-1.338,0.51-1.951,0.639S171.637,41.084,170.77,41.084z M170.242,29.401c-1.031,0-1.854,0.336-2.467,1.008
			s-0.975,1.602-1.084,2.789h6.715c0-1.227-0.273-2.166-0.82-2.818S171.258,29.401,170.242,29.401z"/>
		<path fill="#FFFFFF" d="M187.551,39.127h-0.105c-0.898,1.305-2.242,1.957-4.031,1.957c-1.68,0-2.986-0.574-3.92-1.723
			s-1.4-2.781-1.4-4.898c0-2.117,0.469-3.762,1.406-4.934s2.242-1.758,3.914-1.758c1.742,0,3.078,0.633,4.008,1.898h0.152
			l-0.082-0.926l-0.047-0.902v-5.227h1.945V40.85h-1.582L187.551,39.127z M183.66,39.455c1.328,0,2.291-0.361,2.889-1.084
			s0.896-1.889,0.896-3.498v-0.41c0-1.82-0.303-3.119-0.908-3.896s-1.572-1.166-2.9-1.166c-1.141,0-2.014,0.443-2.619,1.33
			s-0.908,2.139-0.908,3.756c0,1.64,0.301,2.878,0.902,3.714S182.496,39.455,183.66,39.455z"/>
	</g>
</g>

</svg>
