<?xml version="1.0" encoding="utf-8"?>
<!-- Generator: Adobe Illustrator 15.0.0, SVG Export Plug-In . SVG Version: 6.00 Build 0)  -->
<!DOCTYPE svg PUBLIC "-//W3C//DTD SVG 1.1//EN" "http://www.w3.org/Graphics/SVG/1.1/DTD/svg11.dtd">
<svg version="1.1" xmlns="http://www.w3.org/2000/svg" xmlns:xlink="http://www.w3.org/1999/xlink" x="0px" y="0px" width="210px"
	 height="70px" viewBox="0 0 210 70" enable-background="new 0 0 210 70" xml:space="preserve">
<g id="Layer_1" display="none">
	<circle display="inline" fill="#222222" cx="175" cy="35.001" r="35"/>
	<rect x="-3.659" y="-3.1" display="inline" fill="#222222" width="177.759" height="80.434"/>
</g>
<g id="Layer_2" display="none">
	<circle display="inline" fill="#222222" cx="175" cy="34.884" r="35"/>
	<rect x="-3.659" y="-3.217" display="inline" fill="#222222" width="177.759" height="80.434"/>
	<text transform="matrix(1 0 0 1 66.332 42.666)" display="inline" fill="#FFFFFF" font-family="'OpenSans'" font-size="24">features</text>
</g>
<g id="Layer_3" display="none">
	<circle display="inline" fill="#222222" cx="34.999" cy="34.783" r="35"/>
	<rect x="35.899" y="-7.55" display="inline" fill="#222222" width="177.759" height="80.434"/>
	<text transform="matrix(1 0 0 1 73.6665 41)" display="inline" fill="#FFFFFF" font-family="'OpenSans'" font-size="24">process</text>
</g>
<g id="Layer_4" display="none">
	<circle display="inline" fill="#222222" cx="174.83" cy="34.884" r="35"/>
	<rect x="-3.83" y="-3.217" display="inline" fill="#222222" width="177.759" height="80.434"/>
	<text transform="matrix(1 0 0 1 66.1611 42.666)" display="inline" fill="#FFFFFF" font-family="'OpenSans'" font-size="24">pricing</text>
</g>
<g id="Layer_5" display="none">
	<circle display="inline" fill="#222222" cx="35.333" cy="34.633" r="35"/>
	<rect x="36.232" y="-7.7" display="inline" fill="#222222" width="177.76" height="80.435"/>
	<text transform="matrix(1 0 0 1 28 40.8496)" display="inline" fill="#FFFFFF" font-family="'OpenSans'" font-size="24">getting started</text>
</g>
<g id="Layer_6" display="none">
	<circle display="inline" fill="#222222" cx="175" cy="34.967" r="35"/>
	<rect x="-3.659" y="-3.134" display="inline" fill="#222222" width="177.759" height="80.435"/>
	<text transform="matrix(1 0 0 1 49.665 41.083)" display="inline" fill="#FFFFFF" font-family="'OpenSans'" font-size="24">questions</text>
</g>
<g id="Layer_7" display="none">
	<circle display="inline" fill="#222222" cx="175" cy="34.8" r="35"/>
	<rect x="-3.659" y="-3.301" display="inline" fill="#222222" width="177.759" height="80.435"/>
	<text transform="matrix(1 0 0 1 44.665 40.916)" display="inline" fill="#FFFFFF" font-family="'OpenSans'" font-size="24">humble till</text>
</g>
<g id="Layer_8">
	<circle fill="#222222" cx="35" cy="34.966" r="35"/>
	<rect x="35.899" y="-7.367" fill="#222222" width="177.76" height="80.435"/>
	<g>
		<path fill="#FFFFFF" d="M66.519,41.184v-8.309c0-1.047-0.238-1.828-0.715-2.344s-1.223-0.773-2.238-0.773
			c-1.352,0-2.338,0.367-2.959,1.102s-0.932,1.938-0.932,3.609v6.715h-1.945V22.949h1.945v5.52c0,0.664-0.031,1.215-0.094,1.652
			h0.117c0.383-0.617,0.928-1.104,1.635-1.459s1.514-0.533,2.42-0.533c1.57,0,2.748,0.373,3.533,1.119
			c0.786,0.746,1.178,1.932,1.178,3.557v8.379H66.519z"/>
		<path fill="#FFFFFF" d="M80.359,41.184l-0.387-1.828h-0.094c-0.641,0.805-1.279,1.35-1.916,1.635s-1.432,0.428-2.385,0.428
			c-1.273,0-2.271-0.328-2.994-0.984s-1.084-1.59-1.084-2.801c0-2.594,2.074-3.953,6.223-4.078l2.18-0.07v-0.797
			c0-1.008-0.217-1.752-0.65-2.232s-1.127-0.721-2.08-0.721c-1.07,0-2.281,0.328-3.633,0.984l-0.598-1.488
			c0.633-0.344,1.326-0.613,2.08-0.809s1.51-0.293,2.268-0.293c1.531,0,2.666,0.34,3.404,1.02s1.107,1.77,1.107,3.27v8.766H80.359z
			 M75.964,39.812c1.211,0,2.162-0.332,2.854-0.996s1.037-1.594,1.037-2.789v-1.16l-1.945,0.082
			c-1.547,0.055-2.662,0.295-3.346,0.721s-1.025,1.088-1.025,1.986c0,0.703,0.213,1.238,0.639,1.605S75.199,39.812,75.964,39.812z"
			/>
		<path fill="#FFFFFF" d="M91.667,28.105c0.57,0,1.082,0.047,1.535,0.141l-0.27,1.805c-0.531-0.117-1-0.176-1.406-0.176
			c-1.039,0-1.928,0.422-2.666,1.266s-1.107,1.895-1.107,3.152v6.891h-1.945V28.34h1.605l0.223,2.379h0.094
			c0.477-0.836,1.051-1.48,1.723-1.934S90.863,28.105,91.667,28.105z"/>
		<path fill="#FFFFFF" d="M104.347,39.461h-0.105c-0.898,1.305-2.242,1.957-4.031,1.957c-1.68,0-2.986-0.574-3.92-1.723
			s-1.4-2.781-1.4-4.898s0.469-3.762,1.406-4.934s2.242-1.758,3.914-1.758c1.742,0,3.078,0.633,4.008,1.898h0.152l-0.082-0.926
			l-0.047-0.902v-5.227h1.946v18.234h-1.583L104.347,39.461z M100.457,39.789c1.328,0,2.291-0.361,2.889-1.084
			s0.896-1.889,0.896-3.498v-0.41c0-1.82-0.303-3.119-0.908-3.896s-1.572-1.166-2.9-1.166c-1.141,0-2.014,0.443-2.619,1.33
			s-0.908,2.139-0.908,3.756c0,1.641,0.301,2.879,0.902,3.715S99.292,39.789,100.457,39.789z"/>
		<path fill="#FFFFFF" d="M120.801,41.184l-2.355-7.535c-0.148-0.461-0.426-1.508-0.832-3.141h-0.094
			c-0.312,1.367-0.586,2.422-0.82,3.164l-2.426,7.512h-2.25L108.52,28.34h2.039c0.828,3.227,1.459,5.684,1.893,7.371
			s0.682,2.824,0.744,3.41h0.094c0.086-0.445,0.225-1.021,0.416-1.729s0.357-1.268,0.498-1.682l2.355-7.371h2.109l2.297,7.371
			c0.438,1.344,0.734,2.473,0.891,3.387h0.094c0.031-0.281,0.115-0.715,0.252-1.301s0.951-3.738,2.443-9.457h2.016l-3.551,12.844
			H120.801z"/>
		<path fill="#FFFFFF" d="M136.879,41.184l-0.387-1.828h-0.094c-0.641,0.805-1.279,1.35-1.916,1.635s-1.432,0.428-2.385,0.428
			c-1.273,0-2.271-0.328-2.994-0.984s-1.084-1.59-1.084-2.801c0-2.594,2.074-3.953,6.223-4.078l2.18-0.07v-0.797
			c0-1.008-0.217-1.752-0.65-2.232s-1.127-0.721-2.08-0.721c-1.07,0-2.281,0.328-3.633,0.984l-0.598-1.488
			c0.633-0.344,1.326-0.613,2.08-0.809s1.51-0.293,2.268-0.293c1.531,0,2.666,0.34,3.404,1.02s1.107,1.77,1.107,3.27v8.766H136.879z
			 M132.484,39.812c1.211,0,2.162-0.332,2.854-0.996s1.037-1.594,1.037-2.789v-1.16l-1.945,0.082
			c-1.547,0.055-2.662,0.295-3.346,0.721s-1.025,1.088-1.025,1.986c0,0.703,0.213,1.238,0.639,1.605S131.719,39.812,132.484,39.812z
			"/>
		<path fill="#FFFFFF" d="M148.188,28.105c0.57,0,1.082,0.047,1.535,0.141l-0.27,1.805c-0.531-0.117-1-0.176-1.406-0.176
			c-1.039,0-1.928,0.422-2.666,1.266s-1.107,1.895-1.107,3.152v6.891h-1.945V28.34h1.605l0.223,2.379h0.094
			c0.477-0.836,1.051-1.48,1.723-1.934S147.383,28.105,148.188,28.105z"/>
		<path fill="#FFFFFF" d="M157.551,41.418c-1.898,0-3.396-0.578-4.494-1.734s-1.646-2.762-1.646-4.816
			c0-2.07,0.51-3.715,1.529-4.934s2.389-1.828,4.107-1.828c1.609,0,2.883,0.529,3.82,1.588s1.406,2.455,1.406,4.189v1.23h-8.848
			c0.039,1.508,0.42,2.652,1.143,3.434s1.74,1.172,3.053,1.172c1.383,0,2.75-0.289,4.102-0.867v1.734
			c-0.688,0.297-1.338,0.51-1.951,0.639S158.418,41.418,157.551,41.418z M157.023,29.734c-1.031,0-1.854,0.336-2.467,1.008
			s-0.975,1.602-1.084,2.789h6.715c0-1.227-0.273-2.166-0.82-2.818S158.039,29.734,157.023,29.734z"/>
	</g>
</g>
</svg>
