<?xml version="1.0" encoding="utf-8"?>
<!-- Generator: Adobe Illustrator 15.0.0, SVG Export Plug-In . SVG Version: 6.00 Build 0)  -->
<!DOCTYPE svg PUBLIC "-//W3C//DTD SVG 1.1//EN" "http://www.w3.org/Graphics/SVG/1.1/DTD/svg11.dtd">
<svg version="1.1" xmlns="http://www.w3.org/2000/svg" xmlns:xlink="http://www.w3.org/1999/xlink" x="0px" y="0px" width="500px"
	 height="500px" viewBox="0 0 500 500" enable-background="new 0 0 500 500" xml:space="preserve">
<g id="Layer_2" display="none">
	<circle display="inline" fill="#D8D8D8" cx="250" cy="250.001" r="250"/>
</g>
<g id="Layer_6">
	<circle fill="#38AE68" cx="250" cy="250.001" r="250"/>
	<text transform="matrix(1 0 0 1 185.5938 308.2148)" fill="#FFFFFF" font-family="'Helvetica-Bold'" font-size="215.189">h</text>
</g>
<g id="Layer_1" display="none">
	<g display="inline">
		<path fill="#FFFFFF" stroke="#000000" stroke-width="12" stroke-miterlimit="10" d="M320.973,359.005
			c0,5.772-4.049,10.452-9.045,10.452H165.889c-4.997,0-9.047-4.68-9.047-10.452v-218.01c0-5.772,4.05-10.452,9.047-10.452h146.039
			c4.996,0,9.045,4.68,9.045,10.452V359.005z"/>
		<rect x="156.842" y="344.819" width="162.84" height="20.317"/>
		<circle fill="#FFFFFF" cx="236.869" cy="357.95" r="6.206"/>
		<rect x="157.358" y="131.167" width="162.839" height="14.888"/>
		<path fill="#FFFFFF" stroke="#000000" stroke-width="6" stroke-miterlimit="10" d="M290.205,323.821
			c0,3.355,2.432,6.076,5.43,6.076h48.094c2.998,0,5.43-2.721,5.43-6.076V211.859c0-3.355-2.432-6.076-5.43-6.076h-48.094
			c-2.998,0-5.43,2.72-5.43,6.076V323.821z"/>
		<rect x="290.205" y="314.255" width="57.402" height="13.637"/>
		<rect x="290.98" y="207.665" width="57.402" height="13.116"/>
		<circle fill="#FFFFFF" cx="319.682" cy="321.978" r="3.748"/>
	</g>
</g>
<g id="Layer_4" display="none">
	<g display="inline">
		<g id="XMLID_2_">
			<g>
				<path d="M349.103,230.523c1.396,12.462,0.675,27.34,0,40.184c-1.299,24.801-9.727,44.491-20.092,61.822
					c-4.276,7.15-11.839,21.127-17.517,23.183c-5.472,1.979-14.116,0.516-21.638,0.516c-22.292,0-32.936-1.958-55.001-1.958
					c-5.301-5.178-22.647-13.977-28.458-23.802c-10.433-17.635-19.85-37.113-28.85-57.7c-2.04-4.667-4.276-10.046-6.697-14.94
					c-4.59-9.289-11.854-20.54-4.637-31.941c6.141-9.701,23.611-15.481,36.578-8.758c3.38-34.836-10.979-88.879,24.214-90.672
					c27.51-1.401,27.304,27.047,26.79,56.155c13.503-1.154,26.65,2.092,31.426,11.334c14.055-4.513,28.14,2.221,31.941,12.879
					C334.579,202.775,347.351,214.856,349.103,230.523z M331.586,253.19c0-10.432,1.953-32.739-9.273-29.365
					c-5.419,1.628-3.611,2.942-4.827,8.187c-1.375,5.94,0.155-0.721-2.561,8.701c-5.667,19.701-6.408-22.771-15.795-29.252
					c-2.103-1.453-7.435-1.571-9.789,0c-3.456,9.866-3.39,11.865-8.387,20.02c-6.842,11.164-9.335-17.81-11.705-29.293
					c-3.446-1.623-9.041-3.333-12.364-1.031c-9.686,6.718-3.158,4.297-11.365,27.609c-3.534,10.041-9.243-9.67-9.243-20.396
					c0-6.569,0.345-14.92,0-22.153c-0.706-14.837,0.201-29.386-3.091-40.7c-12.535-4.544-11.38,7.48-11.849,18.547
					c-0.639,15.141-1.031,42.039-1.031,59.246c0,13.642-1.288,35.959-9.788,25.244c-4.925-6.213-7.311-11.118-14.425-14.94
					c-5.301-2.849-13.358-2.086-14.94,3.606c3.019,8.681,7.991,16.965,11.85,25.759c9.896,22.575,19.71,45.521,32.456,64.397
					c2.556,3.781,12.715,17.141,16.728,19.557c22.519,0.979,37.769,1.746,60.833,2.334
					C321.741,329.072,331.586,293.153,331.586,253.19z"/>
				<path fill="#FFFFFF" d="M322.312,223.825c11.227-3.374,9.273,18.933,9.273,29.365c0,39.963-9.845,75.882-28.566,96.077
					c-23.064-0.588-38.314-1.355-60.833-2.334c-4.013-2.416-14.172-15.775-16.728-19.557c-12.746-18.876-22.56-41.822-32.456-64.397
					c-3.859-8.794-8.831-17.079-11.85-25.759c1.582-5.693,9.639-6.455,14.94-3.606c7.115,3.823,9.5,8.728,14.425,14.94
					c8.5,10.715,9.788-11.602,9.788-25.244c0-17.207,0.392-44.104,1.031-59.246c0.469-11.066-0.686-23.091,11.849-18.547
					c3.292,11.313,2.385,25.862,3.091,40.7c0.345,7.233,0,15.584,0,22.153c0,10.726,5.708,30.437,9.243,20.396
					c8.207-23.312,1.679-20.891,11.365-27.609c3.323-2.303,8.918-0.592,12.364,1.031c2.37,11.483,4.863,40.457,11.705,29.293
					c4.997-8.155,4.931-10.154,8.387-20.02c2.354-1.571,7.687-1.453,9.789,0c9.387,6.481,10.128,48.953,15.795,29.252
					c2.716-9.422,1.186-2.761,2.561-8.701C318.701,226.767,316.894,225.454,322.312,223.825z"/>
			</g>
			<g>
			</g>
		</g>
	</g>
</g>
<g id="Layer_5" display="none">
	
		<ellipse display="inline" fill="#FFFFFF" stroke="#000000" stroke-width="16" stroke-miterlimit="10" cx="352.486" cy="252.415" rx="61" ry="62.057"/>
	
		<ellipse display="inline" fill="#FFFFFF" stroke="#000000" stroke-width="16" stroke-miterlimit="10" cx="308.486" cy="278.342" rx="55.91" ry="55.118"/>
	<ellipse display="inline" fill="#FFFFFF" cx="348.243" cy="258.326" rx="51.675" ry="50.902"/>
	
		<ellipse display="inline" fill="#FFFFFF" stroke="#000000" stroke-width="16" stroke-miterlimit="10" cx="269.486" cy="198.797" rx="83" ry="79.546"/>
	
		<ellipse display="inline" fill="#FFFFFF" stroke="#000000" stroke-width="16" stroke-miterlimit="10" cx="214.5" cy="252.413" rx="93.986" ry="92.654"/>
	<ellipse display="inline" fill="#FFFFFF" cx="296.567" cy="210.431" rx="53.31" ry="70.395"/>
	
		<ellipse transform="matrix(-1 -0.0066 0.0066 -1 460.0248 413.8085)" display="inline" fill="#FFFFFF" cx="230.7" cy="206.14" rx="74.034" ry="49.481"/>
	<ellipse display="inline" fill="#FFFFFF" cx="303.14" cy="287.159" rx="40.846" ry="38.869"/>
	
		<ellipse transform="matrix(-0.7435 0.6688 -0.6688 -0.7435 435.7168 224.4568)" display="inline" fill="#FFFFFF" cx="174.809" cy="195.797" rx="40.155" ry="18.442"/>
</g>
<g id="Layer_3" display="none">
</g>
</svg>
