<?xml version="1.0" encoding="utf-8"?>
<!-- Generator: Adobe Illustrator 15.0.0, SVG Export Plug-In . SVG Version: 6.00 Build 0)  -->
<!DOCTYPE svg PUBLIC "-//W3C//DTD SVG 1.1//EN" "http://www.w3.org/Graphics/SVG/1.1/DTD/svg11.dtd">
<svg version="1.1" xmlns="http://www.w3.org/2000/svg" xmlns:xlink="http://www.w3.org/1999/xlink" x="0px" y="0px" width="210px"
	 height="70px" viewBox="0 0 210 70" enable-background="new 0 0 210 70" xml:space="preserve">
<g id="Layer_1" display="none">
	<circle display="inline" fill="#222222" cx="175" cy="35.001" r="35"/>
	<rect x="-3.659" y="-3.1" display="inline" fill="#222222" width="177.759" height="80.434"/>
</g>
<g id="Layer_2" display="none">
	<circle display="inline" fill="#222222" cx="175" cy="34.884" r="35"/>
	<rect x="-3.659" y="-3.217" display="inline" fill="#222222" width="177.759" height="80.434"/>
	<text transform="matrix(1 0 0 1 66.332 42.666)" display="inline" fill="#FFFFFF" font-family="'OpenSans'" font-size="24">features</text>
</g>
<g id="Layer_3" display="none">
	<circle display="inline" fill="#222222" cx="34.999" cy="34.783" r="35"/>
	<rect x="35.899" y="-7.55" display="inline" fill="#222222" width="177.759" height="80.434"/>
	<text transform="matrix(1 0 0 1 73.6665 41)" display="inline" fill="#FFFFFF" font-family="'OpenSans'" font-size="24">process</text>
</g>
<g id="Layer_4" display="none">
	<circle display="inline" fill="#222222" cx="174.83" cy="34.884" r="35"/>
	<rect x="-3.83" y="-3.217" display="inline" fill="#222222" width="177.759" height="80.434"/>
	<text transform="matrix(1 0 0 1 66.1611 42.666)" display="inline" fill="#FFFFFF" font-family="'OpenSans'" font-size="24">pricing</text>
</g>
<g id="Layer_5" display="none">
	<circle display="inline" fill="#222222" cx="35.333" cy="34.633" r="35"/>
	<rect x="36.232" y="-7.7" display="inline" fill="#222222" width="177.76" height="80.435"/>
	<text transform="matrix(1 0 0 1 28 40.8496)" display="inline" fill="#FFFFFF" font-family="'OpenSans'" font-size="24">getting started</text>
</g>
<g id="Layer_6" display="none">
	<circle display="inline" fill="#222222" cx="175" cy="34.967" r="35"/>
	<rect x="-3.659" y="-3.134" display="inline" fill="#222222" width="177.759" height="80.435"/>
	<text transform="matrix(1 0 0 1 49.665 41.083)" display="inline" fill="#FFFFFF" font-family="'OpenSans'" font-size="24">questions</text>
</g>
<g id="Layer_7">
	<circle fill="#222222" cx="175" cy="34.8" r="35"/>
	<rect x="-3.659" y="-3.301" fill="#222222" width="177.759" height="80.435"/>
	<g>
		<path fill="#FFFFFF" d="M55.517,40.916v-8.309c0-1.047-0.238-1.828-0.715-2.344s-1.223-0.773-2.238-0.773
			c-1.352,0-2.338,0.367-2.959,1.102s-0.932,1.938-0.932,3.609v6.715h-1.945V22.682h1.945v5.52c0,0.664-0.031,1.215-0.094,1.652
			h0.117c0.383-0.617,0.928-1.104,1.635-1.459s1.514-0.533,2.42-0.533c1.57,0,2.748,0.373,3.533,1.119s1.178,1.932,1.178,3.557
			v8.379H55.517z"/>
		<path fill="#FFFFFF" d="M63.286,28.072v8.332c0,1.047,0.238,1.828,0.715,2.344s1.223,0.773,2.238,0.773
			c1.344,0,2.326-0.367,2.947-1.102s0.932-1.934,0.932-3.598v-6.75h1.945v12.844h-1.605l-0.281-1.723h-0.105
			c-0.398,0.633-0.951,1.117-1.658,1.453s-1.514,0.504-2.42,0.504c-1.562,0-2.732-0.371-3.51-1.113s-1.166-1.93-1.166-3.562v-8.402
			H63.286z"/>
		<path fill="#FFFFFF" d="M92.56,40.916v-8.355c0-1.023-0.219-1.791-0.656-2.303s-1.117-0.768-2.039-0.768
			c-1.211,0-2.105,0.348-2.684,1.043s-0.867,1.766-0.867,3.211v7.172h-1.945v-8.355c0-1.023-0.219-1.791-0.656-2.303
			s-1.121-0.768-2.051-0.768c-1.219,0-2.111,0.365-2.678,1.096s-0.85,1.928-0.85,3.592v6.738h-1.945V28.072h1.582l0.316,1.758h0.094
			c0.367-0.625,0.885-1.113,1.553-1.465s1.416-0.527,2.244-0.527c2.008,0,3.32,0.727,3.938,2.18h0.094
			c0.383-0.672,0.938-1.203,1.664-1.594s1.555-0.586,2.484-0.586c1.453,0,2.541,0.373,3.264,1.119s1.084,1.939,1.084,3.58v8.379
			H92.56z"/>
		<path fill="#FFFFFF" d="M104.489,27.861c1.688,0,2.998,0.576,3.932,1.729s1.4,2.783,1.4,4.893s-0.471,3.748-1.412,4.916
			s-2.248,1.752-3.92,1.752c-0.836,0-1.6-0.154-2.291-0.463s-1.271-0.783-1.74-1.424h-0.141l-0.41,1.652h-1.395V22.682h1.945v4.43
			c0,0.992-0.031,1.883-0.094,2.672h0.094C101.364,28.502,102.708,27.861,104.489,27.861z M104.208,29.49
			c-1.328,0-2.285,0.381-2.871,1.143s-0.879,2.045-0.879,3.85s0.301,3.096,0.902,3.873s1.566,1.166,2.895,1.166
			c1.195,0,2.086-0.436,2.672-1.307s0.879-2.123,0.879-3.756c0-1.672-0.293-2.918-0.879-3.738S105.435,29.49,104.208,29.49z"/>
		<path fill="#FFFFFF" d="M115.165,40.916h-1.945V22.682h1.945V40.916z"/>
		<path fill="#FFFFFF" d="M124.716,41.15c-1.898,0-3.396-0.578-4.494-1.734s-1.646-2.762-1.646-4.816c0-2.07,0.51-3.715,1.529-4.934
			s2.389-1.828,4.107-1.828c1.609,0,2.883,0.529,3.82,1.588s1.406,2.455,1.406,4.189v1.23h-8.848
			c0.039,1.508,0.42,2.652,1.143,3.434s1.74,1.172,3.053,1.172c1.383,0,2.75-0.289,4.102-0.867v1.734
			c-0.688,0.297-1.338,0.51-1.951,0.639S125.583,41.15,124.716,41.15z M124.188,29.467c-1.031,0-1.854,0.336-2.467,1.008
			s-0.975,1.602-1.084,2.789h6.715c0-1.227-0.273-2.166-0.82-2.818S125.204,29.467,124.188,29.467z"/>
		<path fill="#FFFFFF" d="M143.138,39.545c0.344,0,0.676-0.025,0.996-0.076s0.574-0.104,0.762-0.158v1.488
			c-0.211,0.102-0.521,0.186-0.932,0.252s-0.779,0.1-1.107,0.1c-2.484,0-3.727-1.309-3.727-3.926v-7.641h-1.84v-0.938l1.84-0.809
			l0.82-2.742h1.125v2.977h3.727v1.512h-3.727v7.559c0,0.773,0.184,1.367,0.551,1.781S142.497,39.545,143.138,39.545z"/>
		<path fill="#FFFFFF" d="M147.298,24.592c0-0.445,0.109-0.771,0.328-0.979s0.492-0.311,0.82-0.311c0.312,0,0.582,0.105,0.809,0.316
			s0.34,0.535,0.34,0.973s-0.113,0.764-0.34,0.979s-0.496,0.322-0.809,0.322c-0.328,0-0.602-0.107-0.82-0.322
			S147.298,25.029,147.298,24.592z M149.407,40.916h-1.945V28.072h1.945V40.916z"/>
		<path fill="#FFFFFF" d="M155.478,40.916h-1.945V22.682h1.945V40.916z"/>
		<path fill="#FFFFFF" d="M161.548,40.916h-1.945V22.682h1.945V40.916z"/>
	</g>
</g>
<g id="Layer_8" display="none">
	<circle display="inline" fill="#222222" cx="35" cy="34.966" r="35"/>
	<rect x="35.899" y="-7.367" display="inline" fill="#222222" width="177.76" height="80.435"/>
	<text transform="matrix(1 0 0 1 60.167 41.1836)" display="inline" fill="#FFFFFF" font-family="'OpenSans'" font-size="24">hardware</text>
</g>
</svg>
