<?xml version="1.0" encoding="utf-8"?>
<!-- Generator: Adobe Illustrator 15.0.0, SVG Export Plug-In . SVG Version: 6.00 Build 0)  -->
<!DOCTYPE svg PUBLIC "-//W3C//DTD SVG 1.1//EN" "http://www.w3.org/Graphics/SVG/1.1/DTD/svg11.dtd">
<svg version="1.1" id="Layer_1" xmlns="http://www.w3.org/2000/svg" xmlns:xlink="http://www.w3.org/1999/xlink" x="0px" y="0px"
	 width="94.39px" height="22.578px" viewBox="0 0 94.39 22.578" enable-background="new 0 0 94.39 22.578" xml:space="preserve">
<g>
	<path fill="#FFFFFF" d="M11.676,5.828c0.817,0.349,1.49,0.883,2.016,1.601c0.446,0.608,0.719,1.234,0.818,1.877
		c0.099,0.643,0.149,1.692,0.149,3.147v9.571H10.31v-9.917c0-0.878-0.148-1.587-0.445-2.125C9.479,9.225,8.748,8.846,7.67,8.846
		c-1.118,0-1.965,0.376-2.544,1.129c-0.578,0.753-0.867,1.828-0.867,3.224v8.825H0V0.075h4.259v7.77
		c0.615-0.946,1.326-1.606,2.135-1.979c0.807-0.375,1.658-0.561,2.551-0.561C9.947,5.304,10.857,5.479,11.676,5.828z"/>
	<path fill="#FFFFFF" d="M20.458,5.738v9.816c0,0.926,0.109,1.624,0.327,2.092c0.387,0.827,1.145,1.241,2.275,1.241
		c1.446,0,2.438-0.588,2.973-1.764c0.278-0.638,0.417-1.479,0.417-2.525v-8.86h4.318v16.286h-4.139v-2.3
		c-0.04,0.05-0.139,0.199-0.298,0.447c-0.159,0.25-0.348,0.469-0.566,0.658c-0.666,0.598-1.31,1.007-1.93,1.226
		c-0.621,0.219-1.348,0.329-2.183,0.329c-2.404,0-4.023-0.866-4.857-2.6c-0.467-0.956-0.7-2.366-0.7-4.229V5.738H20.458z"/>
	<path fill="#FFFFFF" d="M52.781,5.798c0.696,0.279,1.329,0.767,1.897,1.464c0.458,0.568,0.767,1.265,0.926,2.091
		c0.099,0.548,0.149,1.351,0.149,2.407l-0.03,10.264h-4.363V11.655c0-0.618-0.1-1.126-0.299-1.525
		c-0.378-0.756-1.076-1.135-2.092-1.135c-1.175,0-1.988,0.488-2.436,1.464c-0.229,0.519-0.343,1.141-0.343,1.868v9.697h-4.288
		v-9.697c0-0.966-0.101-1.668-0.299-2.106c-0.359-0.787-1.061-1.181-2.107-1.181c-1.215,0-2.032,0.394-2.451,1.181
		c-0.229,0.447-0.343,1.115-0.343,2.001v9.802h-4.318V5.768h4.139v2.376c0.528-0.846,1.026-1.45,1.494-1.808
		c0.828-0.637,1.898-0.957,3.214-0.957c1.245,0,2.25,0.274,3.018,0.822c0.618,0.508,1.086,1.161,1.405,1.958
		c0.558-0.957,1.25-1.659,2.076-2.107c0.877-0.448,1.854-0.673,2.929-0.673C51.377,5.378,52.084,5.519,52.781,5.798z"/>
	<path fill="#FFFFFF" d="M71.127,7.695c1.219,1.544,1.829,3.537,1.829,5.977c0,2.53-0.601,4.627-1.802,6.291
		c-1.202,1.663-2.878,2.496-5.032,2.496c-1.353,0-2.438-0.27-3.259-0.807c-0.49-0.319-1.021-0.876-1.592-1.673v2.046h-4.199V0.03
		h4.259v7.829c0.541-0.757,1.138-1.335,1.79-1.733c0.771-0.499,1.754-0.748,2.947-0.748C68.223,5.378,69.91,6.151,71.127,7.695z
		 M67.568,17.617c0.613-0.887,0.92-2.052,0.92-3.497c0-1.156-0.151-2.112-0.453-2.869C67.463,9.817,66.408,9.1,64.872,9.1
		c-1.557,0-2.626,0.702-3.209,2.106c-0.301,0.747-0.452,1.713-0.452,2.899c0,1.395,0.312,2.55,0.934,3.467
		c0.623,0.917,1.572,1.374,2.847,1.374C66.097,18.946,66.956,18.503,67.568,17.617z"/>
	<path fill="#FFFFFF" d="M77.813,22.024h-4.258V0h4.258V22.024z"/>
	<path fill="#FFFFFF" d="M90.132,6.068c1.136,0.509,2.075,1.312,2.815,2.41c0.667,0.967,1.1,2.09,1.297,3.366
		c0.115,0.749,0.162,1.826,0.141,3.233H82.523c0.065,1.633,0.633,2.779,1.703,3.437c0.651,0.408,1.433,0.612,2.348,0.612
		c0.971,0,1.759-0.249,2.365-0.747c0.331-0.269,0.623-0.642,0.876-1.121h4.348c-0.114,0.967-0.64,1.948-1.579,2.944
		c-1.459,1.584-3.501,2.375-6.127,2.375c-2.167,0-4.08-0.667-5.736-2.003c-1.657-1.336-2.485-3.51-2.485-6.521
		c0-2.821,0.748-4.985,2.243-6.49c1.496-1.506,3.437-2.259,5.824-2.259C87.72,5.304,88.997,5.559,90.132,6.068z M83.762,9.747
		c-0.602,0.62-0.98,1.46-1.135,2.521h7.337c-0.079-1.13-0.456-1.988-1.135-2.573c-0.68-0.586-1.521-0.879-2.526-0.879
		C85.211,8.815,84.364,9.126,83.762,9.747z"/>
</g>
</svg>
