<?xml version="1.0" encoding="utf-8"?>
<!-- Generator: Adobe Illustrator 15.0.0, SVG Export Plug-In . SVG Version: 6.00 Build 0)  -->
<!DOCTYPE svg PUBLIC "-//W3C//DTD SVG 1.1//EN" "http://www.w3.org/Graphics/SVG/1.1/DTD/svg11.dtd">
<svg version="1.1" id="Layer_6" xmlns="http://www.w3.org/2000/svg" xmlns:xlink="http://www.w3.org/1999/xlink" x="0px" y="0px"
	 width="210px" height="70px" viewBox="0 0 210 70" enable-background="new 0 0 210 70" xml:space="preserve">
<circle fill="#222222" cx="175" cy="34.967" r="35"/>
<rect x="-3.659" y="-3.134" fill="#222222" width="177.759" height="80.435"/>
<g>
	<path fill="#FFFFFF" d="M63.517,41.083v-8.309c0-1.047-0.238-1.828-0.715-2.344s-1.223-0.773-2.238-0.773
		c-1.352,0-2.338,0.367-2.959,1.102s-0.932,1.938-0.932,3.609v6.715h-1.945V22.849h1.945v5.52c0,0.664-0.031,1.215-0.094,1.652
		h0.117c0.383-0.617,0.928-1.104,1.635-1.459s1.514-0.533,2.42-0.533c1.57,0,2.748,0.373,3.533,1.119s1.178,1.932,1.178,3.557v8.379
		H63.517z"/>
	<path fill="#FFFFFF" d="M71.286,28.239v8.332c0,1.047,0.238,1.828,0.715,2.344s1.223,0.773,2.238,0.773
		c1.344,0,2.326-0.367,2.947-1.102s0.932-1.934,0.932-3.598v-6.75h1.945v12.844h-1.605l-0.281-1.723h-0.105
		c-0.398,0.633-0.951,1.117-1.658,1.453s-1.514,0.504-2.42,0.504c-1.562,0-2.732-0.371-3.51-1.113s-1.166-1.93-1.166-3.562v-8.402
		H71.286z"/>
	<path fill="#FFFFFF" d="M100.56,41.083v-8.355c0-1.023-0.219-1.791-0.656-2.303s-1.117-0.768-2.039-0.768
		c-1.211,0-2.105,0.348-2.684,1.043s-0.867,1.766-0.867,3.211v7.172h-1.945v-8.355c0-1.023-0.219-1.791-0.656-2.303
		s-1.121-0.768-2.051-0.768c-1.219,0-2.111,0.365-2.678,1.096s-0.85,1.928-0.85,3.592v6.738h-1.945V28.239h1.582l0.316,1.758h0.094
		c0.367-0.625,0.885-1.113,1.553-1.465s1.416-0.527,2.244-0.527c2.008,0,3.32,0.727,3.938,2.18h0.094
		c0.383-0.672,0.938-1.203,1.664-1.594s1.555-0.586,2.484-0.586c1.453,0,2.541,0.373,3.264,1.119s1.084,1.939,1.084,3.58v8.379
		H100.56z"/>
	<path fill="#FFFFFF" d="M112.489,28.028c1.688,0,2.998,0.576,3.932,1.729s1.4,2.783,1.4,4.893s-0.471,3.748-1.412,4.916
		s-2.248,1.752-3.92,1.752c-0.836,0-1.6-0.154-2.291-0.463s-1.271-0.783-1.74-1.424h-0.141l-0.41,1.652h-1.395V22.849h1.945v4.43
		c0,0.992-0.031,1.883-0.094,2.672h0.094C109.364,28.669,110.708,28.028,112.489,28.028z M112.208,29.657
		c-1.328,0-2.285,0.381-2.871,1.143s-0.879,2.045-0.879,3.85s0.301,3.096,0.902,3.873s1.566,1.166,2.895,1.166
		c1.195,0,2.086-0.436,2.672-1.307s0.879-2.123,0.879-3.756c0-1.672-0.293-2.918-0.879-3.738S113.435,29.657,112.208,29.657z"/>
	<path fill="#FFFFFF" d="M123.165,41.083h-1.945V22.849h1.945V41.083z"/>
	<path fill="#FFFFFF" d="M132.716,41.317c-1.898,0-3.396-0.578-4.494-1.734s-1.646-2.762-1.646-4.816c0-2.07,0.51-3.715,1.529-4.934
		s2.389-1.828,4.107-1.828c1.609,0,2.883,0.529,3.82,1.588s1.406,2.455,1.406,4.189v1.23h-8.848c0.039,1.508,0.42,2.652,1.143,3.434
		s1.74,1.172,3.053,1.172c1.383,0,2.75-0.289,4.102-0.867v1.734c-0.688,0.297-1.338,0.51-1.951,0.639S133.583,41.317,132.716,41.317
		z M132.188,29.634c-1.031,0-1.854,0.336-2.467,1.008s-0.975,1.602-1.084,2.789h6.715c0-1.227-0.273-2.166-0.82-2.818
		S133.204,29.634,132.188,29.634z"/>
</g>
</svg>
