<?xml version="1.0" encoding="utf-8"?>
<!-- Generator: Adobe Illustrator 15.0.0, SVG Export Plug-In . SVG Version: 6.00 Build 0)  -->
<!DOCTYPE svg PUBLIC "-//W3C//DTD SVG 1.1//EN" "http://www.w3.org/Graphics/SVG/1.1/DTD/svg11.dtd">
<svg version="1.1" xmlns="http://www.w3.org/2000/svg" xmlns:xlink="http://www.w3.org/1999/xlink" x="0px" y="0px" width="210px"
	 height="70px" viewBox="0 0 210 70" enable-background="new 0 0 210 70" xml:space="preserve">

<g id="Layer_11">
	<circle fill="#222222" cx="175" cy="34.948" r="35"/>
	<rect x="-3.659" y="-3.153" fill="#222222" width="177.759" height="80.434"/>
	<g>
		<path fill="#FFFFFF" d="M86.813,26.158c0-0.445,0.109-0.771,0.328-0.979s0.492-0.311,0.82-0.311c0.312,0,0.582,0.105,0.809,0.316
			s0.34,0.535,0.34,0.973s-0.113,0.764-0.34,0.979s-0.496,0.322-0.809,0.322c-0.328,0-0.602-0.107-0.82-0.322
			S86.813,26.595,86.813,26.158z M88.923,42.482h-1.945V29.638h1.945V42.482z"/>
		<path fill="#FFFFFF" d="M104.204,30.341c0,1.734-0.592,3.068-1.775,4.002s-2.877,1.4-5.08,1.4h-2.016v6.739h-1.992V25.349h4.441
			C102.063,25.349,104.204,27.013,104.204,30.341z M95.333,34.033h1.793c1.766,0,3.043-0.285,3.832-0.855s1.184-1.484,1.184-2.742
			c0-1.133-0.371-1.977-1.113-2.531s-1.898-0.832-3.469-0.832h-2.227V34.033z"/>
		<path fill="#FFFFFF" d="M115.396,42.482l-0.387-1.828h-0.094c-0.641,0.805-1.279,1.35-1.916,1.635s-1.432,0.428-2.385,0.428
			c-1.273,0-2.271-0.328-2.994-0.984s-1.084-1.59-1.084-2.801c0-2.594,2.074-3.954,6.223-4.079l2.18-0.07v-0.797
			c0-1.008-0.217-1.752-0.65-2.232s-1.127-0.721-2.08-0.721c-1.07,0-2.281,0.328-3.633,0.984l-0.598-1.488
			c0.633-0.344,1.326-0.613,2.08-0.809s1.51-0.293,2.268-0.293c1.531,0,2.666,0.34,3.404,1.02s1.107,1.77,1.107,3.27v8.766H115.396z
			 M111.001,41.111c1.211,0,2.162-0.332,2.854-0.996s1.037-1.594,1.037-2.789v-1.16l-1.945,0.082
			c-1.547,0.055-2.662,0.295-3.346,0.721s-1.025,1.088-1.025,1.986c0,0.703,0.213,1.238,0.639,1.605S110.235,41.111,111.001,41.111z
			"/>
		<path fill="#FFFFFF" d="M129.587,40.76h-0.105c-0.898,1.305-2.242,1.957-4.031,1.957c-1.68,0-2.986-0.574-3.92-1.723
			s-1.4-2.781-1.4-4.898c0-2.118,0.469-3.762,1.406-4.934s2.242-1.758,3.914-1.758c1.742,0,3.078,0.633,4.008,1.898h0.152
			l-0.082-0.926l-0.047-0.902v-5.227h1.945v18.235h-1.582L129.587,40.76z M125.696,41.088c1.328,0,2.291-0.361,2.889-1.084
			s0.896-1.889,0.896-3.498v-0.41c0-1.821-0.303-3.12-0.908-3.897s-1.572-1.166-2.9-1.166c-1.141,0-2.014,0.443-2.619,1.33
			s-0.908,2.139-0.908,3.756c0,1.641,0.301,2.879,0.902,3.715S124.532,41.088,125.696,41.088z"/>
	</g>
</g>

</svg>
