<?xml version="1.0" encoding="utf-8"?>
<!-- Generator: Adobe Illustrator 15.0.0, SVG Export Plug-In . SVG Version: 6.00 Build 0)  -->
<!DOCTYPE svg PUBLIC "-//W3C//DTD SVG 1.1//EN" "http://www.w3.org/Graphics/SVG/1.1/DTD/svg11.dtd">
<svg version="1.1" xmlns="http://www.w3.org/2000/svg" xmlns:xlink="http://www.w3.org/1999/xlink" x="0px" y="0px" width="210px"
	 height="70px" viewBox="0 0 210 70" enable-background="new 0 0 210 70" xml:space="preserve">
<g id="Layer_1" display="none">
	<circle display="inline" fill="#222222" cx="175" cy="35.001" r="35"/>
	<rect x="-3.659" y="-3.1" display="inline" fill="#222222" width="177.759" height="80.434"/>
</g>

<g id="Layer_10">
	<circle fill="#222222" cx="34.622" cy="34.791" r="35"/>
	<rect x="35.521" y="-7.542" fill="#222222" width="177.76" height="80.435"/>
	<g>
		<path fill="#FFFFFF" d="M58.397,40.666h-2.344l-6.246-8.308l-1.793,1.594v6.714h-1.992V23.534h1.992v8.496l7.77-8.496h2.355
			l-6.891,7.441L58.397,40.666z"/>
		<path fill="#FFFFFF" d="M71.545,34.233c0,2.093-0.527,3.728-1.582,4.904S67.452,40.9,65.592,40.9c-1.148,0-2.168-0.27-3.059-0.809
			s-1.578-1.312-2.062-2.32s-0.727-2.187-0.727-3.539c0-2.094,0.523-3.725,1.57-4.893s2.5-1.752,4.359-1.752
			c1.797,0,3.225,0.598,4.283,1.793S71.545,32.194,71.545,34.233z M61.76,34.233c0,1.641,0.328,2.89,0.984,3.75
			s1.621,1.289,2.895,1.289s2.24-0.428,2.9-1.283s0.99-2.107,0.99-3.755c0-1.633-0.33-2.873-0.99-3.721s-1.635-1.271-2.924-1.271
			c-1.273,0-2.234,0.418-2.883,1.254S61.76,32.577,61.76,34.233z"/>
		<path fill="#FFFFFF" d="M77.768,40.666l-4.875-12.843h2.086l2.766,7.617c0.625,1.781,0.992,2.937,1.102,3.468h0.094
			c0.086-0.414,0.357-1.271,0.814-2.572c0.457-1.3,1.482-4.138,3.076-8.513h2.086l-4.875,12.843H77.768z"/>
		<path fill="#FFFFFF" d="M94.878,40.666l-0.387-1.828h-0.094c-0.641,0.805-1.279,1.35-1.916,1.635
			c-0.637,0.285-1.432,0.428-2.385,0.428c-1.273,0-2.271-0.328-2.994-0.984s-1.084-1.59-1.084-2.801
			c0-2.593,2.074-3.953,6.223-4.078l2.18-0.07V32.17c0-1.008-0.217-1.752-0.65-2.232s-1.127-0.721-2.081-0.721
			c-1.07,0-2.281,0.328-3.633,0.984l-0.598-1.488c0.633-0.344,1.326-0.613,2.08-0.809s1.51-0.293,2.268-0.293
			c1.532,0,2.667,0.34,3.405,1.02s1.107,1.77,1.107,3.27v8.765H94.878z M90.483,39.295c1.211,0,2.163-0.332,2.854-0.996
			s1.037-1.594,1.037-2.789v-1.16l-1.945,0.082c-1.547,0.055-2.663,0.295-3.346,0.721s-1.025,1.087-1.025,1.986
			c0,0.703,0.213,1.238,0.639,1.605S89.717,39.295,90.483,39.295z"/>
		<path fill="#FFFFFF" d="M116.522,36.107c0,1.508-0.547,2.684-1.641,3.527s-2.578,1.266-4.453,1.266
			c-2.031,0-3.594-0.262-4.688-0.785v-1.922c0.703,0.297,1.469,0.531,2.297,0.703s1.648,0.258,2.461,0.258
			c1.328,0,2.328-0.252,3-0.756s1.008-1.205,1.008-2.104c0-0.593-0.119-1.08-0.357-1.458s-0.637-0.729-1.195-1.049
			s-1.408-0.684-2.549-1.09c-1.594-0.57-2.732-1.246-3.416-2.027s-1.025-1.801-1.025-3.059c0-1.32,0.496-2.371,1.488-3.152
			s2.305-1.172,3.938-1.172c1.703,0,3.27,0.312,4.699,0.938l-0.621,1.734c-1.414-0.594-2.789-0.891-4.125-0.891
			c-1.055,0-1.879,0.227-2.473,0.68s-0.891,1.082-0.891,1.887c0,0.594,0.109,1.08,0.328,1.459s0.588,0.727,1.107,1.043
			s1.314,0.666,2.385,1.049c1.797,0.641,3.033,1.328,3.709,2.062S116.522,34.936,116.522,36.107z"/>
		<path fill="#FFFFFF" d="M123.882,39.295c0.344,0,0.676-0.025,0.996-0.076s0.574-0.104,0.762-0.158v1.488
			c-0.211,0.102-0.521,0.186-0.932,0.252s-0.779,0.1-1.107,0.1c-2.484,0-3.727-1.309-3.727-3.926v-7.64h-1.84v-0.938l1.84-0.809
			l0.82-2.742h1.125v2.977h3.727v1.512h-3.727v7.558c0,0.773,0.184,1.367,0.551,1.781S123.241,39.295,123.882,39.295z"/>
		<path fill="#FFFFFF" d="M136.104,40.666l-0.387-1.828h-0.094c-0.641,0.805-1.279,1.35-1.916,1.635s-1.432,0.428-2.385,0.428
			c-1.273,0-2.271-0.328-2.994-0.984s-1.084-1.59-1.084-2.801c0-2.593,2.074-3.953,6.223-4.078l2.18-0.07V32.17
			c0-1.008-0.217-1.752-0.65-2.232s-1.127-0.721-2.08-0.721c-1.07,0-2.281,0.328-3.633,0.984l-0.598-1.488
			c0.633-0.344,1.326-0.613,2.08-0.809s1.51-0.293,2.268-0.293c1.531,0,2.666,0.34,3.404,1.02s1.107,1.77,1.107,3.27v8.765H136.104z
			 M131.71,39.295c1.211,0,2.162-0.332,2.854-0.996s1.037-1.594,1.037-2.789v-1.16l-1.945,0.082
			c-1.547,0.055-2.662,0.295-3.346,0.721s-1.025,1.087-1.025,1.986c0,0.703,0.213,1.238,0.639,1.605S130.944,39.295,131.71,39.295z"
			/>
		<path fill="#FFFFFF" d="M150.343,40.666v-8.308c0-1.047-0.238-1.828-0.715-2.344s-1.223-0.773-2.238-0.773
			c-1.344,0-2.328,0.363-2.953,1.09s-0.938,1.926-0.938,3.598v6.738h-1.945V27.823h1.582l0.316,1.758h0.094
			c0.398-0.633,0.957-1.123,1.676-1.471s1.52-0.521,2.402-0.521c1.547,0,2.711,0.373,3.492,1.119s1.172,1.939,1.172,3.58v8.378
			H150.343z"/>
		<path fill="#FFFFFF" d="M165.026,38.943h-0.105c-0.898,1.305-2.242,1.957-4.031,1.957c-1.68,0-2.986-0.574-3.92-1.723
			s-1.4-2.781-1.4-4.898c0-2.117,0.469-3.762,1.406-4.934s2.242-1.758,3.914-1.758c1.742,0,3.078,0.633,4.008,1.898h0.152
			l-0.082-0.926l-0.047-0.902v-5.227h1.945v18.234h-1.582L165.026,38.943z M161.136,39.271c1.328,0,2.291-0.361,2.889-1.084
			s0.896-1.889,0.896-3.498v-0.41c0-1.82-0.303-3.119-0.908-3.896s-1.572-1.166-2.9-1.166c-1.141,0-2.014,0.443-2.619,1.33
			s-0.908,2.139-0.908,3.756c0,1.641,0.301,2.878,0.902,3.714S159.972,39.271,161.136,39.271z"/>
	</g>
</g>

</svg>
