<?xml version="1.0" encoding="utf-8"?>
<!-- Generator: Adobe Illustrator 15.0.0, SVG Export Plug-In . SVG Version: 6.00 Build 0)  -->
<!DOCTYPE svg PUBLIC "-//W3C//DTD SVG 1.1//EN" "http://www.w3.org/Graphics/SVG/1.1/DTD/svg11.dtd">
<svg version="1.1" xmlns="http://www.w3.org/2000/svg" xmlns:xlink="http://www.w3.org/1999/xlink" x="0px" y="0px" width="210px"
	 height="70px" viewBox="0 0 210 70" enable-background="new 0 0 210 70" xml:space="preserve">
<g id="Layer_1" display="none">
	<circle display="inline" fill="#222222" cx="175" cy="35.001" r="35"/>
	<rect x="-3.659" y="-3.1" display="inline" fill="#222222" width="177.759" height="80.434"/>
</g>
<g id="Layer_2" display="none">
	<circle display="inline" fill="#222222" cx="175" cy="34.884" r="35"/>
	<rect x="-3.659" y="-3.217" display="inline" fill="#222222" width="177.759" height="80.434"/>
	<text transform="matrix(1 0 0 1 66.332 42.666)" display="inline" fill="#FFFFFF" font-family="'OpenSans'" font-size="24">features</text>
</g>
<g id="Layer_3" display="none">
	<circle display="inline" fill="#222222" cx="34.999" cy="34.783" r="35"/>
	<rect x="35.899" y="-7.55" display="inline" fill="#222222" width="177.759" height="80.434"/>
	<text transform="matrix(1 0 0 1 73.6665 41)" display="inline" fill="#FFFFFF" font-family="'OpenSans'" font-size="24">process</text>
</g>
<g id="Layer_4">
	<circle fill="#222222" cx="174.83" cy="34.884" r="35"/>
	<rect x="-3.83" y="-3.217" fill="#222222" width="177.759" height="80.434"/>
	<g>
		<path fill="#FFFFFF" d="M74.2,42.9c-0.836,0-1.6-0.154-2.291-0.463s-1.271-0.783-1.74-1.424h-0.141
			c0.094,0.75,0.141,1.461,0.141,2.133v5.285h-1.945V29.822h1.582l0.27,1.758h0.094c0.5-0.703,1.082-1.211,1.746-1.523
			s1.426-0.469,2.285-0.469c1.703,0,3.018,0.582,3.943,1.746s1.389,2.797,1.389,4.898c0,2.109-0.471,3.748-1.412,4.916
			S75.872,42.9,74.2,42.9z M73.919,31.24c-1.312,0-2.262,0.363-2.848,1.09s-0.887,1.883-0.902,3.469v0.434
			c0,1.805,0.301,3.096,0.902,3.873s1.566,1.166,2.895,1.166c1.109,0,1.979-0.449,2.607-1.348s0.943-2.137,0.943-3.715
			c0-1.602-0.314-2.83-0.943-3.686S75.06,31.24,73.919,31.24z"/>
		<path fill="#FFFFFF" d="M88.79,29.588c0.57,0,1.082,0.047,1.535,0.141l-0.27,1.805c-0.531-0.117-1-0.176-1.406-0.176
			c-1.039,0-1.928,0.422-2.666,1.266s-1.107,1.895-1.107,3.152v6.891h-1.945V29.822h1.605l0.223,2.379h0.094
			c0.477-0.836,1.051-1.48,1.723-1.934S87.985,29.588,88.79,29.588z"/>
		<path fill="#FFFFFF" d="M92.563,26.342c0-0.445,0.109-0.771,0.328-0.979s0.492-0.311,0.82-0.311c0.312,0,0.582,0.105,0.809,0.316
			s0.34,0.535,0.34,0.973s-0.113,0.764-0.34,0.979s-0.496,0.322-0.809,0.322c-0.328,0-0.602-0.107-0.82-0.322
			S92.563,26.779,92.563,26.342z M94.673,42.666h-1.945V29.822h1.945V42.666z"/>
		<path fill="#FFFFFF" d="M103.931,42.9c-1.859,0-3.299-0.572-4.318-1.717s-1.529-2.764-1.529-4.857c0-2.148,0.518-3.809,1.553-4.98
			s2.51-1.758,4.424-1.758c0.617,0,1.234,0.066,1.852,0.199s1.102,0.289,1.453,0.469l-0.598,1.652
			c-0.43-0.172-0.898-0.314-1.406-0.428s-0.957-0.17-1.348-0.17c-2.609,0-3.914,1.664-3.914,4.992c0,1.578,0.318,2.789,0.955,3.633
			s1.58,1.266,2.83,1.266c1.07,0,2.168-0.23,3.293-0.691v1.723C106.317,42.678,105.235,42.9,103.931,42.9z"/>
		<path fill="#FFFFFF" d="M110.06,26.342c0-0.445,0.109-0.771,0.328-0.979s0.492-0.311,0.82-0.311c0.312,0,0.582,0.105,0.809,0.316
			s0.34,0.535,0.34,0.973s-0.113,0.764-0.34,0.979s-0.496,0.322-0.809,0.322c-0.328,0-0.602-0.107-0.82-0.322
			S110.06,26.779,110.06,26.342z M112.169,42.666h-1.945V29.822h1.945V42.666z"/>
		<path fill="#FFFFFF" d="M125.083,42.666v-8.309c0-1.047-0.238-1.828-0.715-2.344s-1.223-0.773-2.238-0.773
			c-1.344,0-2.328,0.363-2.953,1.09s-0.938,1.926-0.938,3.598v6.738h-1.945V29.822h1.582l0.316,1.758h0.094
			c0.398-0.633,0.957-1.123,1.676-1.471s1.52-0.521,2.402-0.521c1.547,0,2.711,0.373,3.492,1.119s1.172,1.939,1.172,3.58v8.379
			H125.083z"/>
		<path fill="#FFFFFF" d="M141.536,29.822v1.23l-2.379,0.281c0.219,0.273,0.414,0.631,0.586,1.072s0.258,0.939,0.258,1.494
			c0,1.258-0.43,2.262-1.289,3.012s-2.039,1.125-3.539,1.125c-0.383,0-0.742-0.031-1.078-0.094
			c-0.828,0.438-1.242,0.988-1.242,1.652c0,0.352,0.145,0.611,0.434,0.779s0.785,0.252,1.488,0.252h2.273
			c1.391,0,2.459,0.293,3.205,0.879s1.119,1.438,1.119,2.555c0,1.422-0.57,2.506-1.711,3.252s-2.805,1.119-4.992,1.119
			c-1.68,0-2.975-0.312-3.885-0.938s-1.365-1.508-1.365-2.648c0-0.781,0.25-1.457,0.75-2.027s1.203-0.957,2.109-1.16
			c-0.328-0.148-0.604-0.379-0.826-0.691s-0.334-0.676-0.334-1.09c0-0.469,0.125-0.879,0.375-1.23s0.645-0.691,1.184-1.02
			c-0.664-0.273-1.205-0.738-1.623-1.395s-0.627-1.406-0.627-2.25c0-1.406,0.422-2.49,1.266-3.252s2.039-1.143,3.586-1.143
			c0.672,0,1.277,0.078,1.816,0.234H141.536z M131.294,44.822c0,0.695,0.293,1.223,0.879,1.582s1.426,0.539,2.52,0.539
			c1.633,0,2.842-0.244,3.627-0.732s1.178-1.15,1.178-1.986c0-0.695-0.215-1.178-0.645-1.447s-1.238-0.404-2.426-0.404h-2.332
			c-0.883,0-1.57,0.211-2.062,0.633S131.294,44.033,131.294,44.822z M132.349,33.936c0,0.898,0.254,1.578,0.762,2.039
			s1.215,0.691,2.121,0.691c1.898,0,2.848-0.922,2.848-2.766c0-1.93-0.961-2.895-2.883-2.895c-0.914,0-1.617,0.246-2.109,0.738
			S132.349,32.967,132.349,33.936z"/>
	</g>
</g>

</svg>
