<?xml version="1.0" encoding="utf-8"?>
<!-- Generator: Adobe Illustrator 15.0.0, SVG Export Plug-In . SVG Version: 6.00 Build 0)  -->
<!DOCTYPE svg PUBLIC "-//W3C//DTD SVG 1.1//EN" "http://www.w3.org/Graphics/SVG/1.1/DTD/svg11.dtd">
<svg version="1.1" xmlns="http://www.w3.org/2000/svg" xmlns:xlink="http://www.w3.org/1999/xlink" x="0px" y="0px" width="210px"
	 height="70px" viewBox="0 0 210 70" enable-background="new 0 0 210 70" xml:space="preserve">
<g id="Layer_1" display="none">
	<circle display="inline" fill="#222222" cx="175" cy="35.001" r="35"/>
	<rect x="-3.659" y="-3.1" display="inline" fill="#222222" width="177.759" height="80.434"/>
</g>
<g id="Layer_2" display="none">
	<circle display="inline" fill="#222222" cx="175" cy="34.884" r="35"/>
	<rect x="-3.659" y="-3.217" display="inline" fill="#222222" width="177.759" height="80.434"/>
	<text transform="matrix(1 0 0 1 66.332 42.666)" display="inline" fill="#FFFFFF" font-family="'OpenSans'" font-size="24">features</text>
</g>
<g id="Layer_3">
	<circle fill="#222222" cx="34.999" cy="34.783" r="35"/>
	<rect x="35.899" y="-7.55" fill="#222222" width="177.759" height="80.434"/>
	<g>
		<path fill="#FFFFFF" d="M81.706,41.234c-0.836,0-1.6-0.154-2.291-0.463s-1.271-0.783-1.74-1.424h-0.141
			c0.094,0.75,0.141,1.461,0.141,2.133v5.285h-1.945V28.156h1.582l0.27,1.758h0.094c0.5-0.703,1.082-1.211,1.746-1.523
			s1.426-0.469,2.285-0.469c1.703,0,3.018,0.582,3.944,1.746c0.926,1.164,1.389,2.797,1.389,4.898c0,2.109-0.471,3.748-1.412,4.916
			C84.684,40.65,83.377,41.234,81.706,41.234z M81.424,29.574c-1.312,0-2.262,0.363-2.848,1.09s-0.887,1.883-0.902,3.469v0.434
			c0,1.805,0.301,3.096,0.902,3.873s1.566,1.166,2.895,1.166c1.109,0,1.979-0.449,2.607-1.348s0.943-2.137,0.943-3.715
			c0-1.602-0.314-2.83-0.943-3.686S82.565,29.574,81.424,29.574z"/>
		<path fill="#FFFFFF" d="M96.296,27.922c0.57,0,1.082,0.047,1.535,0.141l-0.27,1.805c-0.531-0.117-1-0.176-1.406-0.176
			c-1.039,0-1.928,0.422-2.666,1.266s-1.107,1.895-1.107,3.152V41h-1.945V28.156h1.605l0.223,2.379h0.094
			c0.477-0.836,1.051-1.48,1.723-1.934S95.491,27.922,96.296,27.922z"/>
		<path fill="#FFFFFF" d="M111.319,34.566c0,2.094-0.527,3.729-1.582,4.904s-2.512,1.764-4.371,1.764
			c-1.148,0-2.168-0.27-3.059-0.809s-1.578-1.312-2.062-2.32s-0.727-2.188-0.727-3.539c0-2.094,0.523-3.725,1.57-4.893
			s2.5-1.752,4.359-1.752c1.797,0,3.225,0.598,4.283,1.793S111.319,32.527,111.319,34.566z M101.534,34.566
			c0,1.641,0.328,2.891,0.984,3.75s1.621,1.289,2.895,1.289s2.24-0.428,2.9-1.283s0.99-2.107,0.99-3.756
			c0-1.633-0.33-2.873-0.99-3.721s-1.635-1.271-2.924-1.271c-1.273,0-2.234,0.418-2.883,1.254S101.534,32.91,101.534,34.566z"/>
		<path fill="#FFFFFF" d="M119.862,41.234c-1.859,0-3.299-0.572-4.318-1.717s-1.529-2.764-1.529-4.857
			c0-2.148,0.518-3.809,1.553-4.98s2.51-1.758,4.424-1.758c0.617,0,1.234,0.066,1.852,0.199s1.102,0.289,1.453,0.469l-0.598,1.652
			c-0.43-0.172-0.898-0.314-1.406-0.428s-0.957-0.17-1.348-0.17c-2.609,0-3.914,1.664-3.914,4.992c0,1.578,0.318,2.789,0.955,3.633
			s1.58,1.266,2.83,1.266c1.07,0,2.168-0.23,3.293-0.691v1.723C122.249,41.012,121.167,41.234,119.862,41.234z"/>
		<path fill="#FFFFFF" d="M131.581,41.234c-1.898,0-3.396-0.578-4.494-1.734s-1.646-2.762-1.646-4.816
			c0-2.07,0.51-3.715,1.529-4.934s2.389-1.828,4.107-1.828c1.609,0,2.883,0.529,3.82,1.588s1.406,2.455,1.406,4.189v1.23h-8.848
			c0.039,1.508,0.42,2.652,1.143,3.434s1.74,1.172,3.053,1.172c1.383,0,2.75-0.289,4.102-0.867v1.734
			c-0.688,0.297-1.338,0.51-1.951,0.639S132.448,41.234,131.581,41.234z M131.054,29.551c-1.031,0-1.854,0.336-2.467,1.008
			s-0.975,1.602-1.084,2.789h6.715c0-1.227-0.273-2.166-0.82-2.818S132.069,29.551,131.054,29.551z"/>
		<path fill="#FFFFFF" d="M147.905,37.496c0,1.195-0.445,2.117-1.336,2.766s-2.141,0.973-3.75,0.973
			c-1.703,0-3.031-0.27-3.984-0.809v-1.805c0.617,0.312,1.279,0.559,1.986,0.738s1.389,0.27,2.045,0.27
			c1.016,0,1.797-0.162,2.344-0.486s0.82-0.818,0.82-1.482c0-0.5-0.217-0.928-0.65-1.283s-1.279-0.775-2.537-1.26
			c-1.195-0.445-2.045-0.834-2.549-1.166s-0.879-0.709-1.125-1.131s-0.369-0.926-0.369-1.512c0-1.047,0.426-1.873,1.277-2.479
			s2.02-0.908,3.504-0.908c1.383,0,2.734,0.281,4.055,0.844l-0.691,1.582c-1.289-0.531-2.457-0.797-3.504-0.797
			c-0.922,0-1.617,0.145-2.086,0.434s-0.703,0.688-0.703,1.195c0,0.344,0.088,0.637,0.264,0.879s0.459,0.473,0.85,0.691
			s1.141,0.535,2.25,0.949c1.523,0.555,2.553,1.113,3.088,1.676S147.905,36.645,147.905,37.496z"/>
		<path fill="#FFFFFF" d="M159.354,37.496c0,1.195-0.445,2.117-1.336,2.766s-2.141,0.973-3.75,0.973
			c-1.703,0-3.031-0.27-3.984-0.809v-1.805c0.617,0.312,1.279,0.559,1.986,0.738s1.389,0.27,2.045,0.27
			c1.016,0,1.797-0.162,2.344-0.486s0.82-0.818,0.82-1.482c0-0.5-0.217-0.928-0.65-1.283s-1.279-0.775-2.537-1.26
			c-1.195-0.445-2.045-0.834-2.549-1.166s-0.879-0.709-1.125-1.131s-0.369-0.926-0.369-1.512c0-1.047,0.426-1.873,1.277-2.479
			s2.02-0.908,3.504-0.908c1.383,0,2.734,0.281,4.055,0.844l-0.691,1.582c-1.289-0.531-2.457-0.797-3.504-0.797
			c-0.922,0-1.617,0.145-2.086,0.434s-0.703,0.688-0.703,1.195c0,0.344,0.088,0.637,0.264,0.879s0.459,0.473,0.85,0.691
			s1.141,0.535,2.25,0.949c1.523,0.555,2.553,1.113,3.088,1.676S159.354,36.645,159.354,37.496z"/>
	</g>
</g>

</svg>
