<?xml version="1.0" encoding="utf-8"?>
<!-- Generator: Adobe Illustrator 15.0.0, SVG Export Plug-In . SVG Version: 6.00 Build 0)  -->
<!DOCTYPE svg PUBLIC "-//W3C//DTD SVG 1.1//EN" "http://www.w3.org/Graphics/SVG/1.1/DTD/svg11.dtd">
<svg version="1.1" xmlns="http://www.w3.org/2000/svg" xmlns:xlink="http://www.w3.org/1999/xlink" x="0px" y="0px" width="210px"
	 height="70px" viewBox="0 0 210 70" enable-background="new 0 0 210 70" xml:space="preserve">
<g id="Layer_1" display="none">
	<circle display="inline" fill="#222222" cx="175" cy="35.001" r="35"/>
	<rect x="-3.659" y="-3.1" display="inline" fill="#222222" width="177.759" height="80.434"/>
</g>
<g id="Layer_2" display="none">
	<circle display="inline" fill="#222222" cx="175" cy="34.884" r="35"/>
	<rect x="-3.659" y="-3.217" display="inline" fill="#222222" width="177.759" height="80.434"/>
	<text transform="matrix(1 0 0 1 66.332 42.666)" display="inline" fill="#FFFFFF" font-family="'OpenSans'" font-size="24">features</text>
</g>
<g id="Layer_3" display="none">
	<circle display="inline" fill="#222222" cx="34.999" cy="34.783" r="35"/>
	<rect x="35.899" y="-7.55" display="inline" fill="#222222" width="177.759" height="80.434"/>
	<text transform="matrix(1 0 0 1 73.6665 41)" display="inline" fill="#FFFFFF" font-family="'OpenSans'" font-size="24">process</text>
</g>
<g id="Layer_4" display="none">
	<circle display="inline" fill="#222222" cx="174.83" cy="34.884" r="35"/>
	<rect x="-3.83" y="-3.217" display="inline" fill="#222222" width="177.759" height="80.434"/>
	<text transform="matrix(1 0 0 1 66.1611 42.666)" display="inline" fill="#FFFFFF" font-family="'OpenSans'" font-size="24">pricing</text>
</g>
<g id="Layer_5" display="none">
	<circle display="inline" fill="#222222" cx="35.333" cy="34.633" r="35"/>
	<rect x="36.232" y="-7.7" display="inline" fill="#222222" width="177.76" height="80.435"/>
	<text transform="matrix(1 0 0 1 28 40.8496)" display="inline" fill="#FFFFFF" font-family="'OpenSans'" font-size="24">getting started</text>
</g>
<g id="Layer_6">
	<circle fill="#222222" cx="175" cy="34.967" r="35"/>
	<rect x="-3.659" y="-3.134" fill="#222222" width="177.759" height="80.435"/>
	<g>
		<path fill="#FFFFFF" d="M56.286,41.317c-1.656,0-2.949-0.582-3.879-1.746s-1.395-2.789-1.395-4.875
			c0-2.102,0.469-3.742,1.406-4.922s2.242-1.77,3.914-1.77c1.758,0,3.109,0.664,4.055,1.992h0.105l0.281-1.758h1.535v18.609h-1.945
			v-5.496c0-0.781,0.043-1.445,0.129-1.992h-0.152C59.442,40.665,58.091,41.317,56.286,41.317z M56.579,39.688
			c1.297,0,2.242-0.348,2.836-1.043s0.91-1.867,0.949-3.516v-0.434c0-1.797-0.305-3.09-0.914-3.879s-1.574-1.184-2.895-1.184
			c-1.141,0-2.014,0.443-2.619,1.33s-0.908,2.139-0.908,3.756s0.299,2.85,0.896,3.697S55.407,39.688,56.579,39.688z"/>
		<path fill="#FFFFFF" d="M68.263,28.239v8.332c0,1.047,0.238,1.828,0.715,2.344s1.223,0.773,2.238,0.773
			c1.344,0,2.326-0.367,2.947-1.102s0.932-1.934,0.932-3.598v-6.75h1.945v12.844h-1.605l-0.281-1.723h-0.105
			c-0.398,0.633-0.951,1.117-1.658,1.453s-1.514,0.504-2.42,0.504c-1.562,0-2.732-0.371-3.51-1.113s-1.166-1.93-1.166-3.562v-8.402
			H68.263z"/>
		<path fill="#FFFFFF" d="M86.591,41.317c-1.898,0-3.396-0.578-4.494-1.734s-1.646-2.762-1.646-4.816c0-2.07,0.51-3.715,1.529-4.934
			s2.389-1.828,4.107-1.828c1.609,0,2.883,0.529,3.82,1.588s1.406,2.455,1.406,4.189v1.23h-8.848
			c0.039,1.508,0.42,2.652,1.143,3.434s1.74,1.172,3.053,1.172c1.383,0,2.75-0.289,4.102-0.867v1.734
			c-0.688,0.297-1.338,0.51-1.951,0.639S87.458,41.317,86.591,41.317z M86.063,29.634c-1.031,0-1.854,0.336-2.467,1.008
			s-0.975,1.602-1.084,2.789h6.715c0-1.227-0.273-2.166-0.82-2.818S87.079,29.634,86.063,29.634z"/>
		<path fill="#FFFFFF" d="M102.915,37.579c0,1.195-0.445,2.117-1.336,2.766s-2.141,0.973-3.75,0.973
			c-1.703,0-3.031-0.27-3.984-0.809v-1.805c0.617,0.312,1.279,0.559,1.986,0.738s1.389,0.27,2.045,0.27
			c1.016,0,1.797-0.162,2.344-0.486s0.82-0.818,0.82-1.482c0-0.5-0.217-0.928-0.65-1.283s-1.279-0.775-2.537-1.26
			c-1.195-0.445-2.045-0.834-2.549-1.166s-0.879-0.709-1.125-1.131s-0.369-0.926-0.369-1.512c0-1.047,0.426-1.873,1.277-2.479
			s2.02-0.908,3.504-0.908c1.383,0,2.734,0.281,4.055,0.844l-0.691,1.582c-1.289-0.531-2.457-0.797-3.504-0.797
			c-0.922,0-1.617,0.145-2.086,0.434s-0.703,0.688-0.703,1.195c0,0.344,0.088,0.637,0.264,0.879s0.459,0.473,0.85,0.691
			s1.141,0.535,2.25,0.949c1.523,0.555,2.553,1.113,3.088,1.676S102.915,36.728,102.915,37.579z"/>
		<path fill="#FFFFFF" d="M110.228,39.712c0.344,0,0.676-0.025,0.996-0.076s0.574-0.104,0.762-0.158v1.488
			c-0.211,0.102-0.521,0.186-0.932,0.252s-0.779,0.1-1.107,0.1c-2.484,0-3.727-1.309-3.727-3.926v-7.641h-1.84v-0.938l1.84-0.809
			l0.82-2.742h1.125v2.977h3.727v1.512h-3.727v7.559c0,0.773,0.184,1.367,0.551,1.781S109.587,39.712,110.228,39.712z"/>
		<path fill="#FFFFFF" d="M114.388,24.759c0-0.445,0.109-0.771,0.328-0.979s0.492-0.311,0.82-0.311c0.312,0,0.582,0.105,0.809,0.316
			s0.34,0.535,0.34,0.973s-0.113,0.764-0.34,0.979s-0.496,0.322-0.809,0.322c-0.328,0-0.602-0.107-0.82-0.322
			S114.388,25.196,114.388,24.759z M116.497,41.083h-1.945V28.239h1.945V41.083z"/>
		<path fill="#FFFFFF" d="M131.708,34.649c0,2.094-0.527,3.729-1.582,4.904s-2.512,1.764-4.371,1.764
			c-1.148,0-2.168-0.27-3.059-0.809s-1.578-1.312-2.062-2.32s-0.727-2.188-0.727-3.539c0-2.094,0.523-3.725,1.57-4.893
			s2.5-1.752,4.359-1.752c1.797,0,3.225,0.598,4.283,1.793S131.708,32.61,131.708,34.649z M121.923,34.649
			c0,1.641,0.328,2.891,0.984,3.75s1.621,1.289,2.895,1.289s2.24-0.428,2.9-1.283s0.99-2.107,0.99-3.756
			c0-1.633-0.33-2.873-0.99-3.721s-1.635-1.271-2.924-1.271c-1.273,0-2.234,0.418-2.883,1.254S121.923,32.993,121.923,34.649z"/>
		<path fill="#FFFFFF" d="M143.907,41.083v-8.309c0-1.047-0.238-1.828-0.715-2.344s-1.223-0.773-2.238-0.773
			c-1.344,0-2.328,0.363-2.953,1.09s-0.938,1.926-0.938,3.598v6.738h-1.945V28.239h1.582l0.316,1.758h0.094
			c0.398-0.633,0.957-1.123,1.676-1.471s1.52-0.521,2.402-0.521c1.547,0,2.711,0.373,3.492,1.119s1.172,1.939,1.172,3.58v8.379
			H143.907z"/>
		<path fill="#FFFFFF" d="M158.134,37.579c0,1.195-0.445,2.117-1.336,2.766s-2.141,0.973-3.75,0.973
			c-1.703,0-3.031-0.27-3.984-0.809v-1.805c0.617,0.312,1.279,0.559,1.986,0.738s1.389,0.27,2.045,0.27
			c1.016,0,1.797-0.162,2.344-0.486s0.82-0.818,0.82-1.482c0-0.5-0.217-0.928-0.65-1.283s-1.279-0.775-2.537-1.26
			c-1.195-0.445-2.045-0.834-2.549-1.166s-0.879-0.709-1.125-1.131s-0.369-0.926-0.369-1.512c0-1.047,0.426-1.873,1.277-2.479
			s2.02-0.908,3.504-0.908c1.383,0,2.734,0.281,4.055,0.844l-0.691,1.582c-1.289-0.531-2.457-0.797-3.504-0.797
			c-0.922,0-1.617,0.145-2.086,0.434s-0.703,0.688-0.703,1.195c0,0.344,0.088,0.637,0.264,0.879s0.459,0.473,0.85,0.691
			s1.141,0.535,2.25,0.949c1.523,0.555,2.553,1.113,3.088,1.676S158.134,36.728,158.134,37.579z"/>
	</g>
</g>

</svg>
