<?xml version="1.0" encoding="utf-8"?>
<!-- Generator: Adobe Illustrator 15.0.0, SVG Export Plug-In . SVG Version: 6.00 Build 0)  -->
<!DOCTYPE svg PUBLIC "-//W3C//DTD SVG 1.1//EN" "http://www.w3.org/Graphics/SVG/1.1/DTD/svg11.dtd">
<svg version="1.1" xmlns="http://www.w3.org/2000/svg" xmlns:xlink="http://www.w3.org/1999/xlink" x="0px" y="0px" width="210px"
	 height="70px" viewBox="0 0 210 70" enable-background="new 0 0 210 70" xml:space="preserve">
<g id="Layer_1" display="none">
	<circle display="inline" fill="#222222" cx="175" cy="35.001" r="35"/>
	<rect x="-3.659" y="-3.1" display="inline" fill="#222222" width="177.759" height="80.434"/>
</g>

<g id="Layer_9">
	<circle fill="#222222" cx="175.021" cy="34.983" r="35"/>
	<rect x="-3.638" y="-3.118" fill="#222222" width="177.759" height="80.434"/>
	<g>
		<path fill="#FFFFFF" d="M39.023,37.108c0,1.508-0.547,2.684-1.641,3.527s-2.578,1.266-4.453,1.266
			c-2.031,0-3.594-0.262-4.688-0.785v-1.922c0.703,0.297,1.469,0.531,2.297,0.703s1.648,0.258,2.461,0.258
			c1.328,0,2.328-0.252,3-0.756s1.008-1.205,1.008-2.104c0-0.594-0.119-1.08-0.357-1.459s-0.637-0.729-1.195-1.049
			s-1.408-0.684-2.549-1.09c-1.594-0.57-2.732-1.246-3.416-2.027s-1.025-1.801-1.025-3.059c0-1.32,0.496-2.371,1.488-3.152
			s2.305-1.172,3.938-1.172c1.703,0,3.27,0.312,4.699,0.938l-0.621,1.734c-1.414-0.594-2.789-0.891-4.125-0.891
			c-1.055,0-1.879,0.227-2.473,0.68s-0.891,1.082-0.891,1.887c0,0.594,0.109,1.08,0.328,1.459s0.588,0.727,1.107,1.043
			s1.314,0.666,2.385,1.049c1.797,0.641,3.033,1.328,3.709,2.062S39.023,35.937,39.023,37.108z"/>
		<path fill="#FFFFFF" d="M53.32,35.233c0,2.094-0.527,3.729-1.582,4.904s-2.512,1.764-4.371,1.764c-1.148,0-2.168-0.27-3.059-0.809
			s-1.578-1.312-2.062-2.32s-0.727-2.188-0.727-3.539c0-2.094,0.523-3.725,1.57-4.893s2.5-1.752,4.359-1.752
			c1.797,0,3.225,0.598,4.283,1.793S53.32,33.194,53.32,35.233z M43.535,35.233c0,1.641,0.328,2.891,0.984,3.75
			s1.621,1.289,2.895,1.289s2.24-0.428,2.9-1.283s0.99-2.107,0.99-3.756c0-1.633-0.33-2.873-0.99-3.721s-1.635-1.271-2.924-1.271
			c-1.273,0-2.234,0.418-2.883,1.254S43.535,33.577,43.535,35.233z"/>
		<path fill="#FFFFFF" d="M61.863,41.901c-1.859,0-3.299-0.572-4.318-1.717s-1.529-2.764-1.529-4.857
			c0-2.148,0.518-3.809,1.553-4.98s2.51-1.758,4.424-1.758c0.617,0,1.234,0.066,1.852,0.199s1.102,0.289,1.453,0.469l-0.598,1.652
			c-0.43-0.172-0.898-0.314-1.406-0.428s-0.957-0.17-1.348-0.17c-2.609,0-3.914,1.664-3.914,4.992c0,1.578,0.318,2.789,0.955,3.633
			s1.58,1.266,2.83,1.266c1.07,0,2.168-0.23,3.293-0.691v1.723C64.25,41.679,63.168,41.901,61.863,41.901z"/>
		<path fill="#FFFFFF" d="M70.078,35.093c0.336-0.477,0.848-1.102,1.535-1.875l4.148-4.395h2.309l-5.203,5.473l5.566,7.371h-2.355
			l-4.535-6.07l-1.465,1.266v4.805h-1.922V23.433h1.922v9.668c0,0.43-0.031,1.094-0.094,1.992H70.078z"/>
		<path fill="#FFFFFF" d="M86.18,41.901c-1.898,0-3.396-0.578-4.494-1.734s-1.646-2.762-1.646-4.816c0-2.07,0.51-3.715,1.529-4.934
			s2.389-1.828,4.107-1.828c1.609,0,2.883,0.529,3.82,1.588s1.406,2.455,1.406,4.189v1.23h-8.848
			c0.039,1.508,0.42,2.652,1.143,3.434s1.74,1.172,3.053,1.172c1.383,0,2.75-0.289,4.102-0.867v1.734
			c-0.688,0.297-1.338,0.51-1.951,0.639S87.047,41.901,86.18,41.901z M85.652,30.218c-1.031,0-1.854,0.336-2.467,1.008
			s-0.975,1.602-1.084,2.789h6.715c0-1.227-0.273-2.166-0.82-2.818S86.668,30.218,85.652,30.218z"/>
		<path fill="#FFFFFF" d="M98.367,40.296c0.344,0,0.676-0.025,0.996-0.076s0.574-0.104,0.762-0.158v1.488
			c-0.211,0.102-0.521,0.186-0.932,0.252s-0.779,0.1-1.107,0.1c-2.484,0-3.727-1.309-3.727-3.926v-7.641h-1.84v-0.938l1.84-0.809
			l0.82-2.742h1.125v2.977h3.727v1.512h-3.727v7.559c0,0.773,0.184,1.367,0.551,1.781S97.727,40.296,98.367,40.296z"/>
		<path fill="#FFFFFF" d="M116.801,41.667l-5.812-15.188h-0.094c0.109,1.203,0.164,2.633,0.164,4.289v10.898h-1.84V24.534h3
			l5.426,14.133h0.094l5.473-14.133h2.977v17.133h-1.992V30.628c0-1.266,0.055-2.641,0.164-4.125h-0.094l-5.859,15.164H116.801z"/>
		<path fill="#FFFFFF" d="M141.68,35.233c0,2.094-0.527,3.729-1.582,4.904s-2.512,1.764-4.371,1.764
			c-1.148,0-2.168-0.27-3.059-0.809s-1.578-1.312-2.062-2.32s-0.727-2.188-0.727-3.539c0-2.094,0.523-3.725,1.57-4.893
			s2.5-1.752,4.359-1.752c1.797,0,3.225,0.598,4.283,1.793S141.68,33.194,141.68,35.233z M131.895,35.233
			c0,1.641,0.328,2.891,0.984,3.75s1.621,1.289,2.895,1.289s2.24-0.428,2.9-1.283s0.99-2.107,0.99-3.756
			c0-1.633-0.33-2.873-0.99-3.721s-1.635-1.271-2.924-1.271c-1.273,0-2.234,0.418-2.883,1.254S131.895,33.577,131.895,35.233z"/>
		<path fill="#FFFFFF" d="M151.066,28.612c1.688,0,2.998,0.576,3.932,1.729s1.4,2.783,1.4,4.893s-0.471,3.748-1.412,4.916
			s-2.248,1.752-3.92,1.752c-0.836,0-1.6-0.154-2.291-0.463s-1.271-0.783-1.74-1.424h-0.141l-0.41,1.652h-1.395V23.433h1.945v4.43
			c0,0.992-0.031,1.883-0.094,2.672h0.094C147.941,29.253,149.285,28.612,151.066,28.612z M150.785,30.241
			c-1.328,0-2.285,0.381-2.871,1.143s-0.879,2.045-0.879,3.85s0.301,3.096,0.902,3.873s1.566,1.166,2.895,1.166
			c1.195,0,2.086-0.436,2.672-1.307s0.879-2.123,0.879-3.756c0-1.672-0.293-2.918-0.879-3.738S152.012,30.241,150.785,30.241z"/>
		<path fill="#FFFFFF" d="M159.633,25.343c0-0.445,0.109-0.771,0.328-0.979s0.492-0.311,0.82-0.311c0.312,0,0.582,0.105,0.809,0.316
			s0.34,0.535,0.34,0.973s-0.113,0.764-0.34,0.979s-0.496,0.322-0.809,0.322c-0.328,0-0.602-0.107-0.82-0.322
			S159.633,25.78,159.633,25.343z M161.742,41.667h-1.945V28.823h1.945V41.667z"/>
		<path fill="#FFFFFF" d="M167.812,41.667h-1.945V23.433h1.945V41.667z"/>
		<path fill="#FFFFFF" d="M177.363,41.901c-1.898,0-3.396-0.578-4.494-1.734s-1.646-2.762-1.646-4.816
			c0-2.07,0.51-3.715,1.529-4.934s2.389-1.828,4.107-1.828c1.609,0,2.883,0.529,3.82,1.588s1.406,2.455,1.406,4.189v1.23h-8.848
			c0.039,1.508,0.42,2.652,1.143,3.434s1.74,1.172,3.053,1.172c1.383,0,2.75-0.289,4.102-0.867v1.734
			c-0.688,0.297-1.338,0.51-1.951,0.639S178.23,41.901,177.363,41.901z M176.836,30.218c-1.031,0-1.854,0.336-2.467,1.008
			s-0.975,1.602-1.084,2.789H180c0-1.227-0.273-2.166-0.82-2.818S177.852,30.218,176.836,30.218z"/>
	</g>
</g>

</svg>
