<?xml version="1.0" encoding="utf-8"?>
<!-- Generator: Adobe Illustrator 15.0.0, SVG Export Plug-In . SVG Version: 6.00 Build 0)  -->
<!DOCTYPE svg PUBLIC "-//W3C//DTD SVG 1.1//EN" "http://www.w3.org/Graphics/SVG/1.1/DTD/svg11.dtd">
<svg version="1.1" id="Layer_1" xmlns="http://www.w3.org/2000/svg" xmlns:xlink="http://www.w3.org/1999/xlink" x="0px" y="0px"
	 width="259.667px" height="70px" viewBox="-49.667 0 259.667 70" enable-background="new -49.667 0 259.667 70"
	 xml:space="preserve">
<circle fill="#222222" cx="-14.667" cy="34.633" r="35"/>
<rect x="-16" y="-7.7" fill="#222222" width="229.992" height="80.435"/>
<g>
	<path fill="#FFFFFF" d="M31.339-29.06c0-0.445,0.109-0.771,0.328-0.979c0.219-0.208,0.492-0.311,0.82-0.311
		c0.312,0,0.582,0.105,0.809,0.316c0.227,0.211,0.34,0.535,0.34,0.973s-0.113,0.764-0.34,0.979S32.8-27.76,32.487-27.76
		c-0.328,0-0.602-0.107-0.82-0.322C31.449-28.297,31.339-28.623,31.339-29.06z M33.449-12.736h-1.945V-25.58h1.945V-12.736z"/>
	<path fill="#FFFFFF" d="M48.731-24.877c0,1.734-0.592,3.068-1.775,4.002s-2.877,1.4-5.08,1.4H39.86v6.739h-1.992v-17.133h4.442
		C46.59-29.869,48.731-28.205,48.731-24.877z M39.859-21.185h1.793c1.766,0,3.043-0.285,3.832-0.855
		c0.789-0.57,1.184-1.484,1.184-2.742c0-1.133-0.371-1.977-1.113-2.531c-0.742-0.554-1.898-0.832-3.469-0.832h-2.227V-21.185z"/>
	<path fill="#FFFFFF" d="M59.922-12.736l-0.387-1.828h-0.094c-0.641,0.806-1.279,1.351-1.916,1.636
		c-0.637,0.284-1.432,0.428-2.385,0.428c-1.273,0-2.271-0.328-2.994-0.983c-0.723-0.656-1.084-1.591-1.084-2.802
		c0-2.593,2.074-3.953,6.223-4.078l2.18-0.07v-0.797c0-1.008-0.217-1.752-0.65-2.232s-1.127-0.721-2.08-0.721
		c-1.07,0-2.281,0.328-3.633,0.984l-0.598-1.488c0.633-0.344,1.326-0.613,2.08-0.809c0.754-0.196,1.51-0.293,2.268-0.293
		c1.531,0,2.666,0.34,3.404,1.02c0.738,0.68,1.107,1.77,1.107,3.27v8.766h-1.441V-12.736z M55.527-14.107
		c1.211,0,2.162-0.332,2.854-0.996s1.037-1.594,1.037-2.789v-1.159l-1.945,0.082c-1.547,0.055-2.662,0.295-3.346,0.72
		c-0.684,0.426-1.025,1.088-1.025,1.986c0,0.703,0.213,1.238,0.639,1.604C54.167-14.292,54.762-14.107,55.527-14.107z"/>
	<path fill="#FFFFFF" d="M74.113-14.459h-0.105c-0.898,1.305-2.242,1.957-4.031,1.957c-1.68,0-2.986-0.574-3.92-1.723
		c-0.934-1.149-1.4-2.781-1.4-4.898c0-2.117,0.469-3.762,1.406-4.934c0.937-1.172,2.242-1.758,3.914-1.758
		c1.742,0,3.078,0.633,4.008,1.898h0.152l-0.082-0.926l-0.047-0.902v-5.227h1.945v18.235h-1.582L74.113-14.459z M70.224-14.131
		c1.328,0,2.291-0.361,2.889-1.084c0.598-0.723,0.896-1.889,0.896-3.498v-0.41c0-1.82-0.303-3.119-0.908-3.896
		s-1.572-1.166-2.9-1.166c-1.141,0-2.014,0.443-2.619,1.33s-0.908,2.139-0.908,3.756c0,1.64,0.301,2.878,0.902,3.714
		C68.176-14.549,69.06-14.131,70.224-14.131z"/>
	<path fill="#FFFFFF" d="M96.274-17.295c0,1.508-0.547,2.684-1.641,3.527c-1.094,0.843-2.578,1.266-4.453,1.266
		c-2.031,0-3.594-0.262-4.688-0.785v-1.922c0.703,0.297,1.469,0.531,2.297,0.703c0.828,0.172,1.648,0.258,2.461,0.258
		c1.328,0,2.328-0.252,3-0.756s1.008-1.205,1.008-2.104c0-0.595-0.119-1.08-0.357-1.459s-0.637-0.729-1.195-1.048
		c-0.558-0.32-1.408-0.684-2.549-1.09c-1.594-0.57-2.732-1.246-3.416-2.027c-0.684-0.781-1.025-1.801-1.025-3.059
		c0-1.32,0.496-2.371,1.488-3.152c0.992-0.781,2.305-1.172,3.938-1.172c1.703,0,3.27,0.312,4.699,0.938l-0.621,1.734
		c-1.414-0.594-2.789-0.891-4.125-0.891c-1.055,0-1.879,0.227-2.473,0.68c-0.594,0.453-0.891,1.082-0.891,1.887
		c0,0.594,0.109,1.08,0.328,1.459c0.219,0.379,0.588,0.727,1.107,1.043s1.314,0.666,2.385,1.049
		c1.797,0.641,3.033,1.328,3.709,2.062C95.937-19.42,96.274-18.467,96.274-17.295z"/>
	<path fill="#FFFFFF" d="M104.617-12.502c-1.859,0-3.299-0.572-4.318-1.717c-1.019-1.145-1.528-2.764-1.528-4.857
		c0-2.148,0.519-3.809,1.552-4.979c1.035-1.172,2.51-1.758,4.424-1.758c0.617,0,1.234,0.066,1.853,0.199
		c0.618,0.133,1.102,0.289,1.452,0.469l-0.598,1.652c-0.43-0.172-0.898-0.314-1.406-0.428c-0.508-0.114-0.957-0.17-1.348-0.17
		c-2.609,0-3.914,1.664-3.914,4.992c0,1.579,0.318,2.79,0.955,3.632s1.58,1.266,2.83,1.266c1.07,0,2.168-0.229,3.293-0.69v1.723
		C107.004-12.725,105.922-12.502,104.617-12.502z"/>
	<path fill="#FFFFFF" d="M118.809-12.736l-0.387-1.828h-0.094c-0.642,0.806-1.279,1.351-1.916,1.636
		c-0.638,0.284-1.433,0.428-2.386,0.428c-1.272,0-2.271-0.328-2.994-0.983c-0.723-0.656-1.084-1.591-1.084-2.802
		c0-2.593,2.074-3.953,6.224-4.078l2.18-0.07v-0.797c0-1.008-0.217-1.752-0.65-2.232c-0.433-0.48-1.127-0.721-2.08-0.721
		c-1.07,0-2.281,0.328-3.633,0.984l-0.598-1.488c0.633-0.344,1.326-0.613,2.08-0.809c0.754-0.196,1.51-0.293,2.268-0.293
		c1.531,0,2.666,0.34,3.404,1.02s1.107,1.77,1.107,3.27v8.766h-1.441V-12.736z M114.414-14.107c1.211,0,2.162-0.332,2.854-0.996
		s1.036-1.594,1.036-2.789v-1.159l-1.944,0.082c-1.547,0.055-2.662,0.295-3.346,0.72c-0.685,0.426-1.025,1.088-1.025,1.986
		c0,0.703,0.214,1.238,0.64,1.604C113.055-14.292,113.648-14.107,114.414-14.107z"/>
	<path fill="#FFFFFF" d="M133.047-12.736v-8.308c0-1.047-0.238-1.828-0.715-2.344c-0.478-0.516-1.224-0.773-2.238-0.773
		c-1.344,0-2.328,0.363-2.953,1.09s-0.938,1.926-0.938,3.598v6.739h-1.944V-25.58h1.582l0.315,1.758h0.095
		c0.397-0.633,0.957-1.123,1.676-1.471s1.52-0.521,2.401-0.521c1.548,0,2.712,0.373,3.492,1.119c0.781,0.746,1.172,1.939,1.172,3.58
		v8.378H133.047L133.047-12.736z"/>
	<path fill="#FFFFFF" d="M147.777-12.736v-8.308c0-1.047-0.238-1.828-0.715-2.344c-0.477-0.516-1.223-0.773-2.238-0.773
		c-1.344,0-2.328,0.363-2.953,1.09s-0.938,1.926-0.938,3.598v6.739h-1.945V-25.58h1.582l0.316,1.758h0.094
		c0.398-0.633,0.957-1.123,1.676-1.471s1.52-0.521,2.402-0.521c1.547,0,2.711,0.373,3.492,1.119s1.172,1.939,1.172,3.58v8.378
		H147.777L147.777-12.736z"/>
	<path fill="#FFFFFF" d="M159.145-12.502c-1.898,0-3.396-0.578-4.494-1.734s-1.646-2.762-1.646-4.815
		c0-2.07,0.511-3.715,1.529-4.934c1.02-1.219,2.389-1.828,4.107-1.828c1.609,0,2.883,0.529,3.82,1.588
		c0.937,1.059,1.405,2.455,1.405,4.189v1.23h-8.848c0.039,1.507,0.42,2.652,1.144,3.433c0.723,0.781,1.739,1.172,3.053,1.172
		c1.383,0,2.75-0.289,4.102-0.866v1.733c-0.688,0.297-1.338,0.51-1.951,0.64C160.752-12.566,160.012-12.502,159.145-12.502z
		 M158.617-24.185c-1.031,0-1.854,0.336-2.467,1.008c-0.613,0.672-0.975,1.602-1.084,2.789h6.715c0-1.227-0.273-2.166-0.82-2.818
		C160.414-23.858,159.633-24.185,158.617-24.185z"/>
	<path fill="#FFFFFF" d="M173.043-25.814c0.57,0,1.082,0.047,1.535,0.141l-0.27,1.805c-0.531-0.117-1-0.176-1.406-0.176
		c-1.039,0-1.928,0.422-2.666,1.266c-0.738,0.844-1.107,1.895-1.107,3.152v6.89h-1.944V-25.58h1.604l0.223,2.379h0.095
		c0.478-0.836,1.051-1.479,1.724-1.934C171.502-25.589,172.238-25.814,173.043-25.814z"/>
	<path fill="#FFFFFF" d="M185.266-16.24c0,1.195-0.445,2.117-1.336,2.766c-0.891,0.649-2.141,0.974-3.75,0.974
		c-1.703,0-3.031-0.271-3.984-0.81v-1.805c0.617,0.312,1.279,0.56,1.986,0.738c0.707,0.18,1.389,0.27,2.045,0.27
		c1.016,0,1.797-0.162,2.344-0.485c0.547-0.324,0.82-0.818,0.82-1.482c0-0.5-0.217-0.928-0.65-1.282
		c-0.433-0.355-1.279-0.775-2.537-1.26c-1.195-0.445-2.045-0.834-2.549-1.166c-0.504-0.332-0.879-0.709-1.125-1.131
		s-0.369-0.926-0.369-1.512c0-1.047,0.426-1.873,1.277-2.479s2.02-0.908,3.504-0.908c1.383,0,2.734,0.281,4.055,0.844l-0.691,1.582
		c-1.288-0.531-2.456-0.797-3.504-0.797c-0.922,0-1.616,0.145-2.086,0.434c-0.469,0.289-0.703,0.688-0.703,1.195
		c0,0.344,0.089,0.637,0.265,0.879c0.177,0.242,0.459,0.473,0.851,0.691c0.391,0.218,1.141,0.535,2.25,0.949
		c1.522,0.555,2.553,1.113,3.088,1.675C184.998-17.799,185.266-17.092,185.266-16.24z"/>
</g>
<g id="Layer_6" display="none">
	<circle display="inline" fill="#222222" cx="175" cy="34.967" r="35"/>
	<rect x="-3.659" y="-3.134" display="inline" fill="#222222" width="177.759" height="80.435"/>
	<g display="inline">
		<path fill="#FFFFFF" d="M46.373,25.444c0-0.557,0.137-0.964,0.41-1.223c0.273-0.259,0.615-0.388,1.025-0.388
			c0.391,0,0.728,0.132,1.011,0.396c0.283,0.264,0.425,0.669,0.425,1.216c0,0.547-0.142,0.955-0.425,1.223
			c-0.283,0.268-0.62,0.403-1.011,0.403c-0.41,0-0.752-0.134-1.025-0.403C46.51,26.399,46.373,25.991,46.373,25.444z M49.009,45.85
			h-2.432V29.794h2.432V45.85z"/>
		<path fill="#FFFFFF" d="M68.111,30.673c0,2.168-0.74,3.835-2.219,5.002c-1.48,1.167-3.598,1.75-6.352,1.75h-2.52v8.425h-2.49
			V24.433h5.552C65.436,24.433,68.111,26.513,68.111,30.673z M57.021,35.288h2.242c2.207,0,3.803-0.356,4.789-1.069
			c0.986-0.713,1.48-1.854,1.48-3.428c0-1.416-0.465-2.471-1.393-3.164c-0.928-0.693-2.373-1.04-4.336-1.04H57.02L57.021,35.288
			L57.021,35.288z"/>
		<path fill="#FFFFFF" d="M82.1,45.85l-0.483-2.285H81.5c-0.801,1.006-1.6,1.688-2.396,2.043c-0.796,0.356-1.789,0.535-2.98,0.535
			c-1.592,0-2.84-0.41-3.742-1.229c-0.904-0.82-1.355-1.988-1.355-3.502c0-3.242,2.593-4.941,7.778-5.099l2.725-0.088v-0.996
			c0-1.26-0.271-2.19-0.813-2.791c-0.541-0.601-1.408-0.901-2.6-0.901c-1.338,0-2.852,0.41-4.541,1.23l-0.747-1.86
			c0.791-0.43,1.657-0.767,2.601-1.011c0.941-0.244,1.887-0.366,2.834-0.366c1.914,0,3.332,0.425,4.256,1.274
			c0.922,0.85,1.384,2.212,1.384,4.087V45.85H82.1z M76.606,44.135c1.514,0,2.702-0.414,3.567-1.244
			c0.863-0.83,1.296-1.992,1.296-3.485v-1.451l-2.432,0.104c-1.934,0.067-3.328,0.367-4.183,0.899s-1.281,1.358-1.281,2.481
			c0,0.879,0.266,1.55,0.799,2.009C74.904,43.906,75.649,44.135,76.606,44.135z"/>
		<path fill="#FFFFFF" d="M99.84,43.695h-0.132c-1.123,1.631-2.803,2.447-5.039,2.447c-2.1,0-3.733-0.72-4.899-2.154
			c-1.168-1.437-1.751-3.478-1.751-6.123c0-2.646,0.586-4.702,1.758-6.167c1.172-1.465,2.803-2.197,4.893-2.197
			c2.178,0,3.848,0.791,5.01,2.373h0.19l-0.103-1.157l-0.059-1.128v-6.533h2.432V45.85h-1.978L99.84,43.695z M94.977,44.105
			c1.66,0,2.863-0.451,3.611-1.354c0.746-0.903,1.12-2.36,1.12-4.372v-0.514c0-2.275-0.379-3.898-1.136-4.87
			c-0.757-0.972-1.965-1.458-3.625-1.458c-1.426,0-2.518,0.554-3.273,1.663c-0.758,1.108-1.136,2.673-1.136,4.694
			c0,2.051,0.376,3.6,1.128,4.645S93.521,44.105,94.977,44.105z"/>
		<path fill="#FFFFFF" d="M122.046,45.85h-2.489V26.645h-6.783v-2.212h16.056v2.212h-6.782L122.046,45.85L122.046,45.85z"/>
		<path fill="#FFFFFF" d="M131.48,25.444c0-0.557,0.137-0.964,0.41-1.223c0.272-0.259,0.614-0.388,1.024-0.388
			c0.392,0,0.728,0.132,1.011,0.396s0.426,0.669,0.426,1.216c0,0.547-0.143,0.955-0.426,1.223s-0.619,0.403-1.011,0.403
			c-0.41,0-0.752-0.134-1.024-0.403C131.617,26.399,131.48,25.991,131.48,25.444z M134.117,45.85h-2.432V29.794h2.432V45.85z"/>
		<path fill="#FFFFFF" d="M141.705,45.85h-2.432V23.056h2.432V45.85z"/>
		<path fill="#FFFFFF" d="M149.293,45.85h-2.432V23.056h2.432V45.85z"/>
	</g>
</g>
<g>
	<path fill="#FFFFFF" d="M-11.146,24.867h4.84c2.273,0,3.918,0.34,4.934,1.02s1.523,1.754,1.523,3.223
		c0,1.016-0.283,1.854-0.85,2.514s-1.393,1.088-2.479,1.283v0.117c2.602,0.445,3.902,1.812,3.902,4.102
		c0,1.531-0.518,2.727-1.553,3.586S-3.31,42-5.169,42h-5.977V24.867z M-9.154,32.203h3.281c1.406,0,2.418-0.221,3.035-0.662
		s0.926-1.186,0.926-2.232c0-0.961-0.344-1.654-1.031-2.08s-1.781-0.639-3.281-0.639h-2.93V32.203z M-9.154,33.891v6.41h3.574
		c1.383,0,2.424-0.268,3.123-0.803s1.049-1.373,1.049-2.514c0-1.062-0.357-1.844-1.072-2.344s-1.803-0.75-3.264-0.75H-9.154z"/>
	<path fill="#FFFFFF" d="M12.01,42l-0.387-1.828H11.53c-0.641,0.805-1.279,1.35-1.916,1.635s-1.432,0.428-2.385,0.428
		c-1.273,0-2.271-0.328-2.994-0.984s-1.084-1.59-1.084-2.801c0-2.594,2.074-3.953,6.223-4.078l2.18-0.07v-0.797
		c0-1.008-0.217-1.752-0.65-2.232s-1.127-0.721-2.08-0.721c-1.07,0-2.281,0.328-3.633,0.984l-0.598-1.488
		c0.633-0.344,1.326-0.613,2.08-0.809s1.51-0.293,2.268-0.293c1.531,0,2.666,0.34,3.404,1.02s1.107,1.77,1.107,3.27V42H12.01z
		 M7.616,40.629c1.211,0,2.162-0.332,2.854-0.996s1.037-1.594,1.037-2.789v-1.16l-1.945,0.082c-1.547,0.055-2.662,0.295-3.346,0.721
		S5.19,37.574,5.19,38.473c0,0.703,0.213,1.238,0.639,1.605S6.85,40.629,7.616,40.629z"/>
	<path fill="#FFFFFF" d="M23.319,28.922c0.57,0,1.082,0.047,1.535,0.141l-0.27,1.805c-0.531-0.117-1-0.176-1.406-0.176
		c-1.039,0-1.928,0.422-2.666,1.266s-1.107,1.895-1.107,3.152V42h-1.945V29.156h1.605l0.223,2.379h0.094
		c0.477-0.836,1.051-1.48,1.723-1.934S22.514,28.922,23.319,28.922z"/>
	<path fill="#FFFFFF" d="M32.389,42.234c-1.859,0-3.299-0.572-4.318-1.717s-1.529-2.764-1.529-4.857c0-2.148,0.518-3.809,1.553-4.98
		s2.51-1.758,4.424-1.758c0.617,0,1.234,0.066,1.852,0.199s1.102,0.289,1.453,0.469l-0.598,1.652
		c-0.43-0.172-0.898-0.314-1.406-0.428s-0.957-0.17-1.348-0.17c-2.609,0-3.914,1.664-3.914,4.992c0,1.578,0.318,2.789,0.955,3.633
		s1.58,1.266,2.83,1.266c1.07,0,2.168-0.23,3.293-0.691v1.723C34.776,42.012,33.694,42.234,32.389,42.234z"/>
	<path fill="#FFFFFF" d="M49.768,35.566c0,2.094-0.527,3.729-1.582,4.904s-2.512,1.764-4.371,1.764c-1.148,0-2.168-0.27-3.059-0.809
		s-1.578-1.312-2.062-2.32s-0.727-2.188-0.727-3.539c0-2.094,0.523-3.725,1.57-4.893s2.5-1.752,4.359-1.752
		c1.797,0,3.225,0.598,4.283,1.793S49.768,33.527,49.768,35.566z M39.983,35.566c0,1.641,0.328,2.891,0.984,3.75
		s1.621,1.289,2.895,1.289s2.24-0.428,2.9-1.283s0.99-2.107,0.99-3.756c0-1.633-0.33-2.873-0.99-3.721s-1.635-1.271-2.924-1.271
		c-1.273,0-2.234,0.418-2.883,1.254S39.983,33.91,39.983,35.566z"/>
	<path fill="#FFFFFF" d="M61.92,40.277h-0.105c-0.898,1.305-2.242,1.957-4.031,1.957c-1.68,0-2.986-0.574-3.92-1.723
		s-1.4-2.781-1.4-4.898s0.469-3.762,1.406-4.934s2.242-1.758,3.914-1.758c1.742,0,3.078,0.633,4.008,1.898h0.152l-0.082-0.926
		l-0.047-0.902v-5.227h1.945V42h-1.582L61.92,40.277z M58.03,40.605c1.328,0,2.291-0.361,2.889-1.084s0.896-1.889,0.896-3.498v-0.41
		c0-1.82-0.303-3.119-0.908-3.896s-1.572-1.166-2.9-1.166c-1.141,0-2.014,0.443-2.619,1.33s-0.908,2.139-0.908,3.756
		c0,1.641,0.301,2.879,0.902,3.715S56.866,40.605,58.03,40.605z"/>
	<path fill="#FFFFFF" d="M73.311,42.234c-1.898,0-3.396-0.578-4.494-1.734s-1.646-2.762-1.646-4.816c0-2.07,0.51-3.715,1.529-4.934
		s2.389-1.828,4.107-1.828c1.609,0,2.883,0.529,3.82,1.588s1.406,2.455,1.406,4.189v1.23h-8.848c0.039,1.508,0.42,2.652,1.143,3.434
		s1.74,1.172,3.053,1.172c1.383,0,2.75-0.289,4.102-0.867v1.734c-0.688,0.297-1.338,0.51-1.951,0.639S74.178,42.234,73.311,42.234z
		 M72.784,30.551c-1.031,0-1.854,0.336-2.467,1.008s-0.975,1.602-1.084,2.789h6.715c0-1.227-0.273-2.166-0.82-2.818
		S73.799,30.551,72.784,30.551z"/>
	<path fill="#FFFFFF" d="M97.545,37.441c0,1.508-0.547,2.684-1.641,3.527s-2.578,1.266-4.453,1.266
		c-2.031,0-3.594-0.262-4.688-0.785v-1.922c0.703,0.297,1.469,0.531,2.297,0.703s1.648,0.258,2.461,0.258
		c1.328,0,2.328-0.252,3-0.756s1.008-1.205,1.008-2.104c0-0.594-0.119-1.08-0.357-1.459s-0.637-0.729-1.195-1.049
		s-1.408-0.684-2.549-1.09c-1.594-0.57-2.732-1.246-3.416-2.027s-1.025-1.801-1.025-3.059c0-1.32,0.496-2.371,1.488-3.152
		s2.305-1.172,3.938-1.172c1.703,0,3.27,0.312,4.699,0.938l-0.621,1.734c-1.414-0.594-2.789-0.891-4.125-0.891
		c-1.055,0-1.879,0.227-2.473,0.68s-0.891,1.082-0.891,1.887c0,0.594,0.109,1.08,0.328,1.459s0.588,0.727,1.107,1.043
		s1.314,0.666,2.385,1.049c1.797,0.641,3.033,1.328,3.709,2.062S97.545,36.27,97.545,37.441z"/>
	<path fill="#FFFFFF" d="M105.889,42.234c-1.859,0-3.299-0.572-4.318-1.717s-1.529-2.764-1.529-4.857
		c0-2.148,0.517-3.809,1.552-4.98s2.51-1.758,4.424-1.758c0.617,0,1.234,0.066,1.852,0.199s1.102,0.289,1.453,0.469l-0.598,1.652
		c-0.43-0.172-0.898-0.314-1.406-0.428s-0.957-0.17-1.348-0.17c-2.609,0-3.914,1.664-3.914,4.992c0,1.578,0.318,2.789,0.955,3.633
		s1.58,1.266,2.83,1.266c1.07,0,2.168-0.23,3.293-0.691v1.723C108.275,42.012,107.193,42.234,105.889,42.234z"/>
	<path fill="#FFFFFF" d="M120.08,42l-0.387-1.828H119.6c-0.641,0.805-1.279,1.35-1.916,1.635s-1.432,0.428-2.385,0.428
		c-1.273,0-2.271-0.328-2.994-0.984s-1.084-1.59-1.084-2.801c0-2.594,2.074-3.953,6.223-4.078l2.18-0.07v-0.797
		c0-1.008-0.217-1.752-0.65-2.232s-1.127-0.721-2.08-0.721c-1.07,0-2.281,0.328-3.633,0.984l-0.598-1.488
		c0.633-0.344,1.326-0.613,2.08-0.809s1.51-0.293,2.268-0.293c1.531,0,2.666,0.34,3.404,1.02s1.107,1.77,1.107,3.27V42H120.08z
		 M115.686,40.629c1.211,0,2.162-0.332,2.854-0.996s1.037-1.594,1.037-2.789v-1.16l-1.945,0.082
		c-1.547,0.055-2.662,0.295-3.346,0.721s-1.025,1.088-1.025,1.986c0,0.703,0.213,1.238,0.639,1.605S114.92,40.629,115.686,40.629z"
		/>
	<path fill="#FFFFFF" d="M134.318,42v-8.309c0-1.047-0.238-1.828-0.715-2.344s-1.223-0.773-2.238-0.773
		c-1.344,0-2.328,0.363-2.953,1.09s-0.938,1.926-0.938,3.598V42h-1.945V29.156h1.582l0.316,1.758h0.094
		c0.398-0.633,0.957-1.123,1.676-1.471s1.52-0.521,2.402-0.521c1.547,0,2.711,0.373,3.492,1.119s1.172,1.939,1.172,3.58V42H134.318z
		"/>
	<path fill="#FFFFFF" d="M149.049,42v-8.309c0-1.047-0.238-1.828-0.715-2.344s-1.223-0.773-2.238-0.773
		c-1.344,0-2.328,0.363-2.953,1.09s-0.938,1.926-0.938,3.598V42h-1.945V29.156h1.582l0.316,1.758h0.094
		c0.398-0.633,0.957-1.123,1.676-1.471s1.52-0.521,2.402-0.521c1.547,0,2.711,0.373,3.492,1.119s1.172,1.939,1.172,3.58V42H149.049z
		"/>
	<path fill="#FFFFFF" d="M160.416,42.234c-1.898,0-3.396-0.578-4.494-1.734s-1.646-2.762-1.646-4.816c0-2.07,0.51-3.715,1.529-4.934
		s2.389-1.828,4.107-1.828c1.609,0,2.883,0.529,3.82,1.588s1.406,2.455,1.406,4.189v1.23h-8.848c0.039,1.508,0.42,2.652,1.143,3.434
		s1.74,1.172,3.053,1.172c1.383,0,2.75-0.289,4.102-0.867v1.734c-0.688,0.297-1.338,0.51-1.951,0.639S161.283,42.234,160.416,42.234
		z M159.889,30.551c-1.031,0-1.854,0.336-2.467,1.008s-0.975,1.602-1.084,2.789h6.715c0-1.227-0.273-2.166-0.82-2.818
		S160.904,30.551,159.889,30.551z"/>
	<path fill="#FFFFFF" d="M174.314,28.922c0.57,0,1.082,0.047,1.535,0.141l-0.27,1.805c-0.531-0.117-1-0.176-1.406-0.176
		c-1.039,0-1.928,0.422-2.666,1.266s-1.107,1.895-1.107,3.152V42h-1.945V29.156h1.605l0.223,2.379h0.094
		c0.477-0.836,1.051-1.48,1.723-1.934S173.51,28.922,174.314,28.922z"/>
	<path fill="#FFFFFF" d="M186.537,38.496c0,1.195-0.445,2.117-1.336,2.766s-2.141,0.973-3.75,0.973c-1.703,0-3.031-0.27-3.984-0.809
		v-1.805c0.617,0.312,1.279,0.559,1.986,0.738s1.389,0.27,2.045,0.27c1.016,0,1.797-0.162,2.344-0.486s0.82-0.818,0.82-1.482
		c0-0.5-0.217-0.928-0.65-1.283s-1.279-0.775-2.537-1.26c-1.195-0.445-2.045-0.834-2.549-1.166s-0.879-0.709-1.125-1.131
		s-0.369-0.926-0.369-1.512c0-1.047,0.426-1.873,1.277-2.479s2.02-0.908,3.504-0.908c1.383,0,2.734,0.281,4.055,0.844l-0.691,1.582
		c-1.289-0.531-2.457-0.797-3.504-0.797c-0.922,0-1.617,0.145-2.086,0.434s-0.703,0.688-0.703,1.195
		c0,0.344,0.088,0.637,0.264,0.879s0.459,0.473,0.85,0.691s1.141,0.535,2.25,0.949c1.523,0.555,2.553,1.113,3.088,1.676
		S186.537,37.645,186.537,38.496z"/>
</g>
</svg>
