<?xml version="1.0" encoding="utf-8"?>
<!-- Generator: Adobe Illustrator 15.0.0, SVG Export Plug-In . SVG Version: 6.00 Build 0)  -->
<!DOCTYPE svg PUBLIC "-//W3C//DTD SVG 1.1//EN" "http://www.w3.org/Graphics/SVG/1.1/DTD/svg11.dtd">
<svg version="1.1" xmlns="http://www.w3.org/2000/svg" xmlns:xlink="http://www.w3.org/1999/xlink" x="0px" y="0px" width="210px"
	 height="70px" viewBox="0 0 210 70" enable-background="new 0 0 210 70" xml:space="preserve">
<g id="Layer_5">
	<circle fill="#222222" cx="35.333" cy="34.633" r="35"/>
	<rect x="36.232" y="-7.7" fill="#222222" width="177.76" height="80.435"/>
	<g>
		<path fill="#FFFFFF" d="M37.898,25.526c0-0.445,0.109-0.771,0.328-0.979s0.492-0.311,0.82-0.311c0.312,0,0.582,0.105,0.809,0.316
			s0.34,0.535,0.34,0.973s-0.113,0.764-0.34,0.979s-0.496,0.322-0.809,0.322c-0.328,0-0.602-0.107-0.82-0.322
			S37.898,25.963,37.898,25.526z M40.008,41.85h-1.945V29.006h1.945V41.85z"/>
		<path fill="#FFFFFF" d="M55.29,29.709c0,1.734-0.592,3.068-1.775,4.002s-2.877,1.4-5.08,1.4h-2.016v6.738h-1.992V24.717h4.442
			C53.149,24.717,55.29,26.381,55.29,29.709z M46.418,33.401h1.793c1.766,0,3.043-0.285,3.832-0.855s1.184-1.484,1.184-2.742
			c0-1.133-0.371-1.977-1.113-2.531s-1.898-0.832-3.469-0.832h-2.227V33.401z"/>
		<path fill="#FFFFFF" d="M66.481,41.85l-0.387-1.828H66c-0.641,0.805-1.279,1.35-1.916,1.635s-1.432,0.428-2.385,0.428
			c-1.273,0-2.271-0.328-2.994-0.984s-1.084-1.59-1.084-2.801c0-2.593,2.074-3.953,6.223-4.078l2.18-0.07v-0.797
			c0-1.008-0.217-1.752-0.65-2.232s-1.127-0.721-2.08-0.721c-1.07,0-2.281,0.328-3.633,0.984l-0.598-1.488
			c0.633-0.344,1.326-0.613,2.08-0.809s1.51-0.293,2.268-0.293c1.531,0,2.666,0.34,3.404,1.02s1.107,1.77,1.107,3.27v8.765H66.481z
			 M62.086,40.479c1.211,0,2.162-0.332,2.854-0.996s1.037-1.594,1.037-2.789v-1.16l-1.945,0.082
			c-1.547,0.055-2.662,0.295-3.346,0.72c-0.684,0.426-1.025,1.088-1.025,1.986c0,0.703,0.213,1.238,0.639,1.605
			S61.321,40.479,62.086,40.479z"/>
		<path fill="#FFFFFF" d="M80.672,40.127h-0.105c-0.898,1.305-2.242,1.957-4.031,1.957c-1.68,0-2.986-0.574-3.92-1.723
			s-1.4-2.781-1.4-4.898c0-2.117,0.469-3.762,1.406-4.934s2.242-1.758,3.914-1.758c1.742,0,3.078,0.633,4.008,1.898h0.152
			l-0.082-0.926l-0.047-0.902v-5.227h1.945V41.85H80.93L80.672,40.127z M76.782,40.455c1.328,0,2.291-0.361,2.889-1.084
			s0.896-1.889,0.896-3.498v-0.41c0-1.82-0.303-3.119-0.908-3.896s-1.572-1.166-2.9-1.166c-1.141,0-2.014,0.443-2.619,1.33
			s-0.908,2.139-0.908,3.756c0,1.64,0.301,2.878,0.902,3.714S75.618,40.455,76.782,40.455z"/>
		<path fill="#FFFFFF" d="M102.833,37.291c0,1.508-0.547,2.684-1.641,3.527s-2.578,1.266-4.453,1.266
			c-2.031,0-3.594-0.262-4.688-0.785v-1.922c0.703,0.297,1.469,0.531,2.297,0.703s1.648,0.258,2.461,0.258
			c1.328,0,2.328-0.252,3-0.756s1.008-1.205,1.008-2.104c0-0.594-0.119-1.08-0.357-1.459c-0.238-0.378-0.637-0.728-1.195-1.048
			s-1.408-0.684-2.549-1.09c-1.594-0.57-2.732-1.246-3.416-2.027s-1.025-1.801-1.025-3.059c0-1.32,0.496-2.371,1.488-3.152
			s2.305-1.172,3.938-1.172c1.703,0,3.27,0.312,4.699,0.938l-0.621,1.734c-1.414-0.594-2.789-0.891-4.125-0.891
			c-1.055,0-1.879,0.227-2.473,0.68s-0.891,1.082-0.891,1.887c0,0.594,0.109,1.08,0.328,1.459s0.588,0.727,1.107,1.043
			s1.314,0.666,2.385,1.049c1.797,0.641,3.033,1.328,3.709,2.062S102.833,36.119,102.833,37.291z"/>
		<path fill="#FFFFFF" d="M111.176,42.084c-1.859,0-3.299-0.572-4.318-1.717c-1.019-1.145-1.529-2.764-1.529-4.857
			c0-2.148,0.518-3.809,1.552-4.98c1.035-1.172,2.51-1.758,4.424-1.758c0.617,0,1.234,0.066,1.852,0.199s1.102,0.289,1.453,0.469
			l-0.598,1.652c-0.43-0.172-0.898-0.314-1.406-0.428s-0.957-0.17-1.348-0.17c-2.609,0-3.914,1.664-3.914,4.992
			c0,1.578,0.318,2.789,0.955,3.632s1.58,1.266,2.83,1.266c1.07,0,2.168-0.23,3.293-0.691v1.723
			C113.562,41.861,112.48,42.084,111.176,42.084z"/>
		<path fill="#FFFFFF" d="M125.367,41.85l-0.387-1.828h-0.094c-0.641,0.805-1.279,1.35-1.916,1.635s-1.432,0.428-2.385,0.428
			c-1.273,0-2.271-0.328-2.994-0.984s-1.084-1.59-1.084-2.801c0-2.593,2.074-3.953,6.223-4.078l2.18-0.07v-0.797
			c0-1.008-0.217-1.752-0.65-2.232s-1.127-0.721-2.08-0.721c-1.07,0-2.281,0.328-3.633,0.984l-0.598-1.488
			c0.633-0.344,1.326-0.613,2.08-0.809s1.51-0.293,2.268-0.293c1.531,0,2.666,0.34,3.404,1.02s1.107,1.77,1.107,3.27v8.765H125.367z
			 M120.973,40.479c1.211,0,2.162-0.332,2.854-0.996s1.037-1.594,1.037-2.789v-1.16l-1.945,0.082
			c-1.547,0.055-2.662,0.295-3.346,0.72c-0.684,0.426-1.025,1.088-1.025,1.986c0,0.703,0.213,1.238,0.639,1.605
			S120.207,40.479,120.973,40.479z"/>
		<path fill="#FFFFFF" d="M139.605,41.85v-8.308c0-1.047-0.238-1.828-0.715-2.344s-1.223-0.773-2.238-0.773
			c-1.344,0-2.328,0.363-2.953,1.09s-0.938,1.926-0.938,3.598v6.738h-1.945V29.006h1.582l0.316,1.758h0.094
			c0.398-0.633,0.957-1.123,1.676-1.471s1.52-0.521,2.402-0.521c1.547,0,2.711,0.373,3.492,1.119s1.172,1.939,1.172,3.58v8.378
			H139.605z"/>
		<path fill="#FFFFFF" d="M154.336,41.85v-8.308c0-1.047-0.238-1.828-0.715-2.344s-1.223-0.773-2.238-0.773
			c-1.344,0-2.328,0.363-2.953,1.09s-0.938,1.926-0.938,3.598v6.738h-1.945V29.006h1.582l0.316,1.758h0.094
			c0.398-0.633,0.957-1.123,1.676-1.471s1.52-0.521,2.402-0.521c1.547,0,2.711,0.373,3.492,1.119s1.172,1.939,1.172,3.58v8.378
			H154.336z"/>
		<path fill="#FFFFFF" d="M165.703,42.084c-1.898,0-3.396-0.578-4.494-1.734s-1.646-2.762-1.646-4.816
			c0-2.07,0.51-3.715,1.529-4.934s2.389-1.828,4.107-1.828c1.609,0,2.883,0.529,3.82,1.588s1.406,2.455,1.406,4.189v1.23h-8.848
			c0.039,1.507,0.42,2.652,1.143,3.433s1.74,1.172,3.053,1.172c1.383,0,2.75-0.289,4.102-0.867v1.734
			c-0.688,0.297-1.338,0.51-1.951,0.639S166.57,42.084,165.703,42.084z M165.176,30.401c-1.031,0-1.854,0.336-2.467,1.008
			s-0.975,1.602-1.084,2.789h6.715c0-1.227-0.273-2.166-0.82-2.818S166.191,30.401,165.176,30.401z"/>
		<path fill="#FFFFFF" d="M179.602,28.772c0.57,0,1.082,0.047,1.535,0.141l-0.27,1.805c-0.531-0.117-1-0.176-1.406-0.176
			c-1.039,0-1.928,0.422-2.666,1.266s-1.107,1.895-1.107,3.152v6.89h-1.945V29.006h1.605l0.223,2.379h0.094
			c0.477-0.836,1.051-1.48,1.723-1.934S178.797,28.772,179.602,28.772z"/>
		<path fill="#FFFFFF" d="M191.824,38.346c0,1.195-0.445,2.117-1.336,2.766s-2.141,0.973-3.75,0.973
			c-1.703,0-3.031-0.27-3.984-0.809v-1.805c0.617,0.312,1.279,0.559,1.986,0.738s1.389,0.27,2.045,0.27
			c1.016,0,1.797-0.162,2.344-0.486s0.82-0.818,0.82-1.482c0-0.5-0.217-0.928-0.65-1.283s-1.279-0.775-2.537-1.259
			c-1.195-0.445-2.045-0.834-2.549-1.166s-0.879-0.709-1.125-1.131s-0.369-0.926-0.369-1.512c0-1.047,0.426-1.873,1.277-2.479
			s2.02-0.908,3.504-0.908c1.383,0,2.734,0.281,4.055,0.844l-0.691,1.582c-1.289-0.531-2.457-0.797-3.504-0.797
			c-0.922,0-1.617,0.145-2.086,0.434s-0.703,0.688-0.703,1.195c0,0.344,0.088,0.637,0.264,0.879s0.459,0.473,0.85,0.691
			s1.141,0.535,2.25,0.949c1.523,0.555,2.553,1.113,3.088,1.675C191.557,36.787,191.824,37.494,191.824,38.346z"/>
	</g>
</g>
<g id="Layer_6" display="none">
	<circle display="inline" fill="#222222" cx="175" cy="34.967" r="35"/>
	<rect x="-3.659" y="-3.134" display="inline" fill="#222222" width="177.759" height="80.435"/>
	<g display="inline">
		<path fill="#FFFFFF" d="M46.373,25.444c0-0.557,0.137-0.964,0.41-1.223s0.615-0.388,1.025-0.388c0.391,0,0.728,0.132,1.011,0.396
			s0.425,0.669,0.425,1.216s-0.142,0.955-0.425,1.223s-0.62,0.403-1.011,0.403c-0.41,0-0.752-0.134-1.025-0.403
			S46.373,25.991,46.373,25.444z M49.009,45.85h-2.432V29.794h2.432V45.85z"/>
		<path fill="#FFFFFF" d="M68.111,30.673c0,2.168-0.74,3.835-2.219,5.002c-1.48,1.167-3.598,1.75-6.352,1.75h-2.52v8.424h-2.49
			V24.433h5.552C65.436,24.433,68.111,26.513,68.111,30.673z M57.021,35.288h2.242c2.207,0,3.803-0.356,4.789-1.069
			s1.48-1.855,1.48-3.428c0-1.416-0.465-2.471-1.393-3.164s-2.373-1.04-4.336-1.04h-2.783V35.288z"/>
		<path fill="#FFFFFF" d="M82.1,45.85l-0.483-2.285h-0.117c-0.801,1.006-1.6,1.687-2.396,2.043s-1.789,0.535-2.98,0.535
			c-1.592,0-2.84-0.41-3.742-1.23c-0.904-0.82-1.355-1.988-1.355-3.502c0-3.242,2.593-4.941,7.778-5.098l2.725-0.088v-0.996
			c0-1.26-0.271-2.19-0.813-2.791c-0.541-0.601-1.408-0.901-2.6-0.901c-1.338,0-2.852,0.41-4.541,1.23l-0.747-1.86
			c0.791-0.43,1.657-0.767,2.601-1.011c0.941-0.244,1.887-0.366,2.834-0.366c1.914,0,3.332,0.425,4.256,1.274
			c0.922,0.85,1.384,2.212,1.384,4.087V45.85H82.1z M76.606,44.135c1.514,0,2.702-0.414,3.567-1.244
			c0.863-0.83,1.296-1.992,1.296-3.486v-1.451l-2.432,0.104c-1.934,0.068-3.328,0.368-4.183,0.9s-1.281,1.359-1.281,2.482
			c0,0.879,0.266,1.549,0.799,2.008C74.904,43.906,75.649,44.135,76.606,44.135z"/>
		<path fill="#FFFFFF" d="M99.84,43.695h-0.132c-1.123,1.631-2.803,2.447-5.039,2.447c-2.1,0-3.733-0.719-4.899-2.154
			c-1.168-1.436-1.751-3.477-1.751-6.123c0-2.646,0.586-4.702,1.758-6.167s2.803-2.197,4.893-2.197c2.178,0,3.848,0.791,5.01,2.373
			h0.19l-0.103-1.157l-0.059-1.128v-6.533h2.432V45.85h-1.978L99.84,43.695z M94.977,44.105c1.66,0,2.863-0.451,3.611-1.354
			c0.746-0.903,1.12-2.36,1.12-4.372v-0.514c0-2.275-0.379-3.898-1.136-4.87s-1.965-1.458-3.625-1.458
			c-1.426,0-2.518,0.554-3.273,1.663c-0.758,1.108-1.136,2.673-1.136,4.694c0,2.051,0.376,3.6,1.128,4.645
			S93.521,44.105,94.977,44.105z"/>
		<path fill="#FFFFFF" d="M122.046,45.85h-2.49V26.645h-6.782v-2.212h16.055v2.212h-6.782V45.85z"/>
		<path fill="#FFFFFF" d="M131.48,25.444c0-0.557,0.137-0.964,0.41-1.223s0.615-0.388,1.025-0.388c0.391,0,0.728,0.132,1.011,0.396
			s0.425,0.669,0.425,1.216s-0.142,0.955-0.425,1.223s-0.62,0.403-1.011,0.403c-0.41,0-0.752-0.134-1.025-0.403
			S131.48,25.991,131.48,25.444z M134.117,45.85h-2.432V29.794h2.432V45.85z"/>
		<path fill="#FFFFFF" d="M141.705,45.85h-2.432V23.056h2.432V45.85z"/>
		<path fill="#FFFFFF" d="M149.293,45.85h-2.432V23.056h2.432V45.85z"/>
	</g>
</g>
</svg>
