<?xml version="1.0" encoding="utf-8"?>
<!-- Generator: Adobe Illustrator 15.0.0, SVG Export Plug-In . SVG Version: 6.00 Build 0)  -->
<!DOCTYPE svg PUBLIC "-//W3C//DTD SVG 1.1//EN" "http://www.w3.org/Graphics/SVG/1.1/DTD/svg11.dtd">
<svg version="1.1" xmlns="http://www.w3.org/2000/svg" xmlns:xlink="http://www.w3.org/1999/xlink" x="0px" y="0px" width="210px"
	 height="70px" viewBox="0 0 210 70" enable-background="new 0 0 210 70" xml:space="preserve">
<g id="Layer_5" display="none">
	<circle display="inline" fill="#222222" cx="35.333" cy="34.633" r="35"/>
	<rect x="36.232" y="-7.7" display="inline" fill="#222222" width="177.76" height="80.435"/>
	<text transform="matrix(1 0 0 1 28 40.8496)" display="inline" fill="#FFFFFF" font-family="'OpenSans'" font-size="24">getting started</text>
</g>
<g id="Layer_6">
	<circle fill="#222222" cx="175" cy="34.967" r="35"/>
	<rect x="-3.659" y="-3.134" fill="#222222" width="177.759" height="80.435"/>
	<g>
		<path fill="#FFFFFF" d="M30.372,26.345c0-0.557,0.137-0.964,0.41-1.223s0.615-0.388,1.025-0.388c0.391,0,0.728,0.132,1.011,0.396
			s0.425,0.669,0.425,1.216s-0.142,0.955-0.425,1.223s-0.62,0.403-1.011,0.403c-0.41,0-0.752-0.134-1.025-0.403
			S30.372,26.892,30.372,26.345z M33.008,46.75h-2.432V30.695h2.432V46.75z"/>
		<path fill="#FFFFFF" d="M52.11,31.574c0,2.168-0.74,3.835-2.219,5.002c-1.479,1.168-3.596,1.751-6.35,1.751h-2.52v8.423h-2.49
			V25.334h5.552C49.434,25.334,52.11,27.414,52.11,31.574z M41.021,36.188h2.241c2.207,0,3.804-0.356,4.79-1.069
			s1.479-1.855,1.479-3.428c0-1.416-0.464-2.471-1.392-3.164s-2.373-1.04-4.336-1.04h-2.783V36.188z"/>
		<path fill="#FFFFFF" d="M67.212,46.75V36.364c0-1.309-0.298-2.285-0.894-2.93s-1.528-0.967-2.798-0.967
			c-1.689,0-2.922,0.459-3.699,1.377s-1.165,2.422-1.165,4.512v8.394h-2.432V23.957h2.432v6.899c0,0.83-0.039,1.519-0.117,2.065
			h0.146c0.479-0.771,1.16-1.379,2.043-1.824s1.892-0.667,3.025-0.667c1.963,0,3.435,0.466,4.417,1.399s1.472,2.415,1.472,4.446
			V46.75H67.212z"/>
		<path fill="#FFFFFF" d="M88.497,38.708c0,2.617-0.659,4.661-1.978,6.13c-1.318,1.471-3.14,2.205-5.464,2.205
			c-1.436,0-2.71-0.337-3.823-1.011s-1.973-1.641-2.578-2.9s-0.908-2.734-0.908-4.424c0-2.617,0.654-4.656,1.963-6.116
			s3.125-2.19,5.449-2.19c2.246,0,4.031,0.747,5.354,2.241S88.497,36.159,88.497,38.708z M76.265,38.708
			c0,2.051,0.41,3.613,1.23,4.688s2.026,1.611,3.618,1.611s2.8-0.534,3.625-1.604c0.825-1.068,1.238-2.634,1.238-4.694
			c0-2.041-0.413-3.591-1.238-4.651s-2.043-1.589-3.655-1.589c-1.592,0-2.793,0.522-3.604,1.567S76.265,36.638,76.265,38.708z"/>
		<path fill="#FFFFFF" d="M103.746,46.75V36.364c0-1.309-0.298-2.285-0.894-2.93s-1.528-0.967-2.798-0.967
			c-1.68,0-2.91,0.454-3.691,1.362s-1.172,2.407-1.172,4.497v8.423h-2.432V30.695h1.978l0.396,2.197h0.117
			c0.498-0.791,1.196-1.404,2.095-1.838s1.899-0.652,3.003-0.652c1.934,0,3.389,0.466,4.365,1.399s1.465,2.424,1.465,4.475V46.75
			H103.746z"/>
		<path fill="#FFFFFF" d="M117.955,47.043c-2.373,0-4.246-0.723-5.619-2.168c-1.371-1.445-2.057-3.452-2.057-6.021
			c0-2.588,0.637-4.644,1.91-6.167c1.275-1.523,2.986-2.285,5.135-2.285c2.012,0,3.604,0.662,4.775,1.985s1.758,3.069,1.758,5.237
			v1.538h-11.059c0.049,1.885,0.523,3.315,1.428,4.292c0.902,0.977,2.176,1.465,3.816,1.465c1.729,0,3.438-0.361,5.127-1.084v2.168
			c-0.859,0.371-1.674,0.638-2.439,0.798C119.963,46.963,119.039,47.043,117.955,47.043z M117.295,32.438
			c-1.289,0-2.316,0.42-3.084,1.26c-0.766,0.84-1.217,2.002-1.354,3.486h8.393c0-1.533-0.342-2.708-1.025-3.523
			S118.564,32.438,117.295,32.438z"/>
		<path fill="#FFFFFF" d="M142.754,46.75h-2.49V27.546h-6.781v-2.212h16.055v2.212h-6.783V46.75z"/>
		<path fill="#FFFFFF" d="M152.188,26.345c0-0.557,0.137-0.964,0.41-1.223s0.615-0.388,1.025-0.388c0.391,0,0.729,0.132,1.012,0.396
			s0.424,0.669,0.424,1.216s-0.141,0.955-0.424,1.223s-0.621,0.403-1.012,0.403c-0.41,0-0.752-0.134-1.025-0.403
			S152.188,26.892,152.188,26.345z M154.824,46.75h-2.432V30.695h2.432V46.75z"/>
		<path fill="#FFFFFF" d="M162.412,46.75h-2.432V23.957h2.432V46.75z"/>
		<path fill="#FFFFFF" d="M170,46.75h-2.432V23.957H170V46.75z"/>
	</g>
</g>
</svg>
