<?xml version="1.0" encoding="utf-8"?>
<!-- Generator: Adobe Illustrator 15.0.0, SVG Export Plug-In . SVG Version: 6.00 Build 0)  -->
<!DOCTYPE svg PUBLIC "-//W3C//DTD SVG 1.1//EN" "http://www.w3.org/Graphics/SVG/1.1/DTD/svg11.dtd">
<svg version="1.1" id="Layer_1" xmlns="http://www.w3.org/2000/svg" xmlns:xlink="http://www.w3.org/1999/xlink" x="0px" y="0px"
	 width="268.667px" height="70px" viewBox="0 0 268.667 70" enable-background="new 0 0 268.667 70" xml:space="preserve">
<circle fill="#222222" cx="78.667" cy="35" r="35"/>
<rect x="78.667" y="-7.7" fill="#222222" width="193.993" height="80.435"/>
<g enable-background="new    ">
	<path fill="#FFFFFF" d="M100.691,25.92c-1.883,0-3.369,0.627-4.459,1.881s-1.635,2.971-1.635,5.15c0,2.242,0.525,3.975,1.576,5.197
		s2.549,1.834,4.494,1.834c1.195,0,2.559-0.215,4.09-0.645v1.746c-1.188,0.445-2.652,0.668-4.395,0.668
		c-2.523,0-4.471-0.766-5.842-2.297s-2.057-3.707-2.057-6.527c0-1.766,0.33-3.312,0.99-4.641s1.613-2.352,2.859-3.07
		s2.713-1.078,4.4-1.078c1.797,0,3.367,0.328,4.711,0.984l-0.844,1.711C103.285,26.225,101.988,25.92,100.691,25.92z"/>
	<path fill="#FFFFFF" d="M116.102,41.518l-0.387-1.828h-0.094c-0.641,0.805-1.279,1.35-1.916,1.635s-1.432,0.428-2.385,0.428
		c-1.273,0-2.271-0.328-2.994-0.984s-1.084-1.59-1.084-2.801c0-2.594,2.074-3.953,6.223-4.078l2.18-0.07v-0.797
		c0-1.008-0.217-1.752-0.65-2.232s-1.127-0.721-2.08-0.721c-1.07,0-2.281,0.328-3.633,0.984l-0.598-1.488
		c0.633-0.344,1.326-0.613,2.08-0.809s1.51-0.293,2.268-0.293c1.531,0,2.666,0.34,3.404,1.02s1.107,1.77,1.107,3.27v8.766H116.102z
		 M111.707,40.146c1.211,0,2.162-0.332,2.854-0.996s1.037-1.594,1.037-2.789v-1.16l-1.945,0.082
		c-1.547,0.055-2.662,0.295-3.346,0.721s-1.025,1.088-1.025,1.986c0,0.703,0.213,1.238,0.639,1.605S110.941,40.146,111.707,40.146z"
		/>
	<path fill="#FFFFFF" d="M129.836,38.014c0,1.195-0.445,2.117-1.336,2.766s-2.141,0.973-3.75,0.973c-1.703,0-3.031-0.27-3.984-0.809
		v-1.805c0.617,0.312,1.279,0.559,1.986,0.738s1.389,0.27,2.045,0.27c1.016,0,1.797-0.162,2.344-0.486s0.82-0.818,0.82-1.482
		c0-0.5-0.217-0.928-0.65-1.283s-1.279-0.775-2.537-1.26c-1.195-0.445-2.045-0.834-2.549-1.166s-0.879-0.709-1.125-1.131
		s-0.369-0.926-0.369-1.512c0-1.047,0.426-1.873,1.277-2.479s2.02-0.908,3.504-0.908c1.383,0,2.734,0.281,4.055,0.844l-0.691,1.582
		c-1.289-0.531-2.457-0.797-3.504-0.797c-0.922,0-1.617,0.145-2.086,0.434s-0.703,0.688-0.703,1.195
		c0,0.344,0.088,0.637,0.264,0.879s0.459,0.473,0.85,0.691s1.141,0.535,2.25,0.949c1.523,0.555,2.553,1.113,3.088,1.676
		S129.836,37.162,129.836,38.014z"/>
	<path fill="#FFFFFF" d="M141.789,41.518v-8.309c0-1.047-0.238-1.828-0.715-2.344s-1.223-0.773-2.238-0.773
		c-1.352,0-2.338,0.367-2.959,1.102s-0.932,1.938-0.932,3.609v6.715H133V23.283h1.945v5.52c0,0.664-0.031,1.215-0.094,1.652h0.117
		c0.383-0.617,0.928-1.104,1.635-1.459s1.514-0.533,2.42-0.533c1.57,0,2.748,0.373,3.533,1.119s1.178,1.932,1.178,3.557v8.379
		H141.789z"/>
	<path fill="#FFFFFF" d="M167.933,32.787c0,2.828-0.768,4.99-2.303,6.486s-3.744,2.244-6.627,2.244h-4.746V24.385h5.25
		c2.664,0,4.734,0.738,6.211,2.215S167.933,30.139,167.933,32.787z M165.824,32.857c0-2.234-0.561-3.918-1.682-5.051
		s-2.787-1.699-4.998-1.699h-2.895v13.688h2.426c2.375,0,4.16-0.584,5.355-1.752S165.824,35.146,165.824,32.857z"/>
	<path fill="#FFFFFF" d="M177.32,28.439c0.57,0,1.082,0.047,1.535,0.141l-0.27,1.805c-0.531-0.117-1-0.176-1.406-0.176
		c-1.039,0-1.928,0.422-2.666,1.266s-1.107,1.895-1.107,3.152v6.891h-1.945V28.674h1.605l0.223,2.379h0.094
		c0.477-0.836,1.051-1.48,1.723-1.934S176.515,28.439,177.32,28.439z"/>
	<path fill="#FFFFFF" d="M189.156,41.518l-0.387-1.828h-0.094c-0.641,0.805-1.279,1.35-1.916,1.635s-1.432,0.428-2.385,0.428
		c-1.273,0-2.271-0.328-2.994-0.984s-1.084-1.59-1.084-2.801c0-2.594,2.074-3.953,6.223-4.078l2.18-0.07v-0.797
		c0-1.008-0.217-1.752-0.65-2.232s-1.127-0.721-2.08-0.721c-1.07,0-2.281,0.328-3.633,0.984l-0.598-1.488
		c0.633-0.344,1.326-0.613,2.08-0.809s1.51-0.293,2.268-0.293c1.531,0,2.666,0.34,3.404,1.02s1.107,1.77,1.107,3.27v8.766H189.156z
		 M184.761,40.146c1.211,0,2.162-0.332,2.854-0.996s1.037-1.594,1.037-2.789v-1.16l-1.945,0.082
		c-1.547,0.055-2.662,0.295-3.346,0.721s-1.025,1.088-1.025,1.986c0,0.703,0.213,1.238,0.639,1.605S183.996,40.146,184.761,40.146z"
		/>
	<path fill="#FFFFFF" d="M205.093,41.518l-2.355-7.535c-0.148-0.461-0.426-1.508-0.832-3.141h-0.094
		c-0.312,1.367-0.586,2.422-0.82,3.164l-2.426,7.512h-2.25l-3.504-12.844h2.039c0.828,3.227,1.459,5.684,1.893,7.371
		s0.682,2.824,0.744,3.41h0.094c0.086-0.445,0.225-1.021,0.416-1.729s0.357-1.268,0.498-1.682l2.355-7.371h2.109l2.297,7.371
		c0.438,1.344,0.734,2.473,0.891,3.387h0.094c0.031-0.281,0.115-0.715,0.252-1.301s0.951-3.738,2.443-9.457h2.016l-3.551,12.844
		H205.093z"/>
	<path fill="#FFFFFF" d="M218.699,41.752c-1.898,0-3.396-0.578-4.494-1.734s-1.646-2.762-1.646-4.816c0-2.07,0.51-3.715,1.529-4.934
		s2.389-1.828,4.107-1.828c1.609,0,2.883,0.529,3.82,1.588s1.406,2.455,1.406,4.189v1.23h-8.848c0.039,1.508,0.42,2.652,1.143,3.434
		s1.74,1.172,3.053,1.172c1.383,0,2.75-0.289,4.102-0.867v1.734c-0.688,0.297-1.338,0.51-1.951,0.639S219.566,41.752,218.699,41.752
		z M218.171,30.068c-1.031,0-1.854,0.336-2.467,1.008s-0.975,1.602-1.084,2.789h6.715c0-1.227-0.273-2.166-0.82-2.818
		S219.187,30.068,218.171,30.068z"/>
	<path fill="#FFFFFF" d="M232.597,28.439c0.57,0,1.082,0.047,1.535,0.141l-0.27,1.805c-0.531-0.117-1-0.176-1.406-0.176
		c-1.039,0-1.928,0.422-2.666,1.266s-1.107,1.895-1.107,3.152v6.891h-1.945V28.674h1.605l0.223,2.379h0.094
		c0.477-0.836,1.051-1.48,1.723-1.934S231.792,28.439,232.597,28.439z"/>
</g>
<g id="Layer_6" display="none">
	<circle display="inline" fill="#222222" cx="233.667" cy="34.967" r="35"/>
	<rect x="55.008" y="-3.134" display="inline" fill="#222222" width="177.759" height="80.435"/>
	<g display="inline">
		<path fill="#FFFFFF" d="M114.968,45.184h-2.461l-4.32-14.34c-0.205-0.635-0.436-1.436-0.689-2.402
			c-0.253-0.966-0.385-1.548-0.395-1.743c-0.215,1.289-0.557,2.7-1.025,4.233l-4.19,14.251h-2.461l-5.698-21.416h2.637l3.384,13.228
			c0.469,1.855,0.811,3.535,1.025,5.039c0.264-1.787,0.654-3.535,1.172-5.244l3.838-13.023h2.637l4.027,13.14
			c0.469,1.514,0.865,3.223,1.188,5.127c0.186-1.387,0.537-3.076,1.055-5.068l3.369-13.199h2.637L114.968,45.184z"/>
		<path fill="#FFFFFF" d="M130.467,45.477c-2.373,0-4.246-0.723-5.618-2.168c-1.372-1.444-2.058-3.451-2.058-6.02
			c0-2.588,0.638-4.644,1.911-6.167c1.275-1.523,2.986-2.285,5.135-2.285c2.012,0,3.604,0.662,4.775,1.985
			c1.171,1.323,1.759,3.069,1.759,5.236v1.537H125.31c0.049,1.885,0.524,3.316,1.429,4.293c0.902,0.978,2.175,1.465,3.815,1.465
			c1.729,0,3.438-0.36,5.127-1.084v2.168c-0.859,0.371-1.673,0.638-2.438,0.799C132.476,45.396,131.551,45.477,130.467,45.477z
			 M129.808,30.873c-1.289,0-2.317,0.42-3.084,1.26c-0.767,0.84-1.218,2.002-1.354,3.486h8.394c0-1.533-0.342-2.708-1.025-3.523
			C132.056,31.281,131.078,30.873,129.808,30.873z"/>
		<path fill="#FFFFFF" d="M147.986,28.866c2.109,0,3.747,0.72,4.914,2.161s1.751,3.479,1.751,6.116c0,2.638-0.589,4.686-1.765,6.146
			c-1.178,1.46-2.811,2.188-4.9,2.188c-1.045,0-2-0.191-2.863-0.578c-0.865-0.385-1.59-0.979-2.176-1.778h-0.176l-0.514,2.063
			h-1.742V22.391h2.432v5.537c0,1.24-0.039,2.354-0.117,3.34h0.117C144.08,29.667,145.759,28.866,147.986,28.866z M147.634,30.902
			c-1.66,0-2.856,0.476-3.59,1.428c-0.732,0.952-1.099,2.556-1.099,4.812c0,2.256,0.376,3.868,1.128,4.84
			c0.752,0.973,1.959,1.459,3.618,1.459c1.494,0,2.606-0.545,3.341-1.635c0.732-1.089,1.098-2.652,1.098-4.693
			c0-2.09-0.365-3.648-1.098-4.673C150.298,31.415,149.167,30.902,147.634,30.902z"/>
		<path fill="#FFFFFF" d="M173.651,45.184h-2.489V25.98h-6.783v-2.212h16.056v2.212h-6.782L173.651,45.184L173.651,45.184z"/>
		<path fill="#FFFFFF" d="M183.083,24.779c0-0.557,0.137-0.964,0.41-1.223c0.272-0.259,0.614-0.388,1.024-0.388
			c0.392,0,0.728,0.132,1.011,0.396s0.426,0.669,0.426,1.216c0,0.547-0.143,0.955-0.426,1.223s-0.619,0.403-1.011,0.403
			c-0.41,0-0.752-0.134-1.024-0.403C183.22,25.734,183.083,25.326,183.083,24.779z M185.72,45.184h-2.432V29.129h2.432V45.184z"/>
		<path fill="#FFFFFF" d="M193.308,45.184h-2.432V22.391h2.432V45.184z"/>
		<path fill="#FFFFFF" d="M200.896,45.184h-2.432V22.391h2.432V45.184z"/>
	</g>
</g>
</svg>
