<?xml version="1.0" encoding="utf-8"?>
<!-- Generator: Adobe Illustrator 15.0.0, SVG Export Plug-In . SVG Version: 6.00 Build 0)  -->
<!DOCTYPE svg PUBLIC "-//W3C//DTD SVG 1.1//EN" "http://www.w3.org/Graphics/SVG/1.1/DTD/svg11.dtd">
<svg version="1.1" xmlns="http://www.w3.org/2000/svg" xmlns:xlink="http://www.w3.org/1999/xlink" x="0px" y="0px" width="210px"
	 height="70px" viewBox="0 0 210 70" enable-background="new 0 0 210 70" xml:space="preserve">
<g id="Layer_5" display="none">
	<circle display="inline" fill="#222222" cx="35.333" cy="34.633" r="35"/>
	<rect x="36.232" y="-7.7" display="inline" fill="#222222" width="177.76" height="80.435"/>
	<text transform="matrix(1 0 0 1 28 40.8496)" display="inline" fill="#FFFFFF" font-family="'OpenSans'" font-size="24">getting started</text>
</g>
<g id="Layer_6">
	<circle fill="#222222" cx="175" cy="34.967" r="35"/>
	<rect x="-3.659" y="-3.134" fill="#222222" width="177.759" height="80.435"/>
	<g>
		<path fill="#FFFFFF" d="M46.373,25.444c0-0.557,0.137-0.964,0.41-1.223s0.615-0.388,1.025-0.388c0.391,0,0.728,0.132,1.011,0.396
			s0.425,0.669,0.425,1.216s-0.142,0.955-0.425,1.223s-0.62,0.403-1.011,0.403c-0.41,0-0.752-0.134-1.025-0.403
			S46.373,25.991,46.373,25.444z M49.009,45.85h-2.432V29.794h2.432V45.85z"/>
		<path fill="#FFFFFF" d="M68.111,30.673c0,2.168-0.74,3.835-2.219,5.002c-1.48,1.167-3.598,1.75-6.352,1.75h-2.52v8.424h-2.49
			V24.433h5.552C65.436,24.433,68.111,26.513,68.111,30.673z M57.021,35.288h2.242c2.207,0,3.803-0.356,4.789-1.069
			s1.48-1.855,1.48-3.428c0-1.416-0.465-2.471-1.393-3.164s-2.373-1.04-4.336-1.04h-2.783V35.288z"/>
		<path fill="#FFFFFF" d="M82.1,45.85l-0.483-2.285h-0.117c-0.801,1.006-1.6,1.687-2.396,2.043s-1.789,0.535-2.98,0.535
			c-1.592,0-2.84-0.41-3.742-1.23c-0.904-0.82-1.355-1.988-1.355-3.502c0-3.242,2.593-4.941,7.778-5.098l2.725-0.088v-0.996
			c0-1.26-0.271-2.19-0.813-2.791c-0.541-0.601-1.408-0.901-2.6-0.901c-1.338,0-2.852,0.41-4.541,1.23l-0.747-1.86
			c0.791-0.43,1.657-0.767,2.601-1.011c0.941-0.244,1.887-0.366,2.834-0.366c1.914,0,3.332,0.425,4.256,1.274
			c0.922,0.85,1.384,2.212,1.384,4.087V45.85H82.1z M76.606,44.135c1.514,0,2.702-0.414,3.567-1.244
			c0.863-0.83,1.296-1.992,1.296-3.486v-1.451l-2.432,0.104c-1.934,0.068-3.328,0.368-4.183,0.9s-1.281,1.359-1.281,2.482
			c0,0.879,0.266,1.549,0.799,2.008C74.904,43.906,75.649,44.135,76.606,44.135z"/>
		<path fill="#FFFFFF" d="M99.84,43.695h-0.132c-1.123,1.631-2.803,2.447-5.039,2.447c-2.1,0-3.733-0.719-4.899-2.154
			c-1.168-1.436-1.751-3.477-1.751-6.123c0-2.646,0.586-4.702,1.758-6.167s2.803-2.197,4.893-2.197c2.178,0,3.848,0.791,5.01,2.373
			h0.19l-0.103-1.157l-0.059-1.128v-6.533h2.432V45.85h-1.978L99.84,43.695z M94.977,44.105c1.66,0,2.863-0.451,3.611-1.354
			c0.746-0.903,1.12-2.36,1.12-4.372v-0.514c0-2.275-0.379-3.898-1.136-4.87s-1.965-1.458-3.625-1.458
			c-1.426,0-2.518,0.554-3.273,1.663c-0.758,1.108-1.136,2.673-1.136,4.694c0,2.051,0.376,3.6,1.128,4.645
			S93.521,44.105,94.977,44.105z"/>
		<path fill="#FFFFFF" d="M122.046,45.85h-2.49V26.645h-6.782v-2.212h16.055v2.212h-6.782V45.85z"/>
		<path fill="#FFFFFF" d="M131.48,25.444c0-0.557,0.137-0.964,0.41-1.223s0.615-0.388,1.025-0.388c0.391,0,0.728,0.132,1.011,0.396
			s0.425,0.669,0.425,1.216s-0.142,0.955-0.425,1.223s-0.62,0.403-1.011,0.403c-0.41,0-0.752-0.134-1.025-0.403
			S131.48,25.991,131.48,25.444z M134.117,45.85h-2.432V29.794h2.432V45.85z"/>
		<path fill="#FFFFFF" d="M141.705,45.85h-2.432V23.056h2.432V45.85z"/>
		<path fill="#FFFFFF" d="M149.293,45.85h-2.432V23.056h2.432V45.85z"/>
	</g>
</g>
</svg>
