<?xml version="1.0" encoding="utf-8"?>
<!-- Generator: Adobe Illustrator 15.0.0, SVG Export Plug-In . SVG Version: 6.00 Build 0)  -->
<!DOCTYPE svg PUBLIC "-//W3C//DTD SVG 1.1//EN" "http://www.w3.org/Graphics/SVG/1.1/DTD/svg11.dtd">
<svg version="1.1" id="Layer_1" xmlns="http://www.w3.org/2000/svg" xmlns:xlink="http://www.w3.org/1999/xlink" x="0px" y="0px"
	 width="268.667px" height="70px" viewBox="0 0 268.667 70" enable-background="new 0 0 268.667 70" xml:space="preserve">
<circle fill="#222222" cx="75" cy="34.633" r="35"/>
<rect x="74.333" y="-7.7" fill="#222222" width="198.326" height="80.435"/>
<g>
	<path fill="#FFFFFF" d="M77.309-45H75.34l-3.457-11.473c-0.164-0.508-0.348-1.148-0.551-1.922s-0.309-1.238-0.316-1.395
		c-0.172,1.031-0.445,2.16-0.82,3.387L66.844-45h-1.969l-4.559-17.134h2.109l2.707,10.582c0.375,1.484,0.648,2.828,0.82,4.031
		c0.211-1.431,0.523-2.828,0.938-4.195l3.07-10.418h2.11l3.223,10.513c0.375,1.211,0.691,2.578,0.949,4.102
		c0.148-1.109,0.43-2.461,0.844-4.055l2.695-10.56h2.109L77.309-45z"/>
	<path fill="#FFFFFF" d="M89.708-44.766c-1.898,0-3.396-0.578-4.494-1.734c-1.098-1.156-1.646-2.762-1.646-4.815
		c0-2.07,0.51-3.715,1.529-4.934c1.019-1.219,2.389-1.828,4.107-1.828c1.609,0,2.883,0.529,3.82,1.588s1.406,2.455,1.406,4.189v1.23
		h-8.848c0.039,1.508,0.42,2.652,1.143,3.434c0.723,0.782,1.74,1.172,3.053,1.172c1.383,0,2.75-0.289,4.102-0.867v1.734
		c-0.688,0.297-1.338,0.51-1.951,0.639C91.316-44.83,90.575-44.766,89.708-44.766z M89.18-56.45c-1.031,0-1.854,0.336-2.467,1.008
		c-0.613,0.672-0.975,1.602-1.084,2.789h6.715c0-1.227-0.273-2.166-0.82-2.818C90.977-56.123,90.196-56.45,89.18-56.45z"/>
	<path fill="#FFFFFF" d="M103.723-58.055c1.688,0,2.998,0.576,3.932,1.729c0.934,1.153,1.4,2.783,1.4,4.893
		c0,2.11-0.471,3.748-1.412,4.916s-2.248,1.752-3.92,1.752c-0.836,0-1.6-0.153-2.291-0.463s-1.271-0.783-1.74-1.424h-0.141
		L99.141-45h-1.395v-18.234h1.945v4.43c0,0.992-0.031,1.883-0.094,2.672h0.094C100.598-57.414,101.942-58.055,103.723-58.055z
		 M103.442-56.426c-1.328,0-2.285,0.381-2.871,1.143c-0.586,0.762-0.879,2.045-0.879,3.85c0,1.806,0.301,3.097,0.902,3.873
		c0.601,0.776,1.566,1.166,2.895,1.166c1.195,0,2.086-0.437,2.672-1.308s0.879-2.123,0.879-3.756c0-1.671-0.293-2.917-0.879-3.737
		C105.575-56.015,104.668-56.426,103.442-56.426z"/>
	<path fill="#FFFFFF" d="M124.254-45h-1.992v-15.364h-5.426v-1.77h12.844v1.77h-5.426V-45z"/>
	<path fill="#FFFFFF" d="M131.801-61.325c0-0.445,0.109-0.771,0.328-0.979c0.219-0.208,0.492-0.311,0.82-0.311
		c0.312,0,0.582,0.105,0.809,0.316c0.227,0.211,0.34,0.535,0.34,0.973s-0.113,0.764-0.34,0.979
		c-0.227,0.215-0.496,0.322-0.809,0.322c-0.328,0-0.602-0.107-0.82-0.322C131.911-60.562,131.801-60.887,131.801-61.325z
		 M133.911-45h-1.945v-12.844h1.945V-45z"/>
	<path fill="#FFFFFF" d="M139.981-45h-1.944v-18.234h1.944V-45z"/>
	<path fill="#FFFFFF" d="M146.05-45h-1.944v-18.234h1.944V-45z"/>
	<path fill="#FFFFFF" d="M167.567-57.141c0,1.734-0.592,3.068-1.774,4.002c-1.184,0.934-2.877,1.4-5.08,1.4h-2.017V-45h-1.991
		v-17.133h4.44C165.425-62.133,167.567-60.469,167.567-57.141z M158.696-53.45h1.793c1.767,0,3.044-0.285,3.832-0.855
		c0.789-0.57,1.185-1.484,1.185-2.742c0-1.133-0.371-1.977-1.113-2.531s-1.898-0.832-3.469-0.832h-2.228V-53.45z"/>
	<path fill="#FFFFFF" d="M176.718-58.079c0.57,0,1.082,0.047,1.535,0.141l-0.27,1.805c-0.531-0.117-1-0.176-1.406-0.176
		c-1.039,0-1.928,0.422-2.666,1.266c-0.738,0.844-1.106,1.895-1.106,3.152V-45h-1.945v-12.844h1.604l0.224,2.379h0.095
		c0.477-0.836,1.051-1.479,1.723-1.934S175.916-58.079,176.718-58.079z"/>
	<path fill="#FFFFFF" d="M180.494-61.325c0-0.445,0.108-0.771,0.327-0.979c0.22-0.208,0.492-0.311,0.82-0.311
		c0.312,0,0.582,0.105,0.81,0.316c0.227,0.211,0.34,0.535,0.34,0.973s-0.113,0.764-0.34,0.979c-0.228,0.215-0.496,0.322-0.81,0.322
		c-0.328,0-0.603-0.107-0.82-0.322S180.494-60.887,180.494-61.325z M182.602-45h-1.944v-12.844h1.944V-45z"/>
	<path fill="#FFFFFF" d="M195.516-45v-8.309c0-1.047-0.238-1.828-0.716-2.344c-0.477-0.516-1.223-0.773-2.237-0.773
		c-1.344,0-2.328,0.363-2.953,1.09s-0.938,1.926-0.938,3.598V-45h-1.944v-12.844h1.582l0.315,1.758h0.094
		c0.398-0.633,0.957-1.123,1.677-1.471c0.719-0.348,1.521-0.521,2.401-0.521c1.547,0,2.711,0.373,3.492,1.119
		s1.172,1.939,1.172,3.58V-45H195.516z"/>
	<path fill="#FFFFFF" d="M205.606-46.371c0.345,0,0.677-0.025,0.996-0.076s0.573-0.104,0.762-0.158v1.488
		c-0.211,0.102-0.521,0.186-0.932,0.252c-0.411,0.065-0.779,0.1-1.106,0.1c-2.484,0-3.728-1.309-3.728-3.926v-7.641h-1.841v-0.938
		l1.841-0.809l0.819-2.742h1.125v2.977h3.728v1.512h-3.728v7.559c0,0.773,0.185,1.367,0.551,1.781
		C204.46-46.578,204.964-46.371,205.606-46.371z"/>
	<path fill="#FFFFFF" d="M215.356-44.766c-1.897,0-3.396-0.578-4.494-1.734c-1.098-1.156-1.646-2.762-1.646-4.815
		c0-2.07,0.51-3.715,1.529-4.934c1.019-1.219,2.389-1.828,4.106-1.828c1.608,0,2.883,0.529,3.819,1.588
		c0.938,1.059,1.406,2.455,1.406,4.189v1.23h-8.848c0.039,1.508,0.42,2.652,1.143,3.434c0.724,0.782,1.74,1.172,3.053,1.172
		c1.384,0,2.75-0.289,4.103-0.867v1.734c-0.688,0.297-1.338,0.51-1.95,0.639C216.964-44.83,216.223-44.766,215.356-44.766z
		 M214.83-56.45c-1.031,0-1.854,0.336-2.468,1.008c-0.612,0.672-0.975,1.602-1.084,2.789h6.716c0-1.227-0.273-2.166-0.82-2.818
		C216.626-56.123,215.843-56.45,214.83-56.45z"/>
	<path fill="#FFFFFF" d="M229.253-58.079c0.57,0,1.082,0.047,1.535,0.141l-0.27,1.805c-0.531-0.117-1-0.176-1.406-0.176
		c-1.039,0-1.928,0.422-2.666,1.266c-0.738,0.844-1.107,1.895-1.107,3.152V-45h-1.944v-12.844H225l0.224,2.379h0.094
		c0.478-0.836,1.052-1.479,1.724-1.934S228.451-58.079,229.253-58.079z"/>
	<path fill="#FFFFFF" d="M241.477-48.504c0,1.195-0.444,2.117-1.336,2.767s-2.142,0.973-3.75,0.973c-1.703,0-3.031-0.271-3.983-0.81
		v-1.805c0.616,0.312,1.278,0.56,1.985,0.738c0.707,0.18,1.39,0.27,2.045,0.27c1.017,0,1.797-0.162,2.345-0.485
		c0.547-0.324,0.819-0.818,0.819-1.481c0-0.5-0.218-0.929-0.649-1.283c-0.434-0.355-1.279-0.775-2.537-1.261
		c-1.195-0.444-2.045-0.834-2.549-1.166c-0.505-0.332-0.88-0.709-1.125-1.131c-0.246-0.422-0.369-0.926-0.369-1.512
		c0-1.047,0.426-1.873,1.276-2.479s2.021-0.908,3.504-0.908c1.384,0,2.734,0.281,4.056,0.844l-0.691,1.582
		c-1.289-0.531-2.457-0.797-3.504-0.797c-0.922,0-1.617,0.145-2.086,0.434s-0.703,0.688-0.703,1.195
		c0,0.344,0.088,0.637,0.264,0.879c0.176,0.242,0.459,0.473,0.85,0.691c0.392,0.218,1.142,0.535,2.25,0.949
		c1.523,0.555,2.554,1.113,3.088,1.676C241.21-50.062,241.477-49.355,241.477-48.504z"/>
</g>
<g id="Layer_6" display="none">
	<circle display="inline" fill="#222222" cx="233.667" cy="34.967" r="35"/>
	<rect x="55.008" y="-3.134" display="inline" fill="#222222" width="177.759" height="80.435"/>
	<g display="inline">
		<path fill="#FFFFFF" d="M114.968,45.184h-2.461l-4.32-14.34c-0.205-0.635-0.436-1.436-0.689-2.402
			c-0.253-0.966-0.385-1.548-0.395-1.743c-0.215,1.289-0.557,2.7-1.025,4.233l-4.19,14.251h-2.461l-5.698-21.416h2.637l3.384,13.228
			c0.469,1.855,0.811,3.535,1.025,5.039c0.264-1.787,0.654-3.535,1.172-5.244l3.838-13.023h2.637l4.027,13.14
			c0.469,1.514,0.865,3.223,1.188,5.127c0.186-1.387,0.537-3.076,1.055-5.068l3.369-13.199h2.637L114.968,45.184z"/>
		<path fill="#FFFFFF" d="M130.467,45.477c-2.373,0-4.246-0.723-5.618-2.168c-1.372-1.444-2.058-3.451-2.058-6.02
			c0-2.588,0.638-4.644,1.911-6.167c1.275-1.523,2.986-2.285,5.135-2.285c2.012,0,3.604,0.662,4.775,1.985
			c1.171,1.323,1.759,3.069,1.759,5.236v1.537H125.31c0.049,1.885,0.524,3.316,1.429,4.293c0.902,0.978,2.175,1.465,3.815,1.465
			c1.729,0,3.438-0.36,5.127-1.084v2.168c-0.859,0.371-1.673,0.638-2.438,0.799C132.476,45.396,131.551,45.477,130.467,45.477z
			 M129.808,30.873c-1.289,0-2.317,0.42-3.084,1.26c-0.767,0.84-1.218,2.002-1.354,3.486h8.394c0-1.533-0.342-2.708-1.025-3.523
			C132.056,31.281,131.078,30.873,129.808,30.873z"/>
		<path fill="#FFFFFF" d="M147.986,28.866c2.109,0,3.747,0.72,4.914,2.161s1.751,3.479,1.751,6.116c0,2.638-0.589,4.686-1.765,6.146
			c-1.178,1.46-2.811,2.188-4.9,2.188c-1.045,0-2-0.191-2.863-0.578c-0.865-0.385-1.59-0.979-2.176-1.778h-0.176l-0.514,2.063
			h-1.742V22.391h2.432v5.537c0,1.24-0.039,2.354-0.117,3.34h0.117C144.08,29.667,145.759,28.866,147.986,28.866z M147.634,30.902
			c-1.66,0-2.856,0.476-3.59,1.428c-0.732,0.952-1.099,2.556-1.099,4.812c0,2.256,0.376,3.868,1.128,4.84
			c0.752,0.973,1.959,1.459,3.618,1.459c1.494,0,2.606-0.545,3.341-1.635c0.732-1.089,1.098-2.652,1.098-4.693
			c0-2.09-0.365-3.648-1.098-4.673C150.298,31.415,149.167,30.902,147.634,30.902z"/>
		<path fill="#FFFFFF" d="M173.651,45.184h-2.489V25.98h-6.783v-2.212h16.056v2.212h-6.782L173.651,45.184L173.651,45.184z"/>
		<path fill="#FFFFFF" d="M183.083,24.779c0-0.557,0.137-0.964,0.41-1.223c0.272-0.259,0.614-0.388,1.024-0.388
			c0.392,0,0.728,0.132,1.011,0.396s0.426,0.669,0.426,1.216c0,0.547-0.143,0.955-0.426,1.223s-0.619,0.403-1.011,0.403
			c-0.41,0-0.752-0.134-1.024-0.403C183.22,25.734,183.083,25.326,183.083,24.779z M185.72,45.184h-2.432V29.129h2.432V45.184z"/>
		<path fill="#FFFFFF" d="M193.308,45.184h-2.432V22.391h2.432V45.184z"/>
		<path fill="#FFFFFF" d="M200.896,45.184h-2.432V22.391h2.432V45.184z"/>
	</g>
</g>
<g>
	<path fill="#FFFFFF" d="M114.855,36.191c0,1.508-0.547,2.684-1.641,3.527s-2.578,1.266-4.453,1.266
		c-2.031,0-3.594-0.262-4.688-0.785v-1.922c0.703,0.297,1.469,0.531,2.297,0.703s1.648,0.258,2.461,0.258
		c1.328,0,2.328-0.252,3-0.756s1.008-1.205,1.008-2.104c0-0.594-0.119-1.08-0.357-1.459s-0.637-0.729-1.195-1.049
		s-1.408-0.684-2.549-1.09c-1.594-0.57-2.732-1.246-3.416-2.027s-1.025-1.801-1.025-3.059c0-1.32,0.496-2.371,1.488-3.152
		s2.305-1.172,3.938-1.172c1.703,0,3.27,0.312,4.699,0.938l-0.621,1.734c-1.414-0.594-2.789-0.891-4.125-0.891
		c-1.055,0-1.879,0.227-2.473,0.68s-0.891,1.082-0.891,1.887c0,0.594,0.109,1.08,0.328,1.459s0.588,0.727,1.107,1.043
		s1.314,0.666,2.385,1.049c1.797,0.641,3.033,1.328,3.709,2.062S114.855,35.02,114.855,36.191z"/>
	<path fill="#FFFFFF" d="M120.012,40.75h-1.945V22.516h1.945V40.75z"/>
	<path fill="#FFFFFF" d="M123.973,24.426c0-0.445,0.109-0.771,0.328-0.979s0.492-0.311,0.82-0.311c0.312,0,0.582,0.105,0.809,0.316
		s0.34,0.535,0.34,0.973s-0.113,0.764-0.34,0.979s-0.496,0.322-0.809,0.322c-0.328,0-0.602-0.107-0.82-0.322
		S123.973,24.863,123.973,24.426z M126.082,40.75h-1.945V27.906h1.945V40.75z"/>
	<path fill="#FFFFFF" d="M136.183,40.984c-0.836,0-1.599-0.154-2.291-0.463s-1.271-0.783-1.74-1.424h-0.141
		c0.094,0.75,0.141,1.461,0.141,2.133v5.285h-1.945V27.906h1.582l0.27,1.758h0.094c0.5-0.703,1.082-1.211,1.746-1.523
		s1.425-0.469,2.285-0.469c1.703,0,3.018,0.582,3.943,1.746s1.389,2.797,1.389,4.898c0,2.109-0.471,3.748-1.412,4.916
		S137.855,40.984,136.183,40.984z M135.902,29.324c-1.312,0-2.261,0.363-2.847,1.09s-0.887,1.883-0.902,3.469v0.434
		c0,1.805,0.301,3.096,0.902,3.873s1.566,1.166,2.894,1.166c1.109,0,1.979-0.449,2.607-1.348s0.943-2.137,0.943-3.715
		c0-1.602-0.314-2.83-0.943-3.686S137.042,29.324,135.902,29.324z"/>
	<path fill="#FFFFFF" d="M162.304,28.609c0,1.734-0.592,3.068-1.775,4.002s-2.877,1.4-5.08,1.4h-2.016v6.738h-1.992V23.617h4.441
		C160.164,23.617,162.304,25.281,162.304,28.609z M153.433,32.301h1.793c1.766,0,3.043-0.285,3.832-0.855s1.184-1.484,1.184-2.742
		c0-1.133-0.371-1.977-1.113-2.531s-1.898-0.832-3.469-0.832h-2.227V32.301z"/>
	<path fill="#FFFFFF" d="M171.457,27.672c0.57,0,1.082,0.047,1.535,0.141l-0.27,1.805c-0.531-0.117-1-0.176-1.406-0.176
		c-1.039,0-1.928,0.422-2.666,1.266s-1.107,1.895-1.107,3.152v6.891h-1.945V27.906h1.605l0.223,2.379h0.094
		c0.477-0.836,1.051-1.48,1.723-1.934S170.652,27.672,171.457,27.672z"/>
	<path fill="#FFFFFF" d="M175.23,24.426c0-0.445,0.109-0.771,0.328-0.979s0.492-0.311,0.82-0.311c0.312,0,0.582,0.105,0.809,0.316
		s0.34,0.535,0.34,0.973s-0.113,0.764-0.34,0.979s-0.496,0.322-0.809,0.322c-0.328,0-0.602-0.107-0.82-0.322
		S175.23,24.863,175.23,24.426z M177.339,40.75h-1.945V27.906h1.945V40.75z"/>
	<path fill="#FFFFFF" d="M190.253,40.75v-8.309c0-1.047-0.238-1.828-0.715-2.344s-1.223-0.773-2.238-0.773
		c-1.344,0-2.328,0.363-2.953,1.09s-0.938,1.926-0.938,3.598v6.738h-1.945V27.906h1.582l0.316,1.758h0.094
		c0.398-0.633,0.957-1.123,1.676-1.471s1.52-0.521,2.402-0.521c1.547,0,2.711,0.373,3.492,1.119s1.172,1.939,1.172,3.58v8.379
		H190.253z"/>
	<path fill="#FFFFFF" d="M200.343,39.379c0.344,0,0.676-0.025,0.996-0.076s0.574-0.104,0.762-0.158v1.488
		c-0.211,0.102-0.521,0.186-0.932,0.252s-0.779,0.1-1.107,0.1c-2.484,0-3.727-1.309-3.727-3.926v-7.641h-1.84V28.48l1.84-0.809
		l0.82-2.742h1.125v2.977h3.727v1.512h-3.727v7.559c0,0.773,0.184,1.367,0.551,1.781S199.703,39.379,200.343,39.379z"/>
	<path fill="#FFFFFF" d="M210.093,40.984c-1.898,0-3.396-0.578-4.494-1.734s-1.646-2.762-1.646-4.816c0-2.07,0.51-3.715,1.529-4.934
		s2.389-1.828,4.107-1.828c1.609,0,2.883,0.529,3.82,1.588s1.406,2.455,1.406,4.189v1.23h-8.848c0.039,1.508,0.42,2.652,1.143,3.434
		s1.74,1.172,3.053,1.172c1.383,0,2.75-0.289,4.102-0.867v1.734c-0.688,0.297-1.338,0.51-1.951,0.639S210.96,40.984,210.093,40.984z
		 M209.566,29.301c-1.031,0-1.854,0.336-2.467,1.008s-0.975,1.602-1.084,2.789h6.715c0-1.227-0.273-2.166-0.82-2.818
		S210.582,29.301,209.566,29.301z"/>
	<path fill="#FFFFFF" d="M223.992,27.672c0.57,0,1.082,0.047,1.535,0.141l-0.27,1.805c-0.531-0.117-1-0.176-1.406-0.176
		c-1.039,0-1.928,0.422-2.666,1.266s-1.107,1.895-1.107,3.152v6.891h-1.945V27.906h1.605l0.223,2.379h0.094
		c0.477-0.836,1.051-1.48,1.723-1.934S223.187,27.672,223.992,27.672z"/>
	<path fill="#FFFFFF" d="M236.214,37.246c0,1.195-0.445,2.117-1.336,2.766s-2.141,0.973-3.75,0.973c-1.703,0-3.031-0.27-3.984-0.809
		v-1.805c0.617,0.312,1.279,0.559,1.986,0.738s1.389,0.27,2.045,0.27c1.016,0,1.797-0.162,2.344-0.486s0.82-0.818,0.82-1.482
		c0-0.5-0.217-0.928-0.65-1.283s-1.279-0.775-2.537-1.26c-1.195-0.445-2.045-0.834-2.549-1.166s-0.879-0.709-1.125-1.131
		s-0.369-0.926-0.369-1.512c0-1.047,0.426-1.873,1.277-2.479s2.02-0.908,3.504-0.908c1.383,0,2.734,0.281,4.055,0.844l-0.691,1.582
		c-1.289-0.531-2.457-0.797-3.504-0.797c-0.922,0-1.617,0.145-2.086,0.434s-0.703,0.688-0.703,1.195
		c0,0.344,0.088,0.637,0.264,0.879s0.459,0.473,0.85,0.691s1.141,0.535,2.25,0.949c1.523,0.555,2.553,1.113,3.088,1.676
		S236.214,36.395,236.214,37.246z"/>
</g>
</svg>
