<?xml version="1.0" encoding="utf-8"?>
<!-- Generator: Adobe Illustrator 15.0.0, SVG Export Plug-In . SVG Version: 6.00 Build 0)  -->
<!DOCTYPE svg PUBLIC "-//W3C//DTD SVG 1.1//EN" "http://www.w3.org/Graphics/SVG/1.1/DTD/svg11.dtd">
<svg version="1.1" xmlns="http://www.w3.org/2000/svg" xmlns:xlink="http://www.w3.org/1999/xlink" x="0px" y="0px"
	 width="268.667px" height="70px" viewBox="0 0 268.667 70" enable-background="new 0 0 268.667 70" xml:space="preserve">
<g id="Layer_5">
	<circle fill="#222222" cx="35" cy="34.633" r="35"/>
	<rect x="35" y="-7.7" fill="#222222" width="237.659" height="80.435"/>
	<g>
		<path fill="#FFFFFF" d="M61.309,42.518H59.34l-3.457-11.473c-0.164-0.508-0.348-1.148-0.551-1.922s-0.309-1.238-0.316-1.395
			c-0.172,1.031-0.445,2.16-0.82,3.387l-3.352,11.402h-1.969l-4.559-17.133h2.109l2.707,10.582c0.375,1.484,0.648,2.828,0.82,4.031
			c0.211-1.43,0.523-2.828,0.938-4.195l3.07-10.418h2.11l3.223,10.512c0.375,1.211,0.691,2.578,0.949,4.102
			c0.148-1.109,0.43-2.461,0.844-4.055l2.695-10.559h2.109L61.309,42.518z"/>
		<path fill="#FFFFFF" d="M73.708,42.752c-1.898,0-3.396-0.578-4.494-1.734s-1.646-2.762-1.646-4.816c0-2.07,0.51-3.715,1.529-4.934
			s2.389-1.828,4.107-1.828c1.609,0,2.883,0.529,3.82,1.588s1.406,2.455,1.406,4.189v1.23h-8.848
			c0.039,1.508,0.42,2.652,1.143,3.434s1.74,1.172,3.053,1.172c1.383,0,2.75-0.289,4.102-0.867v1.734
			c-0.688,0.297-1.338,0.51-1.951,0.639S74.575,42.752,73.708,42.752z M73.18,31.068c-1.031,0-1.854,0.336-2.467,1.008
			s-0.975,1.602-1.084,2.789h6.715c0-1.227-0.273-2.166-0.82-2.818S74.196,31.068,73.18,31.068z"/>
		<path fill="#FFFFFF" d="M87.723,29.463c1.688,0,2.998,0.576,3.932,1.729s1.4,2.783,1.4,4.893S92.584,39.832,91.643,41
			s-2.248,1.752-3.92,1.752c-0.836,0-1.6-0.154-2.291-0.463s-1.271-0.783-1.74-1.424h-0.141l-0.41,1.652h-1.395V24.283h1.945v4.43
			c0,0.992-0.031,1.883-0.094,2.672h0.094C84.598,30.104,85.942,29.463,87.723,29.463z M87.442,31.092
			c-1.328,0-2.285,0.381-2.871,1.143s-0.879,2.045-0.879,3.85s0.301,3.096,0.902,3.873s1.566,1.166,2.895,1.166
			c1.195,0,2.086-0.436,2.672-1.307s0.879-2.123,0.879-3.756c0-1.672-0.293-2.918-0.879-3.738S88.668,31.092,87.442,31.092z"/>
		<path fill="#FFFFFF" d="M108.254,42.518h-1.992V27.154h-5.426v-1.77h12.844v1.77h-5.426V42.518z"/>
		<path fill="#FFFFFF" d="M115.801,26.193c0-0.445,0.109-0.771,0.328-0.979s0.492-0.311,0.82-0.311c0.312,0,0.582,0.105,0.809,0.316
			s0.34,0.535,0.34,0.973s-0.113,0.764-0.34,0.979s-0.496,0.322-0.809,0.322c-0.328,0-0.602-0.107-0.82-0.322
			S115.801,26.631,115.801,26.193z M117.911,42.518h-1.945V29.674h1.945V42.518z"/>
		<path fill="#FFFFFF" d="M123.981,42.518h-1.945V24.283h1.945V42.518z"/>
		<path fill="#FFFFFF" d="M130.051,42.518h-1.945V24.283h1.945V42.518z"/>
		<path fill="#FFFFFF" d="M150.372,37.959c0,1.508-0.547,2.684-1.641,3.527s-2.578,1.266-4.453,1.266
			c-2.031,0-3.594-0.262-4.688-0.785v-1.922c0.703,0.297,1.469,0.531,2.297,0.703s1.648,0.258,2.461,0.258
			c1.328,0,2.328-0.252,3-0.756s1.008-1.205,1.008-2.104c0-0.594-0.119-1.08-0.357-1.459s-0.637-0.729-1.195-1.049
			s-1.408-0.684-2.549-1.09c-1.594-0.57-2.732-1.246-3.416-2.027s-1.025-1.801-1.025-3.059c0-1.32,0.496-2.371,1.488-3.152
			s2.305-1.172,3.938-1.172c1.703,0,3.27,0.312,4.699,0.938l-0.621,1.734c-1.414-0.594-2.789-0.891-4.125-0.891
			c-1.055,0-1.879,0.227-2.473,0.68s-0.891,1.082-0.891,1.887c0,0.594,0.109,1.08,0.328,1.459s0.588,0.727,1.107,1.043
			s1.314,0.666,2.385,1.049c1.797,0.641,3.033,1.328,3.709,2.062S150.372,36.787,150.372,37.959z"/>
		<path fill="#FFFFFF" d="M158.715,42.752c-1.859,0-3.299-0.572-4.318-1.717s-1.529-2.764-1.529-4.857
			c0-2.148,0.518-3.809,1.553-4.98s2.51-1.758,4.424-1.758c0.617,0,1.234,0.066,1.852,0.199s1.102,0.289,1.453,0.469l-0.598,1.652
			c-0.43-0.172-0.898-0.314-1.406-0.428s-0.957-0.17-1.348-0.17c-2.609,0-3.914,1.664-3.914,4.992c0,1.578,0.318,2.789,0.955,3.633
			s1.58,1.266,2.83,1.266c1.07,0,2.168-0.23,3.293-0.691v1.723C161.102,42.529,160.02,42.752,158.715,42.752z"/>
		<path fill="#FFFFFF" d="M172.907,42.518l-0.387-1.828h-0.094c-0.641,0.805-1.279,1.35-1.916,1.635s-1.432,0.428-2.385,0.428
			c-1.273,0-2.271-0.328-2.994-0.984s-1.084-1.59-1.084-2.801c0-2.594,2.074-3.953,6.223-4.078l2.18-0.07v-0.797
			c0-1.008-0.217-1.752-0.65-2.232s-1.127-0.721-2.08-0.721c-1.07,0-2.281,0.328-3.633,0.984l-0.598-1.488
			c0.633-0.344,1.326-0.613,2.08-0.809s1.51-0.293,2.268-0.293c1.531,0,2.666,0.34,3.404,1.02s1.107,1.77,1.107,3.27v8.766H172.907z
			 M168.512,41.146c1.211,0,2.162-0.332,2.854-0.996s1.037-1.594,1.037-2.789v-1.16l-1.945,0.082
			c-1.547,0.055-2.662,0.295-3.346,0.721s-1.025,1.088-1.025,1.986c0,0.703,0.213,1.238,0.639,1.605S167.747,41.146,168.512,41.146z
			"/>
		<path fill="#FFFFFF" d="M187.145,42.518v-8.309c0-1.047-0.238-1.828-0.715-2.344s-1.223-0.773-2.238-0.773
			c-1.344,0-2.328,0.363-2.953,1.09s-0.938,1.926-0.938,3.598v6.738h-1.945V29.674h1.582l0.316,1.758h0.094
			c0.398-0.633,0.957-1.123,1.676-1.471s1.52-0.521,2.402-0.521c1.547,0,2.711,0.373,3.492,1.119s1.172,1.939,1.172,3.58v8.379
			H187.145z"/>
		<path fill="#FFFFFF" d="M201.875,42.518v-8.309c0-1.047-0.238-1.828-0.715-2.344s-1.223-0.773-2.238-0.773
			c-1.344,0-2.328,0.363-2.953,1.09s-0.938,1.926-0.938,3.598v6.738h-1.945V29.674h1.582l0.316,1.758h0.094
			c0.398-0.633,0.957-1.123,1.676-1.471s1.52-0.521,2.402-0.521c1.547,0,2.711,0.373,3.492,1.119s1.172,1.939,1.172,3.58v8.379
			H201.875z"/>
		<path fill="#FFFFFF" d="M213.243,42.752c-1.898,0-3.396-0.578-4.494-1.734s-1.646-2.762-1.646-4.816
			c0-2.07,0.51-3.715,1.529-4.934s2.389-1.828,4.107-1.828c1.609,0,2.883,0.529,3.82,1.588s1.406,2.455,1.406,4.189v1.23h-8.848
			c0.039,1.508,0.42,2.652,1.143,3.434s1.74,1.172,3.053,1.172c1.383,0,2.75-0.289,4.102-0.867v1.734
			c-0.688,0.297-1.338,0.51-1.951,0.639S214.11,42.752,213.243,42.752z M212.715,31.068c-1.031,0-1.854,0.336-2.467,1.008
			s-0.975,1.602-1.084,2.789h6.715c0-1.227-0.273-2.166-0.82-2.818S213.731,31.068,212.715,31.068z"/>
		<path fill="#FFFFFF" d="M227.141,29.439c0.57,0,1.082,0.047,1.535,0.141l-0.27,1.805c-0.531-0.117-1-0.176-1.406-0.176
			c-1.039,0-1.928,0.422-2.666,1.266s-1.107,1.895-1.107,3.152v6.891h-1.945V29.674h1.605l0.223,2.379h0.094
			c0.477-0.836,1.051-1.48,1.723-1.934S226.336,29.439,227.141,29.439z"/>
		<path fill="#FFFFFF" d="M239.364,39.014c0,1.195-0.445,2.117-1.336,2.766s-2.141,0.973-3.75,0.973
			c-1.703,0-3.031-0.27-3.984-0.809v-1.805c0.617,0.312,1.279,0.559,1.986,0.738s1.389,0.27,2.045,0.27
			c1.016,0,1.797-0.162,2.344-0.486s0.82-0.818,0.82-1.482c0-0.5-0.217-0.928-0.65-1.283s-1.279-0.775-2.537-1.26
			c-1.195-0.445-2.045-0.834-2.549-1.166s-0.879-0.709-1.125-1.131s-0.369-0.926-0.369-1.512c0-1.047,0.426-1.873,1.277-2.479
			s2.02-0.908,3.504-0.908c1.383,0,2.734,0.281,4.055,0.844l-0.691,1.582c-1.289-0.531-2.457-0.797-3.504-0.797
			c-0.922,0-1.617,0.145-2.086,0.434s-0.703,0.688-0.703,1.195c0,0.344,0.088,0.637,0.264,0.879s0.459,0.473,0.85,0.691
			s1.141,0.535,2.25,0.949c1.523,0.555,2.553,1.113,3.088,1.676S239.364,38.162,239.364,39.014z"/>
	</g>
</g>
<g id="Layer_6" display="none">
	<circle display="inline" fill="#222222" cx="233.667" cy="34.967" r="35"/>
	<rect x="55.008" y="-3.134" display="inline" fill="#222222" width="177.759" height="80.435"/>
	<g display="inline">
		<path fill="#FFFFFF" d="M114.968,45.184h-2.461l-4.32-14.34c-0.205-0.635-0.436-1.436-0.689-2.402s-0.385-1.548-0.395-1.743
			c-0.215,1.289-0.557,2.7-1.025,4.233l-4.19,14.252h-2.461l-5.698-21.416h2.637l3.384,13.228c0.469,1.855,0.811,3.535,1.025,5.039
			c0.264-1.787,0.654-3.535,1.172-5.244l3.838-13.023h2.637l4.027,13.14c0.469,1.514,0.865,3.223,1.188,5.127
			c0.186-1.387,0.537-3.076,1.055-5.068l3.369-13.199h2.637L114.968,45.184z"/>
		<path fill="#FFFFFF" d="M130.467,45.477c-2.373,0-4.246-0.723-5.618-2.168s-2.058-3.451-2.058-6.02
			c0-2.588,0.638-4.644,1.911-6.167c1.275-1.523,2.986-2.285,5.135-2.285c2.012,0,3.604,0.662,4.775,1.985s1.758,3.069,1.758,5.237
			v1.537h-11.06c0.049,1.885,0.524,3.316,1.429,4.293c0.902,0.977,2.175,1.465,3.815,1.465c1.729,0,3.438-0.361,5.127-1.084v2.168
			c-0.859,0.371-1.673,0.637-2.438,0.798C132.476,45.396,131.551,45.477,130.467,45.477z M129.808,30.873
			c-1.289,0-2.317,0.42-3.084,1.26s-1.218,2.002-1.354,3.486h8.394c0-1.533-0.342-2.708-1.025-3.523S131.078,30.873,129.808,30.873z
			"/>
		<path fill="#FFFFFF" d="M147.986,28.866c2.109,0,3.747,0.72,4.914,2.161s1.751,3.479,1.751,6.116c0,2.637-0.589,4.685-1.765,6.145
			c-1.178,1.46-2.811,2.189-4.9,2.189c-1.045,0-2-0.192-2.863-0.578c-0.865-0.386-1.59-0.979-2.176-1.779h-0.176l-0.513,2.064
			h-1.743V22.391h2.432v5.537c0,1.24-0.039,2.354-0.117,3.34h0.117C144.08,29.667,145.759,28.866,147.986,28.866z M147.634,30.902
			c-1.66,0-2.856,0.476-3.589,1.428s-1.099,2.556-1.099,4.812c0,2.256,0.376,3.869,1.128,4.841s1.958,1.458,3.618,1.458
			c1.494,0,2.607-0.545,3.34-1.634s1.099-2.653,1.099-4.694c0-2.09-0.366-3.648-1.099-4.673S149.167,30.902,147.634,30.902z"/>
		<path fill="#FFFFFF" d="M173.651,45.184h-2.49V25.98h-6.782v-2.212h16.055v2.212h-6.782V45.184z"/>
		<path fill="#FFFFFF" d="M183.083,24.779c0-0.557,0.137-0.964,0.41-1.223s0.615-0.388,1.025-0.388c0.391,0,0.728,0.132,1.011,0.396
			s0.425,0.669,0.425,1.216s-0.142,0.955-0.425,1.223s-0.62,0.403-1.011,0.403c-0.41,0-0.752-0.134-1.025-0.403
			S183.083,25.326,183.083,24.779z M185.72,45.184h-2.432V29.129h2.432V45.184z"/>
		<path fill="#FFFFFF" d="M193.308,45.184h-2.432V22.391h2.432V45.184z"/>
		<path fill="#FFFFFF" d="M200.896,45.184h-2.432V22.391h2.432V45.184z"/>
	</g>
</g>
</svg>
